<svg xmlns="http://www.w3.org/2000/svg" width="34.759" height="26.452" viewBox="0 0 34.759 26.452">
  <g id="envelope" transform="translate(0 -57.75)">
    <g id="Group_11" data-name="Group 11" transform="translate(0 57.75)">
      <path id="Path_17" data-name="Path 17" d="M30.516,57.75H4.251A4.254,4.254,0,0,0,0,62V79.952A4.254,4.254,0,0,0,4.251,84.2H30.509a4.254,4.254,0,0,0,4.251-4.251V62.008A4.25,4.25,0,0,0,30.516,57.75Zm2.309,22.2a2.311,2.311,0,0,1-2.309,2.309H4.251a2.311,2.311,0,0,1-2.309-2.309V62.008A2.311,2.311,0,0,1,4.251,59.7H30.509a2.311,2.311,0,0,1,2.309,2.309V79.952Z" transform="translate(0 -57.75)" fill="#fff"/>
      <path id="Path_18" data-name="Path 18" d="M73.664,118.227l8.5-7.624a.973.973,0,1,0-1.3-1.446L69.14,119.679l-2.287-2.043c-.007-.007-.014-.014-.014-.022a1.438,1.438,0,0,0-.158-.137l-9.307-8.328a.973.973,0,1,0-1.295,1.453l8.6,7.688-8.566,8.019a.975.975,0,0,0-.043,1.374.993.993,0,0,0,.712.309.973.973,0,0,0,.662-.259l8.7-8.134,2.359,2.107a.968.968,0,0,0,1.295-.007l2.424-2.172,8.645,8.213a.973.973,0,0,0,1.374-.036.975.975,0,0,0-.036-1.374Z" transform="translate(-51.743 -105.223)" fill="#fff"/>
    </g>
  </g>
</svg>
