<svg xmlns="http://www.w3.org/2000/svg" width="39.591" height="39.591" viewBox="0 0 39.591 39.591" preserveAspectRatio="none">
  <path id="facebook" d="M5.8,39.591H18.713V25.518h-4.64v-4.64h4.64v-5.8a5.806,5.806,0,0,1,5.8-5.8h5.8v4.64h-4.64a2.322,2.322,0,0,0-2.32,2.32v4.64H30.1l-.773,4.64H23.353V39.591H33.792a5.806,5.806,0,0,0,5.8-5.8V5.8a5.806,5.806,0,0,0-5.8-5.8H5.8A5.806,5.806,0,0,0,0,5.8V33.792A5.806,5.806,0,0,0,5.8,39.591ZM2.32,5.8A3.484,3.484,0,0,1,5.8,2.32H33.792a3.484,3.484,0,0,1,3.48,3.48V33.792a3.484,3.484,0,0,1-3.48,3.48H25.672V27.838h5.622l1.547-9.279H25.672v-2.32h6.959V6.959H24.513a8.128,8.128,0,0,0-8.119,8.119v3.48h-4.64v9.279h4.64v9.434H5.8a3.484,3.484,0,0,1-3.48-3.48Zm0,0" fill="#4e4e4e" opacity="0.92"/>
</svg>
