<svg xmlns="http://www.w3.org/2000/svg" width="39.998" height="39.998" viewBox="0 0 39.998 39.998">
  <g id="instagram" opacity="0.92">
    <path id="Path_28" data-name="Path 28" d="M5.859,40h28.28A5.866,5.866,0,0,0,40,34.139V5.859A5.866,5.866,0,0,0,34.139,0H5.859A5.866,5.866,0,0,0,0,5.859v28.28A5.866,5.866,0,0,0,5.859,40ZM2.344,5.859A3.52,3.52,0,0,1,5.859,2.344h28.28a3.52,3.52,0,0,1,3.515,3.515v28.28a3.52,3.52,0,0,1-3.515,3.515H5.859a3.52,3.52,0,0,1-3.515-3.515Zm0,0" fill="#4e4e4e"/>
    <path id="Path_29" data-name="Path 29" d="M131.546,142.093A10.546,10.546,0,1,0,121,131.546,10.559,10.559,0,0,0,131.546,142.093Zm0-18.749a8.2,8.2,0,1,1-8.2,8.2A8.212,8.212,0,0,1,131.546,123.344Zm0,0" transform="translate(-111.547 -111.547)" fill="#4e4e4e"/>
    <path id="Path_30" data-name="Path 30" d="M364.516,68.031A3.515,3.515,0,1,0,361,64.515,3.52,3.52,0,0,0,364.516,68.031Zm0-4.687a1.172,1.172,0,1,1-1.172,1.172A1.173,1.173,0,0,1,364.516,63.344Zm0,0" transform="translate(-332.798 -56.235)" fill="#4e4e4e"/>
  </g>
</svg>
