<svg xmlns="http://www.w3.org/2000/svg" width="334.321" height="93.701" viewBox="0 0 334.321 93.701"><g transform="translate(-115.7 -162.965)"><rect width="233.36" height="40.645" transform="translate(216.661 194.913)" fill="none"/><text transform="translate(216.661 214.965)" fill="#fff" font-size="52" font-family="Anson-Regular, Anson"><tspan x="0" y="0">SR WORLD</tspan></text><g transform="translate(115.7 171.2)"><g transform="translate(0 0)"><path d="M205.49,175.2h0Z" transform="translate(-165.114 -173.404)" fill="#fff"/><path d="M177.568,182.8h0c-.045,0-.045,0-.18.045a.34.34,0,0,1-.18.09,5.269,5.269,0,0,1-.494.225v-.045c-.224.09-.224.09-.224.18.135-.045.135-.045.18-.045h0c-.09.09-.18.09-.27.18l.135-.045A9.086,9.086,0,0,0,177.568,182.8Z" transform="translate(-149.139 -177.59)" fill="#fff"/><path d="M213.1,175.1h0Z" transform="translate(-169.356 -173.348)" fill="#fff"/><path d="M214.129,175.19c-.18-.045-.359-.045-.629-.09h.09c.4.045.853.135,1.3.225v-.045c-.4-.09-.719-.135-.9-.18C214.039,175.19,214.084,175.19,214.129,175.19Z" transform="translate(-169.577 -173.348)" fill="#fff"/><path d="M225.272,181.419a.1.1,0,0,1,.09-.09c.584.314,1.123.674,1.662.988l.09-.09c-.763-.269-1.3-1.033-2.156-1.078,0,.045-.045.045-.045.09a7.159,7.159,0,0,1-1.213-.539,12.216,12.216,0,0,1,2.964,2.066h-.135s.494.135.449.494a.981.981,0,0,1-.225-.135l-.045.045c.314.18.314.18.449.18h0c.045,0,.09-.045.135-.045A24.126,24.126,0,0,1,225.272,181.419Z" transform="translate(-175.196 -176.433)" fill="#fff"/><path d="M307.1,272.929v.359a7.281,7.281,0,0,0,.045-.988v.18l-.045.449Z" transform="translate(-221.139 -226.895)" fill="#fff"/><path d="M307.2,270.639v-.449A.76.76,0,0,1,307.2,270.639Z" transform="translate(-221.194 -225.683)" fill="#fff"/><path d="M307.145,271.569V271.3l-.045.4A.165.165,0,0,0,307.145,271.569Z" transform="translate(-221.139 -226.344)" fill="#fff"/><path d="M158.86,171.2c-1.527,0-3.054.09-4.536.225,0,.045-.045.045-.045.09h.135c-.045,0-.09.045-.135.045a2.187,2.187,0,0,0,.539.045h0c.18,0,.18,0,.225.045H155c.045,0,.045.045.09.045h-.18l.494.09a.27.27,0,0,1-.18-.045h0l.045.045c.045,0,.135.045.18.045a1.942,1.942,0,0,0,.225.045h-.4a1.444,1.444,0,0,0-.359-.045,3.024,3.024,0,0,0,.449.045h0a6.578,6.578,0,0,0-2.111.09c-.045.045-1.392.135-1.437.135a5.185,5.185,0,0,0-1.258.18h.225a.764.764,0,0,0,.314-.045h.09a10.22,10.22,0,0,1,1.168.09h-.9a.876.876,0,0,0-.359.045h1.033a3.38,3.38,0,0,1,.674,0h-.18a11.714,11.714,0,0,0-1.707.135c.988-.045.988-.045,1.033-.045h-.629c-.629.045-.629.045-.719.09h-.09a.405.405,0,0,0,.225-.045h.449c-.359.045-.674.135-1.033.18H150.1s-1.886.359-2.2.4a.986.986,0,0,0-.225.135h0a.157.157,0,0,1,.09.045l-1.078.27-.18.045c-.314.045-.314.045-.449.135.853-.18,1.752-.269,2.56-.494h-.314a3.231,3.231,0,0,1,.808-.045c-.359.09-.719.135-1.033.224a4.947,4.947,0,0,0-.494.135h.045c-.225.09-.449.225-.719.314H147a2.863,2.863,0,0,1,.4-.09c-.135.045-.269.135-.4.09h-.135a12.642,12.642,0,0,1,1.392-.314,2.808,2.808,0,0,0-.584.18,11.8,11.8,0,0,0-1.347.359c.045,0,.09-.045.135-.045h.045a.786.786,0,0,0,.225-.045c.045,0,.09-.045.135-.045h.045c.045,0,.045,0,.135-.045.314-.09.629-.09.943-.18h.045c.135-.045.314-.045.449-.09a.639.639,0,0,0,.269-.09h-.135c.09,0,.225-.045.314-.045h.045a1.868,1.868,0,0,0,.494-.09h-.045c.674-.135,1.347-.314,2.021-.4.225-.045.4-.045.629-.09h.18a17.216,17.216,0,0,1,2.021-.135c-.135,0-.269.045-.359.045h0c-.4.045-.853.09-1.258.135H152.3s-.719.09-1.258.225h-.18s-.4.045-.764.09a5.254,5.254,0,0,1-.674.18h0l-.135.045c-.18.045-.988.225-1.3.314,1.258-.225,1.258-.225,1.3-.225-.539.135-1.078.314-1.617.4h0c-.045,0-.09.045-.135.045h0a5.613,5.613,0,0,0-1.168.359h0l-.045.045h.135c.449-.09.9-.225,1.347-.314h0a1.676,1.676,0,0,1,.674-.135c.314-.09.314-.09.449-.135.269-.045.494-.135.719-.18h.18l.09-.045a.957.957,0,0,1,.359,0c-.135.045-.314.09-.449.135-.045,0-4.177,1.258-4.761,1.3.045-.045.09-.045.18-.09a3.529,3.529,0,0,1-.539.18c.045,0,.09-.045.135-.09-.045,0-.09.045-.135.045a2.509,2.509,0,0,0,.359-.225c-1.213.4-1.213.4-1.392.4a4.116,4.116,0,0,0,.584-.314,25.541,25.541,0,0,1-3.1,1.123,3.8,3.8,0,0,0,.674-.449c-6.961,3.548-6.961,3.548-7.276,3.772-.943.674-1.347,1.8-2.2,2.56-2.156,1.841-2.335,2.021-2.515,2.425h.045a.34.34,0,0,1,.18-.09l-.135.135h0l.09-.09c0,.045-.045.045-.045.09h0c.719-.629,1.437-1.213,2.111-1.886.045-.045.09-.135.18-.18h0a.492.492,0,0,1,.18-.09h0c1.707-.584,2.784-2.2,4.4-2.919,0,.045-.045.045-.045.09.4-.225.4-.225.449-.314h-.09a17.749,17.749,0,0,1,3.009-1.662c-.045.18-.225.269-.314.4.18,0,.18,0,.225.045-1.347,1.078-1.347,1.078-1.392,1.078.045,0,.09-.045.18-.045a.165.165,0,0,0-.045.135,10.563,10.563,0,0,1-2.335,1.437v.09h.269a2.618,2.618,0,0,1-.449.494,3.015,3.015,0,0,1,.674-.269v.09a3.813,3.813,0,0,1,1.527-.853,15.107,15.107,0,0,1-1.841,1.527l.045.045c-1.168.943-1.168.943-1.258.943a.1.1,0,0,1-.09.09c0,.045,0,.045.045.09,0,0-.629.853-.719.988,0,0,.045.135-.135.449a.1.1,0,0,0,.09.09c-.045.269-.045.269-.314.359-.4-.269-.674.18-1.033.18a1.257,1.257,0,0,0-.045.269c.359-.045.584-.449,1.033-.359a.139.139,0,0,0,.045.09,2.617,2.617,0,0,1-.449.494.34.34,0,0,1,.18-.09l.045.045-.943,1.168c-.314.135-.674.135-1.033.269s-.539.539-.943.584c0,0-.629-.135-.629-.674-.359.045-.584.314-.943.4a.044.044,0,0,0-.045-.045c-.269.045-.494.225-1.347.853a14.258,14.258,0,0,1,1.482-.494.665.665,0,0,1-.629.719V188l-.045-.045-.045.045c.045.18-.135.359-.09.539a2.6,2.6,0,0,0-.719,1.392h.135l.045.045a.5.5,0,0,0,0,.359c-.4.359-.943.225-1.347.539a.618.618,0,0,1-.135-.18c.269-.359.674-.449.988-.674v-.09c-.045,0-.09-.045-.135-.045.135-.09.135-.09.135-.18-.359.135-.674.4-1.033.539a.789.789,0,0,1-.269.045l-.135.135h0c-.09.045-.09.045-.135.045-.135-.045-.719.539-.719.539-.225.27-.269.359-.269.4,0,0-.135.449-.269.4-.09-.314-.629-.045-.629-.045-.449.269-.629.764-.988,1.078a4.182,4.182,0,0,0,.225-.449,1.3,1.3,0,0,0-.269.449,2.748,2.748,0,0,1-.629.808,7.685,7.685,0,0,0,.763-1.258c-.269.359-.494.764-.763,1.123,0,0-.18.269-.674,1.258-.18.4-.719.4-.943.808a.346.346,0,0,1-.09.135H121c-.225.314-.225.314-.314.359v-.09c-.4.9-.943,1.707-1.258,2.6a13.238,13.238,0,0,1-.674,1.752h-.09a16.864,16.864,0,0,1,.764-2.335,4.586,4.586,0,0,0,.449-2.021.157.157,0,0,1-.09.045v-.09a4.534,4.534,0,0,1-.314.674,4.413,4.413,0,0,0,.225-.719h-.09c0,.045,0,.045-.045.045h0l.045-.045h0a42.465,42.465,0,0,0-3.907,17.875c0,.719.045,1.437.045,2.156a.165.165,0,0,1,.135-.045,2.415,2.415,0,0,1,.045-.719v0h0c.045-.269.045-.584.09-.853,0,.045.045.045.045.09a30.978,30.978,0,0,0,.135-4h0a5.293,5.293,0,0,0-.18.9,15.585,15.585,0,0,1,.045-2.515.165.165,0,0,1-.045.135c.045-.674.359-2.874.359-2.874v-.045a2.206,2.206,0,0,1,.135-.674h0c.18-.808.449-1.886.674-2.74v.09c0-.09.045-.135.045-.225a.165.165,0,0,1-.045.135,5.937,5.937,0,0,1,.449-1.3,9.439,9.439,0,0,1-.584,2.156c.09-.27.09-.27.09-.359-.045.135-.4,1.482-.449,1.752-.09.539,0,1.078-.135,1.617-.674,3.009-.449,3.548-.449,3.548,0-.045.045-.09.045-.135a.165.165,0,0,0,.045.135.157.157,0,0,1,.045-.09.044.044,0,0,0,.045.045c0,.09-.045.225-.045.314,0-.09.045-.225.045-.27.045.4,0,.808.045,1.213a6.572,6.572,0,0,1,.4-1.392.27.27,0,0,0,.045.18c.045-.09.045-.135.09-.225.045,0,.045,0,.4-.27.359.764-.853,1.3-.225,2.066a5.265,5.265,0,0,1,.18-1.213.27.27,0,0,0,.18-.045c.045-.314.045-.314.09-.359.494,1.752.629,1.976.9,1.886a.27.27,0,0,1,.045-.18c.269.225.314.314.314.4-.045,0-.09,0-.09.045.045.494.359.943.314,1.482a3.655,3.655,0,0,1,.674,1.8c.09.539.674.539.9.9a7.312,7.312,0,0,1,.808,1.392,1.092,1.092,0,0,1,.135.494c0,.135.045.269.045.629.09,1.257.09,1.257.045,1.347-.314.629-.314.629-.045,1.437,0,.045,0,.045.045.09.314.045.4.135.494.314.18-.225.18-.539.4-.719a1.57,1.57,0,0,1,.764.808c.045,0,.045-.045.09-.045.09.045.09.045.359.9.314-.045.719-.045,1.886.988l1.617,1.8a.8.8,0,0,1,.18.449,2.626,2.626,0,0,0,.09.853h0v.135c.09.943-.629,1.617-.9,2.47-.494,1.347.359,2.65.18,3.952a4.945,4.945,0,0,0-.09.808c0,.09-.09.135-.135.225a1.945,1.945,0,0,1-.225-.045.1.1,0,0,0-.09.09c-.135-.045-.225-.135-.359-.18-1.707.808.539,2.695-.135,4.042-.09-.27-.09-.539-.18-.808-.045,0-.09-.045-.135-.045.09.674.584,1.258.494,1.976-.359-.045-.494-.225-1.258-1.033a18.381,18.381,0,0,0,1.123,1.482s.629.764.584,1.123c-.269-.09-.269-.09-.674-.449.763.988.763.988.853,1.213-.135-.135-.269-.225-.4-.359,0,0,.9,1.123,1.617,1.886l.584.629-.045-.045c-.135-.135-.314-.359-.539-.584l-.494-.539c.09.09.18.225.269.314a42.893,42.893,0,0,0,65.84-4.312c0-.045.045-.045.045-.09s.045-.045.045-.09.045-.045.045-.09c.269-.359.494-.674.719-1.033h0c.045-.045.045-.09.09-.135.225-.314.4-.629.629-.943a4.145,4.145,0,0,1-.225.359,51.919,51.919,0,0,0,5.344-12.081c-.045.135-.045.269-.09.4H200c.135-.449.225-.853.314-1.3-.09.359-.135.584-.18.719.045-.135.045-.225.09-.269a2.043,2.043,0,0,0,.135-.494c0,.045,0,.09-.045.09a.165.165,0,0,1,.045-.135v-.045h0l.135-.539-.135.539h-.045a7.183,7.183,0,0,0,.225-.943,39.326,39.326,0,0,0,.808-5.614v-.314a2.187,2.187,0,0,1,.045-.539v-.18a1.244,1.244,0,0,1,.045-.4c0-.18.045-.359.045-.539h0v.135c0-.539.045-1.033.045-1.572C201.8,190.377,182.573,171.2,158.86,171.2Zm-31.752,19.986a.6.6,0,0,1-.225.135c-.045,0-.09-.045.09-.314,0,.09.09.135.135.18Zm72.038,26.632h0l.045.09c.045-.045.045-.09.135-.09h.045c.045-.045.09-.09.045-.449h0a9.887,9.887,0,0,0,.629-2.29v.18a.776.776,0,0,0,.045-.449,3.22,3.22,0,0,0,.135-1.123v.225c.045-.09,0-.225.045-.314a1.053,1.053,0,0,1,.09.539l.045-.045c0,.045,0,.045.045.135.135-.045.18.18.18.225v.045c0,.09-.09.18-.135.269a.638.638,0,0,0,.09.269c-.09.045-.045.135-.09.225l-.045-.045c-.045.719-.045.719,0,.808.314,1.078.18,1.123.09,1.168l-.045-.045c-.09.9-.135,1.527-.359,2.874a2.626,2.626,0,0,1-.269.719v-.314h-.045l-.09.09c0-.135,0-.135-.045-.18-.135.135-.135.314-.27.4a1.88,1.88,0,0,0-.045-.314c-.045.135-.18.18-.225.269,0-.045,0-.045-.045-.18-.045-.314,0-.674-.045-.988a.671.671,0,0,0-.135-.314l-.045-.584A5.367,5.367,0,0,1,199.145,217.818Zm1.033,5.075c-.045.09-.045.135-.09.225h0c-.045.045-.045.045-.045.09l-.045.09c-.045-.045.09-.539.18-.539a.044.044,0,0,1,.045.045v-.269h0c.045,0,0,.045.045.09.045,0,0-.045.045-.045v.09a.2.2,0,0,1,.045-.135v.269c-.09.045-.135.09-.18.09Zm-1.527.18c0,.045,0,.09.045.09s.045,0,.359-.18c.045-.135.045-.225.09-.359,0,.045,0,.045.045.09.045.09.135-.09.18-.09s.045.09.045.18c.045.18.045.225.09.18l.135-.135a2.761,2.761,0,0,1-.045.629v.045h0c-.045-.045,0-.18-.09-.18-.045,0-.09.09-.09.135-.045.09-.045.09-.09.09s-.045-.045-.09,0c-.045,0-.045.09-.09.09,0,0-.045,0,0-.09-.135.18-.18.225-.225.135s-.045-.09-.09-.09c-.045.045-.045.09-.09.09-.045.045-.045-.045-.09,0a.452.452,0,0,0-.045.135h-.449c0-.09.045-.18.045-.269a.694.694,0,0,0-.269.135v-.225c.09,0,.135-.135.18-.359,0-.045.045-.135.045-.18.045-.045.09,0,.135-.045s.045-.135.09-.18h0c.045.045,0,.18.09.135C198.606,222.983,198.606,222.983,198.651,223.073Zm-.9-3.368h0a.217.217,0,0,1,0,.314h.045c0,.135-.18.269-.045.449.045.045.18,0,.225.09a.418.418,0,0,1,0,.269c.045,0,.09.045.09.314.045-.09.045-.09.09-.09.045.045.135.09.09.629,0,0-.045.494-.18,1.392a.346.346,0,0,1-.09-.135.165.165,0,0,1-.045.135c-.045-.045-.09-.045-.135-.09v.27h-.045c-.135-.135-.09-.359-.269-.449l-.18-.269V222.4c0-.135-.045-.135-.09-.18-.09-.09-.135-.18-.225-.539a6.978,6.978,0,0,0-.18-.943c0-.045-.045-.09-.045-.135-.045-.135-.269-.18-.269-.359,0-.4-.09-.9-.314-.853a.044.044,0,0,1-.045-.045c-.045-.09,0-.18-.045-.225l-.135-.135c-.135-.314-.4-.494-.539-.764,0,0-.18-.494-.045-.584.135,0,.18.135.269.18.135-.135.449-.269.539.045a3.1,3.1,0,0,0,.18.449c0,.045.045.045.045.09.09.09.18.09.269.18.045.09,0,.225.135.269h.045c.045.045.045.045.135.314.045-.045.045-.09.09-.135.045,0,.09.045.09.225.09,0,.135.09.225.269.09-.09.09-.09.135-.09.045.045.09.18.045.449A.633.633,0,0,0,197.753,219.7Zm-42.8-47.247h.09a29.186,29.186,0,0,1,3.683.359h.045a.34.34,0,0,1,.18.045h0c-.135.045-.225.09-.359.135h0a5.475,5.475,0,0,0-.764.314h.045a2.235,2.235,0,0,1,.629-.27l-.09.045c-1.168.449-1.168.449-1.527.584-.045.045-.045.045-.494.269.045,0,.135-.045.18-.045a2.176,2.176,0,0,0-.4.27c-.629.314-1.168.808-1.8,1.123a4.479,4.479,0,0,1,1.347-1.033l-1.707.808.045.045c-.18.135-.449.135-.629.27.18-.045.359-.135.539-.18.045,0,.045.045.09.045h.09c0,.09-.225.629-3.144,1.437v-.09a1.21,1.21,0,0,0,.359-.314c-1.258.494-2.335,1.3-3.548,1.841.045-.09.045-.09.225-.225-.135-.045-.135-.045-.674.27-.359-.09-.539.539-.943.314-1.931.943-3.279,2.695-5.165,3.638a.157.157,0,0,0-.09-.045c0-.045.045-.045.045-.09a.137.137,0,0,0-.18,0,6.361,6.361,0,0,1,.719-.764v-.09a1.186,1.186,0,0,0-.314.045v-.09l.135-.135c-.045,0-.045,0-.09-.045a23.693,23.693,0,0,1,1.841-1.841c.449-.359,1.033-.539,1.482-.9-.225,0-.4.18-.629.225a19.448,19.448,0,0,1,3.773-2.246h.045l.045-.045h.045a3.966,3.966,0,0,1,.719-.269v.09a.044.044,0,0,1,.045.045h.045a.341.341,0,0,0,.18-.09h.045l.09-.045c0-.045,0-.045,1.213-.494a.157.157,0,0,1-.09.045v.045h0c.853-.269,1.617-.808,2.47-1.078-.09.135-.09.135-.359.269,0,0,2.2-.764,2.246-.764-.314.045-.629.18-.988.225l.4-.135A45.55,45.55,0,0,1,158.86,173h-1.707a10.159,10.159,0,0,0-1.168.045h-.135a1.242,1.242,0,0,0-.4.045l-.988.045h.269c.18,0,.988-.045,1.752-.09H158.9a5.156,5.156,0,0,1-.629-.09h-.4c-.135,0-.269-.045-.4-.045h-.225l-1.617-.135h-1.437c-.09,0-.674-.045-.674-.045C153.65,172.458,154.773,172.458,154.953,172.458Zm-2.56.494h-.359c-.135.045-.764.135-.764.135h-.135c-.045.045-.045.045-.135.045h-.4a.4.4,0,0,0-.225.045h0a.57.57,0,0,1,.27-.045.4.4,0,0,0-.225.045,1.435,1.435,0,0,1,.314-.045c-.045,0-.045,0-.494.045h-.045s-.269.045-.359.045h.225s-.9.18-.943.18h-.18a4.141,4.141,0,0,1,.4-.135h.09c.225-.045.494-.09.719-.135h-.09c-.225.045-.4.045-.629.09v-.045a1.5,1.5,0,0,1-.449,0h-.135a.044.044,0,0,0,.045-.045h-.045c.045-.045.045-.045.18-.045h.09c.584-.09,1.123-.225,1.707-.314h.225c.18,0,.225-.045.359,0,.09,0,.18-.045.225,0h0a.044.044,0,0,1-.045.045h.225a2.415,2.415,0,0,0,.494-.045c-.045-.045-.045-.045-.225-.045h.18a.877.877,0,0,0,.314-.045h.09s.4-.045.584-.045h2.246a5.855,5.855,0,0,1,.763.045c.314.045.674.045.988.09,0,0-1.258-.09-1.392-.09h-.09a2.535,2.535,0,0,1,.314.045h-.539c.988,0,1.482.045,1.707.045H155c-1.258.045-2.38.135-2.38.135A1.26,1.26,0,0,0,152.393,172.952Zm1.752,0h-.584a1.528,1.528,0,0,0-.449.045.786.786,0,0,0,.225-.045h.314c.4-.045.763-.045,1.168-.09h.359a2.81,2.81,0,0,0,.763-.045h.674c-.269.045-.494,0-.764.045h.045a1.684,1.684,0,0,0-.494.045c-.719.045-.719.045-.853.045h-.4Zm-13.788,5.659.584-.584c.629-.4,1.257-.763,1.886-1.168h0l.135-.135.135-.135a.157.157,0,0,0-.09.045l-.045.045c-.27.135-.27.135-.359.135.045,0,.045-.045.09-.045h0l-.314.09c-.045,0-.045-.045-.09-.045a1.292,1.292,0,0,0,.269-.18c.09-.045.09-.045.539-.225h0c.045-.045.135-.045.225-.09a.639.639,0,0,1,.27-.09c-.045,0-.045.045-.09.045l-.045.045h0v.045h0v.045c1.707-.449,3.323-1.123,4.985-1.707h.09a1.875,1.875,0,0,0,.449-.18,2.255,2.255,0,0,0-.539.09,4.155,4.155,0,0,0,.449-.135c1.3-.359,1.3-.359,1.437-.4l.09-.045a5.067,5.067,0,0,0,.943-.269,7.424,7.424,0,0,1-1.123.225.948.948,0,0,0,.449-.18h0c-.09.045-.09.045-.4.09h-.09c.045,0,.135-.045.18-.045h-.09c.045,0,.045,0,.09-.045h.135a.044.044,0,0,1-.045-.045c.045,0,.045-.045.09-.045h-.09a3.335,3.335,0,0,1,.853-.18h-.225c.225-.045.853-.18.988-.18h.045a.488.488,0,0,0,.225-.045h0a.157.157,0,0,0-.09.045h.045c.584-.045,1.168-.18,1.752-.27h.09c.18,0,.314-.045.494-.045h-.045s.853-.045,1.213-.09a3.4,3.4,0,0,0,.674-.045h.09a9.443,9.443,0,0,1,1.662,0c-1.662.045-2.29.045-3.593.18-.4.045-.943.09-1.617.18h-.045c-.225.045-.494.045-.719.09h.09c-.045,0-.135.045-.18.045h.045c.539-.09,1.078-.18,1.662-.224,1.392-.135,1.931-.18,2.335-.18h.09c.225,0,.494-.045.719-.045h-.09c.449,0,.674-.045.943-.045-.4,0-.763.045-1.168.045h-.045a5.507,5.507,0,0,0-.853.09s-.763.09-1.123.09c-.18,0-.314.045-.494.045h0a8.765,8.765,0,0,1,1.033-.09c-.135,0-.225.045-.359.045h.09a.336.336,0,0,0-.225.045,5.5,5.5,0,0,1,.853-.09,4.992,4.992,0,0,1-.584.09h.045c-.18.045-.314.045-.494.09h-.135a5.6,5.6,0,0,1-.853.135,1.186,1.186,0,0,1,.314-.045c-.18.045-.4.045-.584.09h.09a.877.877,0,0,1-.314.045,1.258,1.258,0,0,1,.27-.045h.045a.27.27,0,0,0,.18-.045c-.359.045-.674.18-1.033.225a.666.666,0,0,0-.314.045h.18c-.045,0-.09,0-.09.045l-.18.045a2.045,2.045,0,0,0-.359.09.27.27,0,0,0,.18-.045.165.165,0,0,0-.135.045,1.946,1.946,0,0,1-.225.045h.18c-.045,0-.045,0-.09.045h0c-.4.135-.4.135-.449.135h-.09c-.09,0-.18.045-.314.045h.09a1.416,1.416,0,0,1-.359.09.877.877,0,0,1,.314-.045,4.91,4.91,0,0,1-.763.225h-.18a.34.34,0,0,0-.18.09h0l-.045.045v.045h-.045c-.314.135-.314.135-.494.135,0-.045.045-.045.045-.09-.4.18-.853.135-1.213.449h0a3.085,3.085,0,0,1-.359.135h.045c-.045.045-.135.045-.18.09l-.09.045-.045.045c.045,0,.045.045.09.045a9.73,9.73,0,0,0-1.033.494h.09c-.269.135-.494.314-.764.449a.157.157,0,0,0-.09.045h0c-.18.045-.314.135-.494.18,0-.045.045-.045.045-.09l-.269.135-.135.045a2.319,2.319,0,0,0-.584.269V176.9c.045-.045.135-.09.18-.135a.34.34,0,0,1-.18.09l.359.09a.759.759,0,0,1-.225.09,1.345,1.345,0,0,0-.359.18h-.09c0-.045.045-.045.045-.09l.09-.045a2.106,2.106,0,0,0,.4-.269,2.4,2.4,0,0,1,.494-.225,4.112,4.112,0,0,0,.808-.539c-.359.18-.808.18-1.123.494-.18.09-.314.18-.494.27l-.539.269a.758.758,0,0,0,.225-.09,17.408,17.408,0,0,1-2.785,1.662.157.157,0,0,0,.045-.09.343.343,0,0,1-.225.09,1.951,1.951,0,0,0,.314-.269c.135-.359.629-.359.764-.719-.674.269-1.078.853-1.662,1.213h0c-.045,0-.045.045-.09.045s-.135.045-.18.045C140.132,178.97,140.222,178.745,140.356,178.61Zm49.537,33.728c-.18.449-.359.9-.584,1.347l-.4.135c0,.9.584,1.662.539,2.56,0,.539-.4.943-.584,1.392-.045.045-.045.135-.09.225-.314.674-.4.539-.853-.18a19.866,19.866,0,0,1-2.29-4.581c-.314-.9-.359-1.886-.674-2.784-.18.314-.045.763-.359,1.033-.269.225-1.168-.27-1.213-.9.449-.18.494-.18.539-.539-1.033.269-1.392-.853-2.2-1.078-.943-.27-1.662.629-2.6.494-1.976-.225-1.976-.225-1.976-.27-.359-.674-.359-.674-.539-.674-.449-.045-.494.584-.943.539-.045,0-.09-.045-.18-.045-.045,0-.135-.045-.18-.045s-.943-.27-1.168-.359l-.09-.045c-.539-.4-.764-1.033-1.213-1.527a1.221,1.221,0,0,1-.4,0l-.314-.314a4.238,4.238,0,0,1-.135.4c-.045.045-.135.045-.225.09a1.947,1.947,0,0,1,.045.225c-.045.045-.135.045-.18.09a13.828,13.828,0,0,1,1.527,1.841,1.315,1.315,0,0,0,.449.9c.045-.629.045-.629.135-.808.09.09.09.09.269,1.213.045.045.135.09.18.135a1.948,1.948,0,0,1,.225-.045h0a2.747,2.747,0,0,1,.539-.225c.269-.045.494.18.763-.045.045-.045.045-.045.09-.18a3.532,3.532,0,0,1,.674-1.213c.09-.045.09-.045.18.4.09.4.09.539.225.674.314.4.943.09,1.258.494a3.259,3.259,0,0,1,.629.853h0a6.93,6.93,0,0,1-.4,1.078.241.241,0,0,1-.18.135c-.18,0-.225.045-.27.225-.045.225.225.449.09.719-.045.045-.045.09-.18.045-.225,0-.314,0-.4.4a.32.32,0,0,1-.135.27,2.381,2.381,0,0,1-.449.27h0c-.09.09-.09.224-.09.449-.09.045-.09,0-.18,0-.135-.045-.135-.045-.494.045-.853.269-.943.853-.943.9,0,0,.045.18-.135.18h0c-.18,0-.18,0-.629.359-.269.225-.584.18-.9.359-.18.09-.225.314-.359.449s-.359.09-.539.18c-.18.135-.225.4-.539.4-.4,0-.808,0-.9.449-.9.09-.9.09-1.078,0l-.135-.494a6,6,0,0,1-.314-.808c-.09-.359.045-.719-.09-1.033a1.445,1.445,0,0,0-.359-.584l-.09-.09c-1.976-1.841-2.695-4.536-4.446-6.557-.045,0-.09,0-.135-.09a4.425,4.425,0,0,0,.09-.764,9.147,9.147,0,0,1-.4.988c-.359-.449-.494-1.033-.943-1.392a31.189,31.189,0,0,0,4,8.039h0c.225.449.269.988.539,1.437.045-.045.135-.045.18-.09,1.8,1.123,2.111,1.841,2.111,1.841a1.366,1.366,0,0,1-.359.359c1.8,1.168,3.189-.808,4.85-.584a1.946,1.946,0,0,1,.045.225c-.045,3.368-4.446,8.4-5.794,8.713-1.617,2.695-1.617,2.695-.988,3.1v.225c-.314.808.764,1.257.539,2.021l-.269,2.246a1.946,1.946,0,0,1,.045.225,13.179,13.179,0,0,1-3.5,2.56.535.535,0,0,0,.18.584c-.045.584.449,1.123.045,1.707-.4.494-1.258.314-1.527.988.674,1.437-3.638,4.042-4.042,4l-.135.135a29.079,29.079,0,0,0-3.413,0,1.947,1.947,0,0,0,.045-.225,1.421,1.421,0,0,1-.359-.539l.135-.135a1.947,1.947,0,0,1-.045-.225c-.269-1.123-1.347-1.707-1.8-2.695-.359-.719-.18-1.572-.539-2.29-.045-.09-.359-.584-.808-1.213-1.033-1.572-1.033-1.572-.763-2.74.18-.764.9-1.3.988-2.111l-.539-2.335c-.494-1.482-1.841-2.425-2.425-3.862a7.327,7.327,0,0,0,.4-.719,18.032,18.032,0,0,0,.09-2.2,3.522,3.522,0,0,1-.674-.449h-.09l-.135.135c-.494-.18-1.347.269-1.482-.449-.18-.853-.449-.9-1.213-1.033-.853-.18-1.527.449-2.335.539-.225.045-.359.225-.584.269-.539.045-.853-.494-1.392-.494s-.943.629-1.572.449c-1.078-.359-1.392-1.572-2.335-2.111-.135-.18-.135-.18-.539-.225a1.057,1.057,0,0,0,.09-.359l-.853-1.841v-.135a1.942,1.942,0,0,1-.225.045c0-.225-.135-.4-.135-.629-.269-.045-.4-.314-.674-.4a9.506,9.506,0,0,0-.09-1.662,6.321,6.321,0,0,0,.853-1.617h.09c-.045-.045-.045-.135-.09-.18a3.011,3.011,0,0,0-.045-1.123c.135-.135.449-.4-.09-1.033l2.6-3.907c.494-.584,1.347-.494,1.841-1.033.359-.4.09-.988.4-1.347a.621.621,0,0,0,.135-.18c.18-.225.225-.494.449-.719a14.6,14.6,0,0,1,1.976-1.8c.269.449,1.347.674,1.347.674.494.045.853-.449,1.392-.4.808-1.123,2.066-.045,3.009-.584a.915.915,0,0,0,.584.045c.494.269.943-.18,1.392-.045a.555.555,0,0,0,.18.359.34.34,0,0,0,.18-.09v.18c-.09.09-.225.18-.314.27.225.674.225.674-.4,1.482h0l-.045.135c.359.225.359.225.539.225.314,1.078,1.617.314,2.111,1.078.4.584,1.078.764,1.617,1.168a.621.621,0,0,0,.18.135c.045.045.135.09.18.135.719-.18.269-1.033.674-1.392.584-.629.674-.584,1.707.09.045,0,2.829,1.168,3.413.719a4.055,4.055,0,0,1,.4-.225l.853-.045c.18.225.494.18.719.359,1.931-.539.584-2.74,1.258-4.042,0-.045-.045-.135-.045-.18l-.359.18c-.539-.27-.763.449-1.213.449-.314,0-.449-.269-.674-.4l-.359-.18a.341.341,0,0,1-.18.09v.225c-.4.314-.4.314-1.078-.225-.045,0-.135.045-.18.045a.382.382,0,0,1-.225-.135l.135-.135a1.243,1.243,0,0,1-.4-.045,2.226,2.226,0,0,0-.18-.584c-.045-.045-.135-.09-.18-.135h-.135c0-.045-.045-.135-.045-.18l.045-.045.045-.18h.09a5.618,5.618,0,0,0-.045-.629h-.225c-.045-.045-.045-.135-.09-.18.4-.584,1.258-.314,1.707-.808-.045-.045-.135-.09-.18-.135a.34.34,0,0,1,.18-.09c.269.09.269.09.808.045.135-.225.135-.225,1.8-.808a.633.633,0,0,1,.314.27.817.817,0,0,1,.719.314h0s1.572.449,2.156-.359c.225-.314-1.572-2.335-2.29-2.246a1.389,1.389,0,0,1-.269-.539c.225-.09.225-.09.539-.584h0l.045-.135-.18-.359a1.945,1.945,0,0,1,.225-.045c.045-.09.09-.269.135-.359a1.83,1.83,0,0,0-1.392.763h-.18a2.51,2.51,0,0,0-.225.359c-.045-.045-.09-.135-.135-.18h-.225l-.135.135c-.225-.135-.494,0-.719-.135a.51.51,0,0,0-.135-.359c-.4.09-.4.09-.988,1.437h-.18c-.359.584-.18,1.3-.584,1.841h.045c.359.764.359.764.539.808,0,.045.045.135.045.18-.629.045-.629.045-1.347.764a1.667,1.667,0,0,0,.09-.4.78.78,0,0,0-1.258.135.34.34,0,0,1,.09.18.51.51,0,0,1-.359.135,1.348,1.348,0,0,0-.18-.359.811.811,0,0,0,0,.764c-.045.045-.045.135-.09.18.045.045.045.135.09.18a.34.34,0,0,1-.09.18c.4.225.494.4.539.584-.045.045-.045.135-.09.18-.808-.539-.808-.539-1.213-.494h-.045c-.045-.045-.045-.045-.18-.449-.674-.763-.719-.988-.719-1.078-.135-.494.4-1.168-.225-1.527-.9-.494-1.168-1.482-1.8-2.2-.09.09-.225.135-.314.225a1.9,1.9,0,0,0-.135-.584c-.359.18-1.258.719.539,2.874.225-.09.269-.09.539.135-.045.045-.045.135-.09.18.269.494.943.494,1.123,1.078a.34.34,0,0,0-.09.18c-.225-.135-.359-.359-.584-.494-.4.4-.314.494-.045.853v.225a3.752,3.752,0,0,0-.539.808c-.045,0-.135.045-.18.045v-.18c.18-.449.18-.449.225-.494,0-.808-.09-.853-.4-.988-.18-.584-.853-.764-1.213-1.213h0a.659.659,0,0,0-.225-.269l-.045-.09a.758.758,0,0,0-.09-.225c-.045,0-.135-.045-.18-.045-.674-1.662-.674-1.707-1.3-1.123-.4,0-.584.4-.9.539,0,0-.449-.18-.853-.359-.18,0-.18,0-.629.943-.314,1.033-2.335,1.078-1.841,2.425-.943.763-1.123.943-1.258,1.168a13.327,13.327,0,0,1-1.931.314c-.18-.225-.18-.225-.18-.719l-.135-.135a3.64,3.64,0,0,0-.988,0c.314-.9.314-.9.09-1.168.225-1.123,1.033-2.066.988-3.234,1.168-.763,2.29.9,3.458.09,1.123-.764-.09-1.931.494-2.785a.775.775,0,0,1-.269-.269c-.494-.18-.539-.225-.629-.494.045-.045.135-.09.18-.135-.045-.045-.09-.135-.135-.18l.135-.135c.359.045.763.045,1.123.09.09-.09.09-.09.135-.853h.225a1.362,1.362,0,0,0,.225.314c.9-.045.9-1.437,1.931-1.257.18-.18.4-.314.584-.494h-.045a2.747,2.747,0,0,1,.225-.539v-.045c.045-.045.045-.135.09-.18.045,0,.135-.045.18-.045a.989.989,0,0,0-.045.359h.09c.225-.674.225-.674.449-.808h.18v.045h.045v.09c.045,0,.135-.045.18-.045,0-.045-.045-.135-.045-.18l.045-.045c.045-.045.18-.045.224-.045.09.045.135.135.225.18h.045l.045-.135h0v-.09c.045-.045.135-.045.18-.09a.623.623,0,0,0,0-.4l.09-.135v-.135c-.045-.09,0-.18,0-.27v-.045a.765.765,0,0,0,.045-.314l-.135-.135a1.311,1.311,0,0,1,.09-.4v-.18h0c0-.045.045-.135.045-.18l.045-.045.09-.18c.045-.09.135-.135.225-.225h.225a.774.774,0,0,0,.269-.269l.045-.045.135-.09a6.362,6.362,0,0,1-.18.9l.135.135c0,.045-.045.135-.045.18a.34.34,0,0,0-.18.09.348.348,0,0,1-.045.135.34.34,0,0,0-.09.18l-.045.09h-.045v-.045c-.045.045-.09.045-.135.09-.045.539-.045.539-.045.584l-.045.135v.045h.045a1.191,1.191,0,0,0,.225.269v.09l.045-.045a1.221,1.221,0,0,1,0,.4c.045,0,.135-.045.18-.045l.045-.045v-.045h0l.09-.09h0l.045-.045h.045l.045-.045a.981.981,0,0,0,.225-.18,4.7,4.7,0,0,1,.359.494v.18h.045l.045.045a.34.34,0,0,1,.18-.09l.18-.135.045-.045h.09a1.261,1.261,0,0,0,.225-.045c.9-.629.9-.629,1.213-.449-.045.045-.045.135-.09.18v.135l.135.045h.045a.431.431,0,0,0,.314-.4v-.09l.09-.045h.045c.135,0,.27-.18.359-.494h0v-.629c0-.09.045-.224.045-.314.225-.674.225-.674.4-.853.045.045.135.045.18.09v.045h.045l.09.18.045.045c.045.045.135.09.18.135.135-.135.135-.135.18-.539V186.6h0l.045-.18V186.2c-.045,0-.135.045-.18.045-.045-.09-.09-.269-.135-.359l.045-.045.045-.045a.139.139,0,0,1-.09-.045v-.09h0v-.135l.045-.045v-.045a1.442,1.442,0,0,1,.225-.135v-.045c.09-.045.09-.045.18,0v.045h.045c.045-.045.045-.045.269-.135a.838.838,0,0,0,.18.135h.09c.18.045.225,0,.269-.045v-.224a.269.269,0,0,0,.269-.135h0l.045-.045c.045,0,.09.045.135.045h.045l.045-.045h0l.045-.045-.09-.09c-.135-.09-.359-.09-.449-.225h-.045c0-.225,0-.225.045-.314h-.045a.139.139,0,0,0-.09.045c-.045.045-.09.135-.135.135s-.045,0-.09-.045l-.045-.045h-.09a.679.679,0,0,1-.4.18l-.045.045h0l-.045.045-.045.045h-.135c-.045.045-.09.09-.09.135l-.045-.045h-.135c-.09.045-.09.045-.225.18l-.045-.045c-.045-.18-.045-.18-.09-.225h0c-.045.045-.09.045-.09.09v-.225l-.045-.045-.045-.045v-.045h-.045c-.359-.225-.135-.808-.135-.853a9.45,9.45,0,0,0-.09-1.123v-.045c.045-.135.045-.135.18-.18.045-.09.045-.225.135-.314.135,0,.135-.045.269-.359v-.045c.269-.584.269-.584.359-.808,0-.045.045-.045.045-.09h.09c0-.045.045-.135.045-.18v-.09h0v-.09s0-.4-.18-.449v-.045h0V179.6h0v-.045a.139.139,0,0,0-.09.045h-.135c-.045,0-.09.045-.135.045-.045.09-.045.18-.135.27h0l-.045.045v.09l-.045.09.045.09v.045c-.09.135-.09.135-.09.539v.09c-.09.18-.09.359-.225.494h0l-.045.045a.044.044,0,0,1-.045.045h-.09a1.19,1.19,0,0,1-.27.225h0v.045l-.045.045-.045.045-.045.045v.045c-.045.18-.045.18-.09.225H157.2c0,.18-.045.225-.09.27h-.09a1.184,1.184,0,0,1-.045.314v.045a.733.733,0,0,1,0,.314l-.09.045-.045-.045-.045-.045h-.045a4.107,4.107,0,0,1-.045.764h0v.045c.045.135.045.135-.269.449a.34.34,0,0,0,.18-.09.233.233,0,0,0,.09-.18l.045-.045a.157.157,0,0,1,.09-.045l.045.045h.045c.225.584.18.674.135.764l-.045.045c-.135.18-.135.18-.18.18l-.045-.045h-.045a.1.1,0,0,1-.09-.09c-.045,0-.09.045-.135.045h0l-.045.045.045.045c.045,0,.09-.045.135-.045.045.045.045.09.09.135.225,0,.225,0,.269.09a.157.157,0,0,0-.045.09c-.045.09-.045.09-.18.225l-.045-.045v-.09c-.135.18-.18.225-.18.269h0c-.045.045-.045,0-.09,0h-.135v.045h.045l.045.045.045.045v.09h-.045c.045,0,.045,0,.045.045s-.045.09-.045.135.045.045.045.09h0a.347.347,0,0,1-.045.135c-.045.045-.045.045-.045.269v.09c-.045.135-.135.225-.18.359s0,.269-.045.4l-.09.18c-.135.314-.135.314-.269.269h-.09c-.09.045-.18.045-.225.135s0,.225-.045.314c-.045.135-.045.135-.09.135l-.045.045h-.359l.045-.135c-.045,0-.135,0-.18.359-.045.225-.135.225-.225.18v-.135c-.045-.045,0-.09-.045-.18v-.045c-.045,0-.135-.09-.135-.09v-.045c0-.045-.045-.09,0-.135.09,0,.09,0,.135-.045v-.045a.044.044,0,0,1,.045-.045l.225-.045c.045-.045.045-.045.18-.09.09-.045-.045-.135,0-.18s.045-.045.135-.045a.787.787,0,0,0,.045-.225c-.045-.045-.09-.135-.135-.18v-.09c0-.09.045-.135.045-.18s-.045-.09-.045-.18a.989.989,0,0,0,.045-.359c-.045.09-.045.09-.09.09-.045-.045,0-.09,0-.135-.09-.09-.045-.225-.045-.359l-.045-.045c0-.09.045-.225.045-.314h0v-.045h0v-.4a.966.966,0,0,1,0-.359c-.135.135-.09.314-.18.449a.1.1,0,0,1-.09.09.165.165,0,0,0-.135-.045.69.69,0,0,0-.18.269h0l-.09.09c0,.045,0,.045-.045.09-.045.09-.18.314-.18.314-.045,0-.045.045-.09-.045l-.045-.09c-.09.045-.09.045-.09.09l-.045.045-.09.045c-.045,0-.045,0-.045-.045v-.045c-.045,0-.045.045-.09.045,0,0-.045,0,0-.09a.452.452,0,0,0,.045-.135c-.09.045-.09.045-.09.09l-.045.045v-.09c0-.045-.045-.045-.045-.09-.045-.045,0-.135-.045-.18v-.135c0-.269.4-.269.314-.584-.045,0-.09.045-.135.045s-.09-.045-.135-.045c0-.045.045-.09.045-.135.269-.045.269-.045.314-.09l.045-.045.045-.09h-.045l-.045-.045a1.2,1.2,0,0,1,.449-.539V184h0c-.314.045-.225.539-.584.539l.045-.045.135-.135c-.045-.045-.09-.09-.135-.09v-.09c.045-.045.045-.135.135-.18h.09l.045-.045h-.09a.157.157,0,0,1-.045-.09c.045-.09.045-.225.09-.314.045,0,.135-.045.18,0h.09c.045,0,.09.045.135.09h.09v-.09l.18-.18-.045-.045-.09.09h-.09a.157.157,0,0,1-.045-.09l-.045.045h-.045a.786.786,0,0,1-.225.045.157.157,0,0,0-.09-.045v-.045c0-.045.045-.09.045-.135l.045-.045a.336.336,0,0,0,.045-.225l.045-.045h.18c-.09-.135-.09-.135-.09-.225a.157.157,0,0,1,.09-.045c.045,0,.09.045.135.09,0-.135,0-.135.09-.225h.045c.045-.045.09-.09.09-.135l.09-.09c.09.045.135.09.18.09.09-.09.09-.09-.045-.314,0-.045.045-.045.045-.09h.135c0-.045.045-.09.045-.135.225-.045.269-.269.4-.359l.045.045v.135c.045-.045.045-.09.09-.135v-.045c.045-.045.09-.045.135-.09.045.18.045.18.09.225.045-.045.09-.09.135-.09-.045-.045-.09-.09-.135-.09a.165.165,0,0,0-.045-.135.139.139,0,0,1,.045-.09c.225-.09.225-.359.4-.494h.09c.045-.09.135-.135.135-.269h-.09v-.045h.045c.135-.18.135-.18.18-.18.045-.045.045-.09.09-.135l.045-.09h.045a.616.616,0,0,1,.225-.449v-.09c-.045,0-.09.045-.135.045.09-.18.18-.18.225-.18a.157.157,0,0,1,.045-.09v-.135c.269-.18.269-.539.449-.763v-.045l.09-.09.045.045a.157.157,0,0,1,.09-.045l-.045-.045h0a1.6,1.6,0,0,1,.18-.4h.09v.09h.045a.4.4,0,0,0,.045-.225v-.045l.045-.045.045.045a.139.139,0,0,0,.09-.045v-.09c-.045-.045-.09-.045-.135-.09a1.577,1.577,0,0,0,.225-.359V176.9c.09-.09.09-.225.135-.314l.045.045a.165.165,0,0,1,.045-.135.488.488,0,0,1,.045.225v-.045a.967.967,0,0,1,0-.359h.09v.09c0-.135,0-.135.09-.225a.989.989,0,0,1-.045.359c.045-.135,0-.269.09-.359v0h.09a.157.157,0,0,1,.045.09v-.18c-.045-.18-.045-.18,0-.269a.157.157,0,0,0,.045.09h0c.045.045.09.045.135.09a.247.247,0,0,1,.09-.225h0c.09-.135-.045-.314.09-.4v.045c.045.18.045.18,0,.225a1.146,1.146,0,0,0,0,.4v-.045a2.192,2.192,0,0,0,.09-.629c.045.135,0,.269.09.4a3.063,3.063,0,0,1,.045-.539c.18.18.045.359.09.584h0c0-.045.045-.09,0-.135v-.225h.045c.045.135.135.225.18.225h0l.045.045v.045c.045.135,0,.135-.045.225h-.18a2.667,2.667,0,0,0,.18.359c.09-.09.09-.09.18-.09.045,0,.045-.045.045-.09l.135.135a.157.157,0,0,0-.045.09c-.045,0-.045,0-.09-.045,0,.135.135.18.225.314.629-.045.719.584,1.123.853,0,0,1.527,1.3.539,1.886-1.033-.584-1.033-.584-1.033-.629h-.135c-.045-.09-.09-.135-.135-.225h-.09c.18.539,1.347,1.033.764,1.482,0,0,.18.853.494.9a3.948,3.948,0,0,0,.449.449.838.838,0,0,1,.18-.135c-.09-.359-.18-.359-.269-.359-.359-.449-.359-.449-.314-.674h.09a1.932,1.932,0,0,1,.314.449.34.34,0,0,1,.09-.18c.4.225.4.225.539.225-.135-.314-.449-.539-.539-.853-.045-.269.18-.494.225-.719a.157.157,0,0,1,.09-.045.833.833,0,0,1,.359.314c.045,0,.135.045.18.045-.584-1.123-.584-1.123-1.258-2.29h.045c.359.135.763.359.808.719-.045.045-.09.045-.135.09v.18c0,.045.449.629.719.629.225-.269-.225-.494-.18-.764l.045-.045c-.09-.135.045-.719.045-.719h0a.165.165,0,0,1,.135.045c-.045-.045-.135-.18-.18-.225l.09.09a.337.337,0,0,1-.045-.225c.539.494.539.494.629.539-.225-.269-.225-.269-.18-.4.045,0,.18.045.225,0a.379.379,0,0,1-.09-.314c.18.135.314.449.584.449-.314-.4-.808-.674-1.033-1.168a10.263,10.263,0,0,1,2.335,1.078h0c-1.482-1.437-3.413-2.2-5.075-3.279,0,0,1.347.674,2.829,1.527a22.974,22.974,0,0,0-2.695-1.527c.943.314,1.8.808,2.74,1.123a.758.758,0,0,0-.225-.09c-.359-.18-.764-.269-1.123-.449.135.045.225.09.359.135a4.531,4.531,0,0,1-.808-.4,4.538,4.538,0,0,0,1.033.314h0l.09.045c.808.314,1.437.943,2.29,1.033a27.137,27.137,0,0,0-6.063-2.246h.09a.765.765,0,0,1,.314.045,13.777,13.777,0,0,1,1.392.18c-.314-.045-.674-.09-.988-.135l1.347.135h.225c-.449-.045-1.213-.135-1.8-.135h-.18c.314,0,.584.045.9.045h-.135c.719.045,1.482.09,2.2.18l1.213.135c.719.09,1.437.18,2.156.225-.719-.135-1.482-.18-2.2-.359a8.334,8.334,0,0,0,.943.09c-.09,0-.225-.045-.314-.045.808.045.808.045.9.045a12.462,12.462,0,0,0-1.347-.18h0c-.269-.045-.539-.045-.808-.09h0a4.64,4.64,0,0,0-.629-.045h.135a4.355,4.355,0,0,1-.763-.045c1.3,0,2.56.09,3.862.045-.09,0-.09,0-.494-.18h0c.27,0,.629,0,2.56.18a3.627,3.627,0,0,1-.629-.135h.269a.343.343,0,0,0-.225-.09h-.045a33.057,33.057,0,0,1,11.138,3.054l.629.314a2.744,2.744,0,0,0-.584-.269,4.53,4.53,0,0,0,.719.359.157.157,0,0,1-.09-.045h0l.09.045c.449.27.9.494,1.347.719a8.343,8.343,0,0,0,.853.494c-.045-.045-.135-.09-.18-.135.135.09.135.09,1.033.629h-.045c.045,0,.045.045.09.045a5.312,5.312,0,0,0,.539.359,3.949,3.949,0,0,0-.449-.269c.853.539,1.123.763,1.752,1.168h-.045c.674.494,1.123.853,1.347.988h0a.62.62,0,0,0,.18.135c.045.045.09.045.09.09.764.584,1.3,1.078,1.482,1.213l-.045-.045c-1.437-1.213-2.6-2.021-2.74-2.111-.045-.045-.135-.09-.18-.135h0a1.9,1.9,0,0,0-.314-.225h0a9.623,9.623,0,0,1-.853-.584l-.539-.359h-.045c-.045-.045-.135-.045-.18-.09l-.09-.09h-.045a.449.449,0,0,1-.225-.18h-.045c-.135-.09-.449-.269-.764-.449-.045-.045-.09-.045-.09-.09.045,0,.045.045.09.045-.09-.045-.225-.135-.314-.18-.135-.09-.314-.18-.449-.269-.18-.09-.314-.18-.494-.269a2.585,2.585,0,0,1-.4-.225c-.18-.09-.314-.18-.494-.269l-.045-.045c-.09-.045-.09-.045-.584-.269h-.045c-.135-.09-.314-.135-.449-.225l-.045-.045c-.18-.09-.359-.135-.539-.225l-.045-.045-.135-.045-.135-.045c-.045,0-.09,0-.09-.045a.157.157,0,0,1,.09.045,2.987,2.987,0,0,0,.314.135c.18.09.4.18.584.269h0c.045.045.135.045.225.09-.045,0-.09-.045-.135-.045l.09.045a1.126,1.126,0,0,1,.314.18c.135.09.269.135.4.225l.449.225c.09.045.135.09.225.135a.157.157,0,0,1-.09-.045l-.135-.045a5.285,5.285,0,0,1-.494-.225h-.045c-.135-.045-.27-.135-.4-.18l-.135-.045.045.045.045.045.045.045h.045c-.045,0-.135-.045-.18-.045h.045a1.112,1.112,0,0,1,.27.18h.045l1.078.539.045.045.045.045.943.539h0a.341.341,0,0,0,.18.09c.135.09.269.09.359.18h.045l.045.045h.09l.09.09.09.045c.135.09.359.27.359.27a1.96,1.96,0,0,1-.314-.18h0a.157.157,0,0,1-.09-.045h-.045a.165.165,0,0,1-.135-.045l.09.09-.045-.045h-.135s.539.4.719.584l-.045-.045h-.09a.341.341,0,0,1,.09.18l.045.045c.135.09.135.09.629.449,0,.045,0,.045.045.09h.045v-.09c.988.719.988.719,1.8,1.392a8.169,8.169,0,0,0,1.886,1.617h0l.045-.045-.045-.045c.225.09.4.314.629.4l-.045-.045c-.09-.09-.225-.18-.314-.269a1.19,1.19,0,0,0,.269.225l.045.045.045.045.045.045.09.09a.157.157,0,0,0,.09.045c-.045-.09-.045-.09-.269-.269.09.045.135.135.225.18-.539-.494-.539-.494-.539-.539.18.09.4.225.584.314l.045.045c.045.045.135.09.18.135l.045.09.09.09a4.122,4.122,0,0,1,.674.494,28.247,28.247,0,0,1,2.784,2.74l.045.045.045.045c.763.9.763.9,1.662,2.066l.045.045.045.045a3.951,3.951,0,0,1,.269.449l.045.045.045.045.045.045c.045.09.09.135.135.225l.045.09.045.09c.045.09.09.09.135.225a.983.983,0,0,0,.135.225c.09.18.09.18.09.225h-.09l-.135-.135H193.4a1.446,1.446,0,0,0,.135.225c.045.045.09.18.135.225a4.79,4.79,0,0,0,.494.853l.09.09c.045.045.045.09.09.135l.045.045a4.553,4.553,0,0,1,.4.853l.045.09a1.067,1.067,0,0,0,.359.584h.045c.045.045.09.09.135.09l.18.18.045.045a2.5,2.5,0,0,0,.269.359,3.428,3.428,0,0,1,.449.674c.045.045.4.719.4.719v.045l.045.045c0,.045,0,.09.045.09v.269l.045.09v.045h0a1.977,1.977,0,0,0,.09.449l.045.09c0,.045.045.09.045.135-.045-.045-.045-.045-.314-.584-.09-.135-.135-.314-.225-.449,0-.045-.045-.045-.045-.09v-.045c-.09-.135-.18-.225-.269-.359-.045-.045-.045-.045-.135-.225,0-.09,0-.09-.225-.449l-.045-.045h-.135c.045.045.045.135.09.225a.157.157,0,0,1-.045-.09l-.045-.045H195.6c-.09,0-.09,0-.269-.449-.135-.359-.18-.4-.629-.719,0,0,.18.808.225.988h0s-.045.045.045.18h0c-.045,0-.135-.18-.135-.18a.786.786,0,0,1-.045-.225.044.044,0,0,0-.045-.045c-.045,0-.045-.045-.09-.045l-.09-.09v-.045a1.765,1.765,0,0,0-.09-.269h0c.18.225.314.494.494.719-.18-.225-.314-.494-.494-.764a1.938,1.938,0,0,1-.18-.314l-.225-.225h0c.045.135.09.314.135.449.09.225.135.449.225.674l.045.18c.09.269.09.269.045.449h0l-.045-.045c.18.4.225.449.4.584l.045.045.045.045c.09.045.18.135.269.18a1.364,1.364,0,0,1,.225.314h0c0-.045.045-.045.045-.09a.651.651,0,0,1-.045-.494c.045,0,.135.045.18.045,0-.045-.045-.045-.045-.09V195h0l.135.09.135.269v.045h0v.045h-.045v.045c-.045-.09-.135-.225-.18-.314a3.989,3.989,0,0,1,.225.449l.045.135h0l-.045.09.045.09a.57.57,0,0,1,.045.269,3.8,3.8,0,0,1,.269.764l.045.09.135.18.135.09h.045c.225.314.4.674.674.988l.18.18h0c.045,0,.045.09.09.09a.157.157,0,0,0,.045.09l.045.09v.045c-.045-.09-.09-.225-.135-.314a.832.832,0,0,1,.09.314h0a.34.34,0,0,1-.18-.09l.045.045c.18.045.225.269.359.359.045,0,.045.045.09.09h0v.09a1.537,1.537,0,0,0,.045.494h.09c.045.045.045.09.09.135h0l.045.045a.139.139,0,0,0,.045.09v-.045c0,.045.045.09.045.135v.09c0-.045-.045-.045-.045-.09,0,.045.045.045.045.135,0,.269.18.494.225.764v.045l.135.539v.09a1.975,1.975,0,0,0,.09.449l-.045-.09-.045-.045h0l.045.135a2.647,2.647,0,0,1,.225.674v.045l.045.135v.045l.045.09s.4,1.707-.225,2.425c-.045-.045-.045-.09-.09-.135a1.057,1.057,0,0,1,.09.359c-.045-.045-.09-.09-.135-.09a.4.4,0,0,1,0,.494h0c-.225.4-.09.853-.18,1.258a3.209,3.209,0,0,0-.359-.629c-.943.314-.225,2.066.09,2.829h0c0,.045,0,.045.764,1.078a6.4,6.4,0,0,1,.4,1.617c.09.674.045.943-.135,1.213a.667.667,0,0,0-.09.4.384.384,0,0,0-.135.269,4.4,4.4,0,0,1-.314,1.213s-.045-.808-.09-1.033h-.045c-.045-.045-.045-.045-.314-.045a1.876,1.876,0,0,1-.045-.314c-.045.045-.045.09-.09.135-.18-.764-.359-.764-.674-.764a1.425,1.425,0,0,1-.135-.4h-.045c-.045.045-.09.045-.18.09.135.808-.135,1.617.045,2.425.045.225.269.314.314.494.09.225.09.494.18.719,0,.045.045.09.045.135.09.135.09.09.269.045.045,0,.045,0,.135.18h.045a6.265,6.265,0,0,1,.584,2.695c-.045,0-.449.18-.719-.629-.225-.719-.4-1.437-.674-2.111-.09-.225-.314-.4-.4-.629a.336.336,0,0,1-.045-.225c-.135-.584.135-1.168,0-1.8h-.09c-.629-2.74-.629-2.74-1.123-3.234.135.674.045.943-.4,1.213l-.225-.225a1.03,1.03,0,0,0-.045-.629v-.045c0-.045,0-.045-.045-.09h.045c-.045-.045-.045-.045-.045-.09h0c-.225-.853-.225-.853-1.976-2.695a1.862,1.862,0,0,1,.09.674c-.045,0-.135.045-.18.045,0,.045-.045.135-.045.18a1.392,1.392,0,0,0-.494.225.832.832,0,0,1-.09-.314c-.27,1.123-.27,1.123-.18,1.347a22.09,22.09,0,0,0-1.033,2.066C190.073,212.114,189.983,212.249,189.894,212.339Zm10.644,10.105c0,.045-.045.09-.045.135h0v-.045l-.045.045c-.045.09-.09.045-.09.045,0-.09,0-.135.135-.4v0h.045v.045l.045-.09c.045-.045.045-.045.045-.09v0a1.872,1.872,0,0,1,.09-.269h0v.135h0a2.117,2.117,0,0,1-.135.4l-.045.09C200.583,222.4,200.583,222.444,200.538,222.444Zm.539-1.123c-.045.225-.27,1.123-.27,1.123a2.188,2.188,0,0,1-.18.494c0-.045.09-.494.09-.494a9.312,9.312,0,0,1,.359-1.168Zm.135-4.716c-.045,0-.045-.045-.045-.09-.045.09-.045.225-.09.314v-.045c-.045,0-.045.045-.045.09v-.045a1.26,1.26,0,0,0-.045.225l-.045-.045v.045c-.045.494-.045.808-.045.853h.045a.34.34,0,0,0,.045.18,3.056,3.056,0,0,0,.135-.539l.09-.09v-.09c0-.135.045-.135.045-.18h.045l-.135.719c-.045.09-.045.18-.09.225h0c-.09.269.09.494.045.764,0,.09-.045.18,0,.225a3.981,3.981,0,0,1-.135.853,2.309,2.309,0,0,1,0-.9.671.671,0,0,0,0-.359,3.751,3.751,0,0,0-.135,1.123c0,.764-.09.808-.18.9a8.918,8.918,0,0,0,.135-1.168h-.045v.045a4.883,4.883,0,0,1,.045-.808.989.989,0,0,0,.045-.359c0-.359.09-.719.09-1.078v-.045c.045-.18,0-.359.045-.494h.045c.045-.135-.09-.314.09-.4a.157.157,0,0,1,.045.09.347.347,0,0,1,.09-.135h.045c.135-.225.09-.539.18-.764v.18A3.956,3.956,0,0,1,201.211,216.605Z" transform="translate(-115.7 -171.2)" fill="#fff"/></g></g><text transform="translate(217.661 246.965)" fill="#fff" font-size="33" font-family="Anson-Regular, Anson"><tspan x="0" y="0">staviame s dušou</tspan></text></g></svg>