<svg xmlns="http://www.w3.org/2000/svg" width="39.591" height="39.591" viewBox="0 0 39.591 39.591">
  <g id="linkedin" opacity="0.92">
    <path id="Path_24" data-name="Path 24" d="M33.792,0H5.8A5.806,5.806,0,0,0,0,5.8V33.792a5.806,5.806,0,0,0,5.8,5.8H33.792a5.806,5.806,0,0,0,5.8-5.8V5.8A5.806,5.806,0,0,0,33.792,0Zm3.48,33.792a3.484,3.484,0,0,1-3.48,3.48H5.8a3.484,3.484,0,0,1-3.48-3.48V5.8A3.484,3.484,0,0,1,5.8,2.32H33.792a3.484,3.484,0,0,1,3.48,3.48Zm0,0" fill="#4e4e4e"/>
    <path id="Path_25" data-name="Path 25" d="M91,226.393h6.959V210H91Zm2.32-14.073h2.32v11.754H93.32Zm0,0" transform="translate(-83.963 -193.761)" fill="#4e4e4e"/>
    <path id="Path_26" data-name="Path 26" d="M220.286,210h-.007a6.946,6.946,0,0,0-2.32.394V210H211v16.393h6.959v-8.274a1.16,1.16,0,1,1,2.32,0v8.274h6.959v-9.071c0-3.754-3.045-7.318-6.953-7.322Zm4.633,14.073H222.6v-5.954a3.48,3.48,0,0,0-6.959,0v5.954h-2.32V212.319h2.32v2.321l1.856-1.394a4.6,4.6,0,0,1,2.783-.927h0a4.959,4.959,0,0,1,4.635,5Zm0,0" transform="translate(-194.684 -193.761)" fill="#4e4e4e"/>
    <path id="Path_27" data-name="Path 27" d="M91,96.959h6.959V90H91Zm2.32-4.64h2.32v2.32H93.32Zm0,0" transform="translate(-83.963 -83.041)" fill="#4e4e4e"/>
  </g>
</svg>
