<?xml version="1.0" encoding="utf-8"?>
<!-- Generator: Adobe Illustrator 19.0.0, SVG Export Plug-In . SVG Version: 6.00 Build 0)  -->
<svg version="1.1" id="Layer_1" xmlns="http://www.w3.org/2000/svg" xmlns:xlink="http://www.w3.org/1999/xlink" x="0px" y="0px"
	 viewBox="0 0 764 230.9" style="enable-background:new 0 0 764 230.9;" xml:space="preserve">
<style type="text/css">
	.st0{fill:none;}
	.st1{fill:#3563AE;}
	.st2{font-family:'Anson-Regular';}
	.st3{font-size:127px;}
	.st4{font-size:48px;}
</style>
<rect id="XMLID_100_" x="239" y="50.5" class="st0" width="519.6" height="90.5"/>
<text id="XMLID_1_" transform="matrix(1 0 0 1 239.029 139.814)" class="st1 st2 st3">SR WORLD</text>
<rect id="XMLID_96_" x="247" y="163.1" class="st0" width="473.4" height="67.7"/>
<text id="XMLID_5_" transform="matrix(1 0 0 1 247.0001 196.8721)" class="st1 st2 st4">staviame s dušou</text>
<g id="XMLID_8_">
	<g id="XMLID_9_">
		<g id="XMLID_10_">
			<g id="XMLID_203_">
				<path id="XMLID_226_" class="st1" d="M109.2,15.5c-0.1,0-0.2,0-0.3,0C109,15.6,109.1,15.6,109.2,15.5
					C109.2,15.5,109.2,15.5,109.2,15.5z"/>
				<path id="XMLID_225_" class="st1" d="M79.6,24C79.6,24,79.6,24,79.6,24c-0.1,0-0.1,0-0.4,0.1c-0.2,0.1-0.3,0.2-0.5,0.3
					c-0.4,0.2-0.8,0.3-1.2,0.5c0,0,0-0.1,0-0.1c-0.5,0.3-0.5,0.3-0.6,0.4c0.3-0.1,0.4-0.1,0.4-0.2c0,0,0,0,0,0
					c-0.2,0.2-0.5,0.3-0.7,0.4c0.1,0,0.3-0.1,0.3-0.1C77.2,25.4,79.2,24.4,79.6,24z"/>
				<path id="XMLID_224_" class="st1" d="M117.5,15.4c0.1,0,0.2,0,0.3,0C117.7,15.4,117.6,15.4,117.5,15.4
					C117.5,15.4,117.5,15.4,117.5,15.4z"/>
				<path id="XMLID_223_" class="st1" d="M119.5,15.6c-0.5-0.1-0.9-0.1-1.5-0.2c0,0,0.1,0,0.1,0c0.1,0,0.3,0,0.4,0
					c-0.1,0-0.1,0-0.2,0c1,0.1,2.1,0.4,3.2,0.6c0,0,0,0,0-0.1c-1-0.2-1.8-0.3-2.3-0.4C119.3,15.6,119.4,15.6,119.5,15.6z"/>
				<path id="XMLID_222_" class="st1" d="M133.2,23.4c0.1-0.1,0.1-0.2,0.2-0.2c1.4,0.7,2.7,1.7,4.1,2.5c0.1-0.1,0.1-0.1,0.2-0.2
					c-1.9-0.7-3.2-2.5-5.3-2.7c0,0.1-0.1,0.2-0.2,0.2c-1-0.4-2-0.8-3-1.3c3.3,1.9,6.4,3.9,7.4,5.2c-0.1,0-0.2,0-0.3,0
					c0,0,1.2,0.4,1.2,1.2c-0.2-0.1-0.4-0.2-0.6-0.3c0,0-0.1,0.1-0.1,0.1c0.8,0.5,0.8,0.5,1.1,0.5c0,0,0,0,0,0c0,0,0,0,0,0
					c0,0,0,0,0,0c0,0,0,0,0,0c0,0,0,0,0,0c0,0,0,0,0,0c0,0,0,0,0,0c0,0,0,0,0.1,0c0.1,0,0.2-0.1,0.3-0.1
					C138.2,28.2,133.6,24,133.2,23.4z"/>
				<path id="XMLID_221_" class="st1" d="M221.9,124.9l0,0.2c0,0.2,0,0.4,0,0.6c0.1-0.8,0.1-1.6,0.2-2.5c0,0.2,0,0.4,0,0.5
					L221.9,124.9C221.9,124.9,221.9,124.9,221.9,124.9C221.9,124.9,221.9,124.9,221.9,124.9z"/>
				<path id="XMLID_220_" class="st1" d="M222.1,122.3l0-0.6c0-0.2,0-0.5,0-0.7c0,0.1,0,0.1,0,0.2
					C222.1,121.5,222.1,121.9,222.1,122.3z"/>
				<path id="XMLID_219_" class="st1" d="M222.1,123c0-0.2,0-0.4,0-0.7l-0.1,1C222.1,123.2,222.1,123.1,222.1,123z"/>
				<path id="XMLID_204_" class="st1" d="M116.1,11c-3.8,0-7.5,0.2-11.2,0.6c0,0.1-0.1,0.1-0.1,0.2c0.1,0,0.2,0,0.3,0
					c-0.1,0-0.3,0.1-0.4,0.1c0.4,0.1,0.9,0.1,1.3,0.2h0h0l0,0h0l0,0h0c0,0,0,0,0.1,0c0.4,0,0.4,0,0.6,0.1c0,0,0,0,0,0l0,0l0,0
					c0,0,0,0,0,0l0,0l0,0l0,0l0,0c0,0,0,0,0,0c0,0,0,0,0,0s0,0,0,0c0,0,0,0,0,0c0,0,0,0,0,0c0,0,0,0,0,0c0,0,0,0,0,0c0,0,0,0-0.1,0
					c0.1,0,0.1,0.1,0.2,0.1c-0.1,0-0.3,0-0.4,0c1.2,0.2,1.2,0.2,1.3,0.2c-0.1,0-0.3,0-0.4-0.1l0,0l0,0l0,0h0l0,0h0l0,0
					c0,0,0,0,0.1,0.1c0.1,0,0.3,0.1,0.4,0.1c0.2,0,0.4,0.1,0.5,0.1c-0.1,0-0.3,0-0.4,0l-0.1,0c-0.1,0-0.3,0-0.4-0.1l-0.1,0l0,0
					c-0.5-0.1-0.7-0.1-0.9-0.1c0.8,0.1,0.8,0.1,1.1,0.2c0,0,0,0,0,0c-3.1-0.3-5.2,0.2-5.2,0.2c-0.1,0.1-3.5,0.3-3.5,0.3
					c-0.7,0-0.7,0-3.1,0.5c0.1,0,0.3,0,0.4,0l0.1,0c0.3,0,0.5-0.1,0.8-0.1l0.2,0c0.9,0.1,1.9,0,2.8,0.2c-0.3,0-1.8,0-1.9,0
					c-0.1,0-0.8,0-1.2,0c0.3,0,0.6,0,0.8,0c-0.3,0-0.6,0.1-0.9,0.1c0.9,0,1.7,0,2.6,0l0,0c0.6,0,1.1-0.1,1.7,0c-0.1,0-0.1,0-0.2,0
					l-0.2,0c-2.7,0.1-3.8,0.2-4.2,0.3c2.5-0.1,2.5-0.1,2.5-0.1c-0.2,0-0.2,0-0.6,0.1c0,0-0.1,0-0.1,0c0,0-0.1,0-0.1,0
					c0,0-0.1,0-0.1,0c0,0-0.1,0-0.1,0c0,0-0.1,0-0.1,0c0,0-0.1,0-0.1,0c0,0-0.1,0-0.1,0c0,0-0.1,0-0.2,0c-1.5,0.1-1.5,0.1-1.7,0.2
					c-0.1,0-0.2,0-0.2,0c0,0,0,0,0,0c0.2,0,0.4,0,0.5-0.1c0.7,0,0.7,0,1.1,0c-0.8,0.2-1.7,0.3-2.5,0.5l-0.1,0c0,0-4.6,0.9-5.4,1.1
					c-0.2,0.1-0.4,0.2-0.6,0.3l0,0c0,0,0,0,0,0l0,0c0,0,0,0,0,0c0,0,0,0,0,0l0,0l0,0c0,0,0,0,0,0c0,0,0,0,0,0c0,0,0,0,0,0
					c0,0,0,0,0,0c0,0,0,0,0,0c0,0,0,0,0,0c0,0,0,0,0,0c0,0,0,0,0,0c0,0,0,0,0,0l0,0c0.1,0,0.2,0.1,0.2,0.1c0,0-1.8,0.5-2.6,0.7
					l-0.4,0.1c-0.7,0.1-0.7,0.1-1.1,0.3c2.1-0.5,4.3-0.7,6.4-1.2c-0.1,0-0.3,0-0.4,0c-0.1,0-0.3,0-0.4,0c0.1,0,1.1-0.2,2-0.1
					c-0.9,0.2-1.7,0.3-2.6,0.5c-0.8,0.2-0.8,0.2-1.2,0.4c0,0,0.1,0,0.2,0c-0.6,0.2-1.1,0.6-1.7,0.8c0.1,0,0.2,0,0.3,0
					c0.3-0.1,0.4-0.1,1-0.3c-0.3,0.1-0.6,0.3-1,0.3c0,0-0.1,0-0.1,0l-0.1,0l-0.1,0c0,0,0,0,0,0c1.1-0.2,2.2-0.7,3.4-0.8
					c-1.3,0.4-1.3,0.4-1.5,0.5c-1.1,0.3-2.3,0.5-3.4,0.9c0.1,0,0.2-0.1,0.4-0.1l0.1,0c0.1,0,0.1,0,0.5-0.1c0.1,0,0.3-0.1,0.4-0.1
					l0.1,0c0.1,0,0.1,0,0.3-0.1c0.8-0.2,1.6-0.2,2.3-0.4l0.1,0c0.4-0.1,0.7-0.1,1.1-0.2c0.2,0,0.4-0.1,0.6-0.2c-0.1,0-0.3,0-0.4,0
					c0.2,0,0.5-0.1,0.7-0.1l0.1,0c0.9-0.2,0.9-0.2,1.3-0.2l-0.1,0l0,0c1.7-0.3,3.3-0.8,5.1-1c0.5-0.1,1-0.1,1.6-0.2
					c0.1,0,0.1,0,0.5-0.1c3.2-0.3,4.2-0.3,5-0.4c-0.3,0-0.6,0.1-0.9,0.1l-0.1,0c-1.1,0.1-2.1,0.2-3.2,0.4c0,0-0.1,0-0.1,0
					c0,0-0.1,0-0.1,0c0,0-0.1,0-0.1,0l-0.1,0l-0.1,0c0,0-0.1,0-0.1,0c0,0-0.1,0-0.1,0c0,0-0.1,0-0.1,0c0,0-1.8,0.3-3.1,0.5l-0.2,0
					l-0.2,0c0,0,0,0,0,0v0v0v0v0v0v0c0,0,0,0,0,0c0,0-1,0.1-1.8,0.2c-1.1,0.3-1.1,0.3-1.7,0.4l0,0c0,0,0,0,0,0l0,0l0,0c0,0,0,0,0,0
					l0,0l0,0c0,0,0,0-0.3,0.1c-0.4,0.1-2.4,0.6-3.2,0.8c3.1-0.6,3.1-0.6,3.2-0.6c-1.3,0.3-2.6,0.8-4,1c0,0,0,0,0,0
					c-0.1,0-0.3,0.1-0.4,0.1c0,0,0,0,0,0c0,0,0,0,0,0c0,0,0,0,0,0c0,0,0,0,0,0c0,0,0,0,0,0c0,0,0,0,0,0c0,0,0,0,0,0c0,0,0,0,0,0
					c-2.4,0.7-2.4,0.7-2.9,0.9v0l0,0v0c0,0,0,0-0.1,0.1l0.2,0l0.1,0c1.1-0.3,2.2-0.6,3.3-0.8c0,0,0,0,0,0c0,0,0,0,0,0c0,0,0,0,0,0
					s0,0,0,0c0,0,0,0,0,0c0,0,0,0,0,0c0,0,0,0,0,0c0,0,0,0,0,0c1.1-0.3,1.1-0.3,1.7-0.3c0.8-0.2,0.8-0.2,1.2-0.3
					c0.6-0.1,1.2-0.3,1.8-0.4c0,0,0,0,0.1,0l0.1,0c0,0,0,0,0.1,0c0,0,0,0,0.1,0l0.1,0c0,0,0,0,0.1,0c0,0,0,0,0.1,0c0,0,0,0,0.3-0.1
					c0.3,0,0.6-0.1,0.9,0c-0.4,0.1-0.7,0.2-1.1,0.3c-0.1,0-10.3,3.1-11.8,3.2c0.1-0.1,0.3-0.1,0.4-0.2c-0.9,0.4-0.9,0.4-1.4,0.5
					c0.1-0.1,0.2-0.1,0.3-0.2c-0.1,0-0.3,0.1-0.4,0.1c0.3-0.2,0.6-0.4,0.9-0.6c-3,1.1-3,1.1-3.5,1c1.1-0.5,1.1-0.5,1.4-0.7
					c-2.6,0.9-5,2.2-7.7,2.8c1.2-0.7,1.4-0.9,1.6-1.1c-17.2,8.8-17.2,8.8-18,9.4c-2.3,1.7-3.3,4.5-5.4,6.3c-5.3,4.5-5.8,5-6.2,6
					c0,0,0.1,0,0.1,0c0.2-0.1,0.3-0.2,0.5-0.3c-0.1,0.1-0.2,0.2-0.3,0.3c0,0,0,0,0,0c0.1-0.1,0.1-0.1,0.2-0.2c0,0.1-0.1,0.1-0.2,0.2
					c0,0,0,0,0,0c1.7-1.6,3.6-3,5.3-4.7c0.1-0.1,0.3-0.3,0.4-0.5c0,0,0,0,0,0c0,0,0.1-0.1,0.4-0.2l0,0c4.2-1.5,6.8-5.5,10.9-7.2
					c0,0.1-0.1,0.2-0.1,0.2c1-0.5,1-0.5,1.1-0.8c-0.1,0-0.2,0-0.2,0c2.5-1.3,4.6-3.3,7.4-4.1c-0.2,0.4-0.6,0.6-0.7,1
					c0.4,0,0.4,0,0.5,0.1C66.5,31,66.5,31,66.4,31c0.1-0.1,0.3-0.1,0.4-0.1c-0.1,0.1-0.1,0.2-0.2,0.3c-4.5,3-5.2,3.4-5.7,3.5
					c0,0.1,0,0.1,0.1,0.2c0.5,0,0.5,0,0.6,0c0,0-0.4,0.6-1.1,1.2c0.6-0.2,1-0.5,1.6-0.7c0,0.1,0,0.1,0.1,0.2
					c1.7-1.2,2.9-2.1,3.8-2.1c-1.6,1.2-2.8,2.8-4.5,3.8c0,0,0.1,0.1,0.1,0.1c-2.8,2.4-2.8,2.4-3.1,2.3c-0.1,0.1-0.1,0.2-0.2,0.3
					c0,0.1,0,0.2,0.1,0.2c0,0-1.5,2.1-1.7,2.5c0,0,0.1,0.3-0.4,1.1c0,0.1,0.2,0.2,0.3,0.2c-0.1,0.6-0.1,0.7-0.8,0.9
					c-1-0.7-1.7,0.5-2.6,0.5c-0.1,0.5-0.1,0.5-0.2,0.7c0.9-0.2,1.5-1.1,2.5-0.8c0,0.1,0,0.1,0.1,0.2c-0.2,0.4-0.2,0.4-1.1,1.2
					c0.1-0.1,0.3-0.2,0.5-0.3c0,0,0.1,0.1,0.1,0.1l-2.3,2.9c-0.8,0.3-1.7,0.3-2.5,0.7c-0.9,0.4-1.4,1.3-2.4,1.4c0,0-1.5-0.3-1.5-1.6
					c-0.8,0.2-1.5,0.8-2.3,1c0,0-0.1-0.1-0.1-0.2c-0.6,0.1-1.2,0.6-3.3,2.1c3.6-1.2,3.6-1.2,3.6-1.2c0.2,1.1-1.1,1.9-1.6,1.8
					c0-0.1,0-0.1,0-0.2c0,0-0.1-0.1-0.2-0.1c0,0-0.1,0.1-0.1,0.1c0.1,0.5-0.3,0.9-0.3,1.4c-1.5,1.6-1.8,3.5-1.8,3.5
					c0.1,0,0.3,0,0.4,0c0,0,0.1,0.1,0.1,0.1c-0.1,0.4-0.1,0.4,0,0.9c-0.9,0.8-2.3,0.6-3.3,1.4c-0.1-0.1-0.3-0.2-0.3-0.5
					c0.6-0.8,1.7-1.1,2.5-1.7c0-0.1,0-0.2,0-0.3c-0.1,0-0.3-0.1-0.4-0.1c0.3-0.2,0.3-0.2,0.3-0.5c-0.9,0.4-1.7,1-2.6,1.3
					c-0.4,0.1-0.4,0.1-0.6,0.1c-0.1,0.1-0.2,0.2-0.3,0.3c0,0,0,0,0,0c0,0,0,0,0,0c0,0,0,0,0,0c-0.2,0.1-0.2,0.1-0.3,0.1
					c-0.3-0.1-1.7,1.3-1.7,1.4c-0.6,0.6-0.6,0.9-0.6,1c0,0-0.3,1.1-0.7,1.1c-0.3-0.7-1.5-0.2-1.5-0.2c-1.1,0.7-1.5,1.9-2.4,2.7
					c0.2-0.4,0.4-0.7,0.5-1.1c-0.3,0.4-0.3,0.4-0.7,1.2c-0.5,0.9-1.4,1.9-1.5,1.9c1.9-3,1.9-3,1.9-3.1c-0.7,0.9-1.2,1.9-1.9,2.7
					c0,0-0.4,0.7-1.6,3.1c-0.5,1-1.8,1-2.3,2c-0.1,0.2-0.1,0.2-0.2,0.3c0,0-0.1,0-0.1,0c-0.6,0.8-0.6,0.8-0.8,0.9c0-0.1,0-0.1,0-0.2
					c-1,2.2-2.3,4.2-3.1,6.5c-1,2.8-1,2.8-1.7,4.4c-0.1,0-0.1,0-0.2,0c0-0.3,1.2-4.3,1.9-5.8c1-2,1.2-4.7,1.2-5
					c-0.1,0-0.1,0.1-0.2,0.2c0-0.1,0-0.1,0-0.2c-0.2,0.6-0.4,1.2-0.7,1.7c0.2-0.6,0.4-1.2,0.6-1.8c0,0-0.1,0-0.1,0c0,0-0.1,0-0.1,0
					l0,0c0,0.1-0.1,0.1-0.1,0.2l0,0l0.1-0.1c0,0,0,0,0,0c0,0,0,0,0,0c-6.2,13.5-9.6,28.4-9.6,44.2c0,1.8,0.1,3.6,0.2,5.4
					c0.1-0.1,0.2-0.1,0.3-0.1c0-0.8,0-1.7,0.1-1.8c0,0,0,0,0,0.1c0,0,0,0,0-0.1l0,0l0,0c0.1-0.7,0.1-1.4,0.2-2.1
					c0,0.1,0.1,0.1,0.2,0.2c0.1-2,0.6-8.5,0.3-9.9l0,0c-0.3,0.7-0.3,1.5-0.4,2.2c-0.3-2.1,0.1-4.2,0.1-6.3c0,0.1,0,0.2-0.1,0.3
					c0.1-1.7,0.9-7.1,0.9-7.1l0-0.1c0.2-1,0.2-1,0.3-1.7l0,0c0.5-2,1.1-4.7,1.6-6.8c0,0.1,0,0.1-0.1,0.2c0-0.2,0.1-0.3,0.1-0.5
					c0,0.1-0.1,0.2-0.1,0.3c0.5-1.9,0.9-3,1.1-3.2c0.1,1.3-1.5,5.3-1.5,5.4c0.2-0.7,0.2-0.7,0.2-0.9c-0.1,0.3-1,3.7-1.1,4.3
					c-0.2,1.3,0,2.7-0.3,4.1c-1.6,7.4-1.1,8.8-1.1,8.8c0-0.1,0.1-0.2,0.2-0.3c0,0.1,0,0.3,0.1,0.4c0-0.1,0.1-0.2,0.1-0.2
					c0,0,0,0.1,0.1,0.1c0,0.3-0.1,0.6-0.1,0.8c0-0.3,0.1-0.5,0.1-0.7c0.2,1,0,2,0.1,3c0.2-1.1,0.6-2.9,1-3.4c0,0.1,0.1,0.3,0.1,0.5
					c0.1-0.2,0.2-0.4,0.3-0.5c0.2,0,0.2,0,1-0.7c0.9,1.8-2.2,3.3-0.6,5.1c0.2-1-0.1-2.1,0.4-3c0.1,0,0.3,0,0.4-0.1
					c0.1-0.8,0.1-0.8,0.2-0.9c1.3,4.3,1.5,4.9,2.2,4.7c0-0.1,0-0.3,0.1-0.4c0.7,0.6,0.7,0.7,0.8,1c-0.1,0-0.2,0-0.3,0.1
					c0.1,1.3,0.9,2.3,0.8,3.6c1.1,1.1,1.4,3,1.6,4.5c0.2,1.3,1.6,1.4,2.3,2.2c0.7,0.9,0.7,0.9,2,3.5c0.2,0.4,0.3,0.5,0.4,1.2
					c0,0.3,0.1,0.7,0.1,1.5c0.3,3.1,0.3,3.1,0.2,3.4c-0.7,1.5-0.7,1.5-0.1,3.5c0,0.1,0.1,0.2,0.1,0.2c0.8,0.1,1,0.3,1.2,0.8
					c0.5-0.5,0.5-1.3,1-1.8c0,0,1.5,0.6,1.9,2c0.1,0,0.1-0.1,0.2-0.1c0.2,0.1,0.3,0.1,0.9,2.3c0.8-0.1,1.8-0.2,4.7,2.4l4,4.4
					c0.3,0.4,0.4,0.6,0.4,1.2c0.1,1.1,0.1,1.1,0.2,2.1c0,0-0.1,0-0.1,0v0c0,0,0.1,0,0.1,0c0,0.1,0,0.3,0,0.4c0.2,2.4-1.5,4-2.3,6.1
					c-1.2,3.3,0.9,6.5,0.5,9.8c-0.1,0.7-0.2,1.3-0.3,2c0,0.2-0.2,0.4-0.4,0.5c-0.2,0-0.4-0.1-0.6-0.1c-0.1,0.1-0.2,0.1-0.3,0.2
					c-0.3-0.1-0.6-0.3-0.8-0.4c-4.2,2,1.3,6.7-0.4,10c-0.2-0.7-0.2-1.4-0.4-2c-0.1,0-0.2-0.1-0.3-0.2c0.2,1.7,1.4,3.1,1.3,4.9
					c-0.8-0.1-1.2-0.5-3.1-2.5c0,0,2,2.8,2.8,3.7c0,0,1.5,1.8,1.4,2.8c-0.7-0.2-0.7-0.2-1.6-1.1c1.9,2.4,1.9,2.4,2.1,3
					c-0.3-0.3-0.6-0.6-1-0.9c0,0,2.3,2.7,4,4.7l1.4,1.5l-0.1-0.1c-0.4-0.4-0.8-0.9-1.3-1.4l-1.3-1.3c0.2,0.3,0.4,0.5,0.6,0.8
					c19.3,20.4,46.7,33.1,77,33.1c35.3,0,66.5-17.2,85.8-43.8c0-0.1,0.1-0.1,0.1-0.2c0-0.1,0.1-0.1,0.1-0.2c0-0.1,0.1-0.1,0.1-0.2
					c0.6-0.8,1.2-1.7,1.8-2.6c0,0,0,0,0,0c0.1-0.1,0.2-0.2,0.2-0.4c0.5-0.8,1-1.6,1.6-2.4c-0.2,0.2-0.4,0.5-0.6,0.8
					c7.2-11.5,11.5-24.4,13.2-29.9c-0.1,0.3-0.2,0.6-0.3,0.9c0,0,0.1,0,0.1,0c0.3-1.1,0.6-2.1,0.8-3.2c-0.2,0.8-0.4,1.4-0.5,1.7
					c0.1-0.4,0.1-0.6,0.2-0.7c0.2-0.6,0.3-1,0.4-1.3c0,0.1,0,0.2-0.1,0.3c0-0.1,0-0.2,0.1-0.3c0-0.1,0-0.1,0-0.1l0,0
					c0.1-0.4,0.2-0.9,0.3-1.4c-0.1,0.5-0.2,0.9-0.3,1.4l-0.1,0c0.2-0.8,0.4-1.6,0.6-2.3c1-4.5,1.7-9.2,2-13.9l0.1-0.9c0,0,0,0,0,0.1
					c0-0.4,0-0.9,0.1-1.3c0-0.2,0-0.4,0-0.6c0,0,0,0.1,0,0.1c0-0.3,0-0.7,0.1-1c0-0.4,0.1-0.9,0.1-1.3c0,0,0,0,0,0
					c0,0.2,0,0.3,0,0.5c0,0,0-0.1,0-0.1c0.1-1.3,0.1-2.6,0.1-3.9C222.2,58.6,174.7,11,116.1,11z M37.5,60.5
					c-0.1,0.1-0.4,0.3-0.6,0.4c-0.1,0-0.2-0.2,0.2-0.7C37.2,60.3,37.3,60.4,37.5,60.5C37.5,60.5,37.5,60.5,37.5,60.5z M215.7,126.4
					L215.7,126.4c0.1,0.2,0.1,0.2,0.2,0.3c0.1-0.1,0.2-0.2,0.3-0.2c0,0,0.1,0,0.1,0c0.1-0.1,0.2-0.3,0.2-1.1c0,0,0,0,0,0l0,0l0,0
					l0,0l0,0l0,0l0,0l0,0c0.6-1.2,1.1-3.2,1.5-5.7c0,0.2,0,0.2,0,0.4c0.2-0.4,0.1-0.8,0.1-1.1c0.2-0.6,0.2-0.6,0.3-2.8
					c0,0.2,0,0.4,0,0.6c0.1-0.2,0.1-0.5,0.1-0.8c0.1,0.1,0.3,1.1,0.3,1.3c0,0,0.1-0.1,0.1-0.1c0.1,0.1,0.1,0.1,0.1,0.3
					c0.4-0.1,0.4,0.5,0.4,0.5l0,0.2c0,0.3-0.3,0.4-0.3,0.7c0,0.3,0.2,0.5,0.2,0.7c-0.2,0.1-0.1,0.4-0.3,0.5c0,0-0.1-0.1-0.1-0.2
					c-0.1,1.8-0.1,1.8,0,2c0.8,2.6,0.5,2.8,0.3,2.9c0,0-0.1-0.1-0.1-0.1c-0.2,2.3-0.3,3.8-0.9,7.1c-0.1,0.8-0.6,1.8-0.6,1.8
					c-0.1-0.3,0-0.6-0.1-0.8c0,0-0.1,0-0.1,0c-0.1,0.1-0.1,0.1-0.2,0.2c0-0.3,0-0.3-0.2-0.4c-0.3,0.3-0.3,0.8-0.7,1
					c0-0.2,0-0.2-0.1-0.8c-0.1,0.3-0.5,0.4-0.6,0.7c0-0.1,0-0.1-0.1-0.4c-0.1-0.8,0-1.6-0.1-2.4c0-0.3-0.3-0.5-0.3-0.8l-0.1-1.4
					C215.3,127.6,215.7,126.5,215.7,126.4z M218.3,139c-0.1,0.2-0.1,0.4-0.2,0.5c0,0,0,0,0,0c-0.1,0.1-0.1,0.1-0.2,0.3
					c-0.1,0.2-0.1,0.2-0.1,0.2c-0.1-0.1,0.2-1.3,0.4-1.3c0.1,0,0.1,0.1,0.1,0.1c0-0.1,0-0.1,0-0.2c0-0.2,0-0.4,0-0.5c0,0,0,0,0,0
					c0.1,0,0,0.2,0.1,0.2c0.1,0,0.1-0.1,0.1-0.1c0,0,0,0,0,0.3c0-0.2,0.1-0.4,0.1-0.4c0,0,0,0,0,0.1c0,0.4,0,0.4,0,0.5
					C218.5,138.9,218.4,139,218.3,139C218.3,139,218.3,139,218.3,139C218.3,138.9,218.3,139,218.3,139z M214.5,139.4
					c0,0.1,0,0.2,0.1,0.2c0.1,0,0.1,0,0.9-0.4c0.1-0.4,0.1-0.6,0.3-0.9c0,0.1,0,0.2,0.1,0.2c0.2,0.2,0.3-0.2,0.5-0.2
					c0.1,0,0.1,0.2,0.2,0.5c0.1,0.4,0.1,0.6,0.2,0.5c0.3-0.3,0.3-0.3,0.3-0.3c0.1,0.2-0.1,1.6-0.1,1.6c0,0,0,0,0,0.1c0,0,0,0,0,0
					c-0.1-0.1,0-0.5-0.2-0.4c-0.1,0-0.2,0.2-0.3,0.3c-0.1,0.2-0.2,0.2-0.2,0.2c-0.1,0-0.1-0.1-0.2-0.1c-0.1,0-0.1,0.2-0.2,0.2
					c0,0-0.1,0-0.1-0.2c-0.3,0.5-0.4,0.5-0.6,0.3c-0.1-0.2-0.2-0.2-0.3-0.2c-0.1,0.1-0.1,0.2-0.2,0.3c-0.1,0.1-0.2-0.1-0.2,0
					c0,0-0.1,0.2-0.1,0.4c-0.4,0-0.8,0-1.2,0c0-0.2,0.1-0.4,0.2-0.6c-0.1,0-0.3,0.1-0.7,0.3c0-0.1,0-0.1,0-0.5
					c0.2,0,0.4-0.4,0.5-0.9c0-0.1,0.1-0.3,0.1-0.4c0.1-0.1,0.3,0,0.4-0.1c0.1-0.1,0.1-0.3,0.2-0.4c0,0,0,0,0,0
					c0.1,0.1,0,0.4,0.2,0.4C214.4,139.2,214.4,139.2,214.5,139.4z M212.2,131.1C212.3,131.1,212.3,131.1,212.2,131.1
					c0.2,0.2,0.2,0.5,0,0.8c0,0,0,0,0.1,0.1c0,0.4-0.4,0.7-0.1,1.1c0.1,0.2,0.4,0,0.5,0.2c0,0,0.1,0.2,0.1,0.7
					c0.1,0.1,0.2,0.1,0.2,0.8c0.1-0.2,0.1-0.2,0.3-0.2c0.1,0.1,0.3,0.2,0.2,1.5c0,0-0.1,1.3-0.4,3.5c-0.1-0.1-0.1-0.1-0.2-0.4
					c0,0.1-0.1,0.2-0.1,0.3c-0.1-0.1-0.2-0.1-0.3-0.2c0,0.2,0,0.4,0,0.6c0,0-0.1,0-0.1,0c-0.3-0.3-0.2-0.9-0.7-1.2
					c-0.1,0-0.4-0.6-0.4-0.6c0,0,0-0.2,0-0.3c0-0.3-0.1-0.4-0.2-0.5c-0.2-0.2-0.4-0.4-0.5-1.3c-0.1-0.8-0.2-1.6-0.4-2.4
					c0-0.1-0.1-0.3-0.1-0.4c-0.2-0.4-0.6-0.5-0.6-0.9c0-1-0.2-2.2-0.8-2.1c0,0-0.1,0-0.1-0.1c-0.1-0.2,0-0.4-0.1-0.6
					c-0.1-0.2-0.3-0.2-0.3-0.4c-0.3-0.7-1-1.2-1.4-1.9c0,0-0.5-1.2-0.1-1.5c0.3,0,0.4,0.3,0.6,0.4c0.4-0.4,1.1-0.7,1.4,0.1
					c0.1,0.4,0.2,0.7,0.5,1.1c0,0.1,0.1,0.1,0.1,0.2c0.2,0.2,0.5,0.2,0.7,0.5c0.2,0.2,0,0.5,0.3,0.7c0,0,0,0,0.1-0.1
					c0.1,0.1,0.1,0.1,0.4,0.8c0.1-0.1,0.1-0.2,0.2-0.3c0.1,0,0.2,0.1,0.3,0.5c0.2,0,0.4,0.2,0.5,0.6c0.2-0.2,0.2-0.2,0.4-0.2
					c0.1,0.1,0.3,0.4,0.1,1.1C212.1,131.3,212.2,131.2,212.2,131.1z M106.4,14.2L106.4,14.2C106.4,14.2,106.3,14.2,106.4,14.2
					c0,0,0.2,0,0.3,0c0.3-0.1,4.4,0.2,9.1,0.9l0.1,0c0.1,0,0.3,0,0.4,0.1l0,0c-0.3,0.1-0.6,0.2-0.9,0.4l0,0
					c-0.6,0.3-1.2,0.5-1.9,0.8c0,0,0,0,0,0l0.1-0.1c0.4-0.2,0.4-0.2,1.6-0.7l-0.2,0.1c-2.9,1.1-2.9,1.1-3.7,1.5
					c-0.1,0.1-0.1,0.1-1.2,0.6c0.1,0,0.3-0.1,0.4-0.1c-0.9,0.5-0.9,0.5-1,0.6c-1.5,0.8-2.9,2-4.5,2.7c0.7-0.9,0.8-1,3.3-2.5l-4.2,2
					c0,0,0.1,0.1,0.2,0.2c-0.5,0.3-1.1,0.4-1.5,0.7c0.5-0.1,0.9-0.3,1.3-0.5c0.1,0,0.1,0.1,0.2,0.1c0.1,0,0.2,0,0.2-0.1
					c0,0.2-0.5,1.6-7.8,3.6c0-0.1,0-0.2,0-0.2c0.3-0.3,0.6-0.5,0.9-0.7c-3.1,1.2-5.7,3.2-8.7,4.5c0.1-0.2,0.1-0.2,0.5-0.6
					c-0.3-0.1-0.3-0.1-1.6,0.7c-0.9-0.2-1.3,1.3-2.3,0.8c-4.7,2.4-8.1,6.6-12.8,9c-0.1,0-0.1-0.1-0.2-0.1c0-0.1,0.1-0.1,0.1-0.2
					c-0.1-0.1-0.3-0.1-0.5,0c0.3-0.6,1.7-1.9,1.7-1.9c0-0.1,0-0.2,0-0.2c-0.2,0-0.2,0-0.7,0.1c0-0.1,0-0.2,0-0.2
					c0.1-0.1,0.2-0.2,0.3-0.3c-0.1,0-0.1,0-0.2-0.1c0.2-0.5,4.6-4.5,4.6-4.6c1.1-0.9,2.5-1.4,3.7-2.2c-0.6,0-1,0.4-1.6,0.6
					c0,0,3.3-2.7,9.3-5.5l0.1,0l0.1-0.1l0.1-0.1c0,0,0,0,0,0l0,0c0,0,0,0,0,0c0,0,0,0,0,0c0,0,0,0,0,0c0,0,0,0,0,0c0,0,0,0,0,0
					c0,0,0,0,0,0c1-0.5,1.7-0.7,1.7-0.7c0,0.1,0,0.2,0,0.2c0,0,0.1,0,0.1,0.1l0,0l0.1,0c0.1-0.1,0.3-0.1,0.5-0.2l0.1,0l0.2-0.1
					c0-0.1,0-0.1,3-1.2c-0.1,0-0.1,0.1-0.2,0.1c0,0.1,0,0.1,0,0.1l0,0c0,0,0,0,0,0l0,0l0,0l0,0c0,0,0,0,0,0l0,0
					c2.1-0.6,3.9-2,6.1-2.7c-0.2,0.3-0.2,0.3-0.9,0.6c0.1,0,5.5-1.9,5.5-1.9c-0.8,0.1-1.6,0.4-2.4,0.6c0.3-0.1,0.7-0.2,1-0.4
					c0.1,0,5.5-1.5,11.8-2.3c-0.1,0-0.2,0-0.3,0l0,0c-0.1,0-0.1,0-0.2,0c0.1,0,0.1,0,0.2,0l0.1,0c0,0,0.1,0,0.1,0
					c-0.3,0-0.6,0-0.9,0c-1.2,0-1.4,0-2.9,0l-0.1,0l-0.2,0l-0.1,0l0,0c-1,0-1.9,0.1-2.8,0.1c0,0,0,0,0.1,0l0,0c0,0-0.1,0-0.1,0
					c0,0,0.1,0,0.1,0l0.1,0c0.1,0,0.1,0,0.2,0c-0.2,0-0.3,0-0.7,0c-0.3,0-0.7,0-1,0.1l-2.4,0.1c0.1,0,0.1,0,0.2,0c0,0,0,0-0.1,0
					c-0.1,0-0.2,0-0.3,0c0,0,0.1,0,0.1,0c0.1,0,0.1,0,0.2,0l0.1,0l0.1,0l0.1,0c0.4,0,2.5-0.1,4.3-0.2c0.1,0,0.1,0,0.2,0l0.1,0l0.1,0
					l0.1,0c0.7,0,2.4,0,3.9,0c-0.3,0-0.5,0-0.8,0c0.7,0,1.4,0,2,0l0.1,0l0.1,0l0.1,0c-0.4,0-0.9-0.1-1.6-0.2l-0.1,0
					c-0.1,0-0.2,0-0.4,0c-0.2,0-0.4,0-0.6,0c-0.3,0-0.7-0.1-1-0.1c-0.1,0-0.3,0-0.4,0l-0.1,0c-2.7-0.3-2.7-0.3-4-0.3l-0.1,0
					c-0.2,0-0.3,0-0.5,0c0,0,0.1,0,0.2,0c-0.1,0-0.2,0-0.2,0c0,0,0,0,0,0c0,0,0,0,0,0c0,0,0,0,0,0c0,0,0,0,0,0c0,0,0,0,0,0
					c0,0,0,0,0,0c0,0,0,0,0,0c0,0,0,0,0,0c-0.1,0-0.3,0-0.4,0l-0.1,0c-0.2,0-0.3,0-0.5,0c0,0-0.1,0-0.1,0c-0.1,0-0.1,0-0.2,0
					c-0.6,0-1.7,0-1.7,0l0,0c0.1,0,0.2,0,0.2,0c-0.1,0-0.3,0-0.4,0c0.1,0,0.1,0,0.4,0c-0.2,0-1.7-0.1-1.7-0.1
					C103.1,14.2,105.9,14.2,106.4,14.2z M100.1,15.4l-0.1,0l-0.1,0l-0.1,0c-0.1,0-0.3,0-0.4,0.1l-0.1,0c0,0,0,0,0,0c0,0,0,0,0,0l0,0
					c0,0,0,0,0,0l0,0l0,0c0,0,0,0,0,0l0,0c-0.3,0.1-1.9,0.3-1.9,0.3l-0.1,0l-0.2,0c-0.1,0.1-0.1,0.1-0.4,0.1v0c0,0-0.1,0-0.1,0
					c0,0-0.1,0-0.1,0c0,0-0.1,0-0.1,0c0,0-0.1,0-0.1,0c0,0-0.1,0-0.1,0c0,0-0.1,0-0.1,0s-0.1,0-0.1,0c0,0-0.1,0-0.1,0
					c0,0-0.1,0-0.1,0c-0.2,0-0.4,0.1-0.5,0.1l0,0c0.2-0.1,0.4-0.1,0.6-0.1c-0.2,0-0.4,0.1-0.6,0.1c0.5-0.1,0.8-0.1,0.8-0.1
					c-0.1,0-0.1,0-1.2,0.1c0,0,0.1,0,0.1,0c0,0,0,0-0.1,0l-0.1,0c0,0-0.7,0.1-0.9,0.1c0.2,0,0.4,0,0.5,0l0,0l0,0
					c0,0-2.2,0.4-2.4,0.4l-0.1,0c-0.1,0-0.2,0-0.3,0c-0.1,0-0.1,0-0.1,0c0,0,0,0,0,0c0,0,0,0,0,0c0,0,0,0,0,0c0,0,0,0,0,0
					c0,0,0,0,0,0c0,0,0,0,0,0c0,0,0,0,0,0c0,0,0,0,0,0c0,0,0,0,0,0s0,0,0,0c0,0,0,0,0,0c0,0,0,0,0,0c0,0,0,0,0,0c0,0,0,0,0,0
					c0,0,0,0,0,0c0.2-0.1,1-0.3,1-0.3l0.2,0c0.6-0.1,1.2-0.3,1.8-0.4c0,0,0,0,0,0c-0.1,0-0.2,0-0.2,0c-0.5,0.1-1,0.2-1.5,0.2
					c0,0,0,0,0-0.1c-0.3,0.1-0.7,0-1.1,0.1l-0.1,0c-0.1,0-0.1,0-0.1,0c0,0-0.1,0-0.1,0c0,0,0.1-0.1,0.1-0.1c0,0-0.1,0-0.1,0
					c0.1-0.1,0.1-0.1,0.4-0.1c0.1,0,0.1,0,0.2,0c0,0,0,0,0,0c0,0,0,0,0,0c0,0,0,0,0,0c0,0,0,0,0,0c0,0,0,0,0,0c0,0,0,0,0,0
					c0,0,0,0,0,0l0,0c1.4-0.2,2.8-0.6,4.3-0.8l0,0l0.1,0c0.1,0,0.2,0,0.4,0l0.1,0c0.5-0.1,0.5-0.1,0.9,0c0.2,0,0.4-0.1,0.6,0.1l0,0
					c0,0.1-0.1,0.1-0.2,0.1c0.2,0,0.2,0,0.4,0l0.1,0c0.4,0,0.4,0,1.2-0.2c-0.1-0.1-0.1-0.1-0.6-0.1c0,0,0.1,0,0.1,0l0.1,0
					c0.1,0,0.3,0,0.4,0c-0.1,0-0.2,0-0.2,0c0.3,0,0.3,0,0.7-0.1l0,0l0.1,0l0.1,0c0,0,1-0.1,1.5-0.1c0.1,0,0.3,0,0.4,0.1l0,0
					c0.2,0,0.5,0,0.7,0.1c0.1,0,0.2,0,0.3,0l0.1,0c-0.1,0-0.2,0-0.2,0l0,0c0,0-0.1,0-0.1,0c0,0,0.1,0,0.1,0c-0.1,0-0.1,0-0.2,0
					c0,0-0.1,0-0.1,0c0,0,0.1,0,0.1,0c0.4,0,0.7,0,1.1,0l-0.2,0c0,0-0.1,0-0.1,0c0.3,0,1.1,0,2.4,0c0.7,0,0.7,0,1.3,0
					c0.5,0,0.8,0,1.9,0.1c0.8,0.1,1.7,0.2,2.5,0.2c0,0-3.2-0.2-3.4-0.2c-0.1,0-0.2,0-0.2,0c0.3,0,0.7,0.1,0.7,0.1c0.1,0,0.2,0,0.3,0
					c0,0,0,0,0,0c0,0,0,0,0,0c0,0,0,0,0,0c0,0,0,0,0,0c0,0,0,0,0,0c0,0,0,0,0,0c0,0,0,0,0,0c0,0,0,0,0,0c0.3,0,0.6,0,0.9,0.1h-0.1
					l-0.2,0c-0.1,0-0.3,0-0.4,0l-0.1,0c-0.6,0-1.2,0-1.9,0c-0.3,0-0.5,0-0.8,0c0.2,0,0.4,0,0.6,0c-0.2,0-0.3,0-0.5,0
					c0.3,0,0.6,0,0.9,0c-0.1,0-0.3,0-0.4,0c0.2,0,0.4,0,0.6,0l0.1,0l0.1,0l0.1,0c0.2,0,0.4,0,0.6,0c0.1,0,0.3,0,0.4,0
					c0.1,0,0.3,0,0.4,0l0.1,0c0,0,0.1,0,0.1,0c0,0-0.1,0-0.1,0c-0.2,0-0.3,0-0.5,0c-0.3,0-0.6,0-0.8,0l-0.1,0l-0.1,0l-0.1,0l-0.1,0
					l-0.1,0l-0.1,0c-3.6,0-3.6,0-4.1,0.1l-0.2,0c0.3,0,0.7,0,1.3,0l0.1,0c0.1,0,0.3,0,0.4,0l0.1,0l0.1,0c0,0,0.1,0,0.1,0l0.1,0
					l0.1,0l0.1,0l0.1,0c0.2,0,0.3,0,0.5,0c0,0,0.1,0,0.1,0c0,0,0.1,0,0.1,0c0,0,0.1,0,0.1,0c0,0,0.1,0,0.1,0c0,0,0.1,0,0.1,0
					c0,0,0.1,0,0.1,0l0.1,0c0,0,0.1,0,0.1,0c2.4,0,3.6,0.1,4.2,0.1l0,0c-0.1,0-0.3,0-0.4,0c-0.2,0-0.5,0-0.7,0c0.2,0,0.3,0,0.5,0
					c-0.4,0-0.8,0-1.2,0l-0.1,0c-0.4,0-0.8,0-1.2,0l-0.1,0c-0.4,0-0.7,0-1.1,0l-0.1,0c-0.3,0-0.6,0-0.8,0c0,0-0.1,0-0.1,0l-0.1,0
					c-3.1,0.1-5.9,0.3-5.9,0.3C100.8,15.3,100.4,15.4,100.1,15.4z M104.4,15.4L104.4,15.4c-0.4,0-0.8,0-1.2,0.1c0.1,0,0.1,0,0.2,0
					c-0.1,0-0.1,0-0.5,0c-0.5,0-0.5,0-1.1,0.1c0.1,0,0.1,0,0.5-0.1c-0.1,0-0.2,0-0.2,0c0,0,0.1,0,0.1,0l0.2,0c0.1,0,0.3,0,0.4,0
					l0.1,0l0.1,0c0.9-0.1,1.9-0.1,2.8-0.2l-0.1,0l0.3,0c0.1,0,0.1,0,0.6,0c1.3,0,1.3,0,1.9-0.1c0.7,0,1.3,0,1.4,0
					c-0.2,0-0.3,0-0.5,0l-0.2,0c-0.3,0-0.6,0-1,0c0,0,0,0,0,0c1,0,1.9,0,2.9,0c-0.1,0-0.1,0-0.2,0c0.3,0,0.7,0,1,0
					c-0.2,0-0.4,0-0.6,0c0.2,0,1,0,1.6,0c-0.2,0-0.3,0-0.5,0l0.1,0c0.5,0,0.9,0,1.4,0l0.1,0l0.1,0l0.1,0l0.2,0c-0.1,0-0.1,0-0.2,0
					c0.1,0,0.3,0,0.4,0c0.1,0,0.2,0,0.3,0c0.1,0,0.2,0,0.4,0l0,0v0c-0.3,0-0.7,0-1,0l0,0l0,0l-0.1,0c0,0,0,0,0,0v0l0,0v0l0,0l0,0v0
					v0c0.2,0,0.3,0,0.5,0l0.1,0c0.1,0,0.1,0,0.2,0c0,0,0,0,0,0l0,0c-0.6,0-1.1,0-1.7,0l-0.1,0l-0.1,0l-0.1,0c-0.5,0-1.1,0-1.6,0
					l-0.1,0c-0.5,0-1,0-1.5,0c0.2,0,0.4,0,0.6,0c-0.6,0.1-1.3,0-1.9,0.1c0,0,0.1,0,0.2,0c-0.4,0.1-0.8,0-1.3,0.1
					c-1.8,0.1-1.8,0.1-2.1,0.1c0,0,0,0,0,0v0l0,0v0v0l0,0v0C105.2,15.4,105.2,15.4,104.4,15.4z M70.3,29.5c1.4-1.3,1.4-1.3,1.4-1.5
					c1.5-1,3.1-1.9,4.7-2.9l0,0c0.1-0.1,0.3-0.2,0.4-0.3c0.1-0.1,0.3-0.2,0.4-0.3c-0.1,0-0.2,0.1-0.2,0.1l-0.1,0.1
					c-0.6,0.3-0.6,0.3-0.9,0.4c0.1,0,0.1-0.1,0.2-0.1l0,0c0,0,0,0-0.8,0.2c-0.1,0-0.1-0.1-0.2-0.1c0.2-0.2,0.2-0.2,0.6-0.4
					c0.2-0.1,0.2-0.1,1.3-0.5c0,0,0,0,0,0c0,0,0,0,0,0c0,0,0,0,0,0c0,0,0,0,0,0c0,0,0,0,0,0c0,0,0,0,0,0c0,0,0,0,0,0c0,0,0,0,0,0
					c0.1-0.1,0.4-0.1,0.5-0.2c0.2-0.1,0.5-0.2,0.7-0.3c-0.1,0-0.1,0.1-0.2,0.1l-0.2,0.1l0,0l0,0.1c0,0,0,0,0,0c0,0,0,0,0,0
					c0,0,0,0,0,0c0,0,0,0,0,0c0,0,0,0,0,0c0,0,0,0,0,0c0,0,0,0,0,0c0,0,0,0,0,0l0,0c0,0,0,0.1,0,0.1c4.2-1.1,8.2-2.8,12.3-4.2
					l0.2-0.1c0.4-0.1,0.8-0.2,1.1-0.4c-0.4,0-0.9,0.1-1.3,0.2c0.4-0.1,0.5-0.2,1.1-0.3c3.3-0.8,3.3-0.8,3.6-1l0.3-0.1
					c0.9-0.2,2-0.5,2.4-0.7c-2.5,0.6-2.5,0.6-2.8,0.6c0.5-0.2,0.5-0.2,1.2-0.4l0,0c-0.3,0.1-0.3,0.1-1,0.2c-0.1,0-0.1,0-0.2,0
					c0.1,0,0.3-0.1,0.4-0.1c-0.1,0-0.2,0-0.2,0c0.1,0,0.2-0.1,0.2-0.1l0.1,0l0.1,0l0.1,0l0,0l0.1,0c0,0-0.1-0.1-0.1-0.1
					c0.1,0,0.2-0.1,0.2-0.1c-0.1,0-0.2,0-0.3,0c1.8-0.4,1.8-0.4,2.1-0.4c0,0,0,0-0.1,0c-0.1,0-0.3,0-0.5,0c0.6-0.1,2.1-0.4,2.4-0.5
					l0.1,0c0.2,0,0.4-0.1,0.5-0.1c0,0,0,0,0,0c-0.1,0-0.2,0.1-0.2,0.1l0.1,0l0,0c1.5-0.2,2.9-0.5,4.4-0.6l0.1,0l0.1,0
					c0.4,0,0.8-0.1,1.2-0.1c0,0-0.1,0-0.1,0c0,0,2.1-0.1,3-0.2c0.5,0,1.1,0,1.6-0.1c0,0,0,0,0.1,0c0,0,0,0,0.1,0c0,0,0,0,0.1,0
					c0,0,0,0,0.1,0c0,0,0,0,0.1,0c0,0,0,0,0.1,0c0,0,0,0,0.1,0c0,0,0,0,0.3,0c2.2-0.1,3.4-0.1,4.1-0.1c-4.2,0.1-5.7,0.1-8.9,0.4
					c-1,0.1-2.3,0.2-4,0.5l-0.1,0c-0.6,0.1-1.2,0.1-1.8,0.2c0.1,0,0.2,0,0.3,0c-0.1,0-0.3,0.1-0.5,0.1l0,0v0l0,0v0c0,0,0,0,0.1,0
					c1.4-0.2,2.7-0.4,4.1-0.6c3.5-0.4,4.8-0.4,5.8-0.5c0,0-0.1,0-0.1,0c0.3,0,0.4,0,0.6,0c-0.1,0-0.2,0-0.2,0c0.6,0,1.2-0.1,1.8-0.1
					c0,0,0,0-0.1,0c-0.2,0-0.4,0-0.5,0c0.3,0,0.5,0,0.8,0c0,0,0.1,0,0.1,0c-0.2,0-0.4,0-0.5,0c1.1,0,1.6-0.1,2.3-0.1
					c-1,0-1.9,0.1-2.9,0.1v0l0,0v0l0,0v0c0,0,0,0-0.1,0c-0.7,0.1-1.4,0.1-2.1,0.2c0,0-1.9,0.2-2.8,0.3c-0.4,0.1-0.8,0.1-1.2,0.1
					c0,0,0,0,0,0c0.9-0.1,1.7-0.2,2.6-0.3c-0.3,0-0.6,0.1-0.9,0.1c0.1,0,0.2,0,0.3,0c-0.2,0-0.4,0.1-0.6,0.1
					c0.7-0.1,1.4-0.2,2.1-0.2c-0.1,0-0.3,0.1-1.4,0.2c0,0,0,0,0.1,0c-0.4,0.1-0.8,0.1-1.2,0.2l-0.2,0l0,0l-0.1,0l0,0
					c-0.7,0.2-1.4,0.2-2.2,0.3c0.5-0.1,0.5-0.1,0.8-0.1c-0.5,0.1-1,0.1-1.5,0.2c0.1,0,0.2,0,0.2,0c-0.5,0.1-0.5,0.1-0.7,0.2
					c0.5-0.1,0.5-0.1,0.7-0.1l0.2,0c0.1,0,0.3,0,0.5-0.1c-0.9,0.2-1.7,0.4-2.5,0.5c-0.4,0-0.4,0-0.7,0.2c0.1,0,0.3,0,0.5-0.1
					c-0.1,0-0.2,0-0.3,0.1l-0.4,0.1c-0.6,0.1-0.6,0.1-0.9,0.2c0.1,0,0.3,0,0.5-0.1c-0.1,0-0.2,0.1-0.3,0.1c-0.2,0-0.4,0.1-0.5,0.1
					c0.1,0,0.3,0,0.5-0.1c-0.1,0-0.2,0-0.2,0.1l-0.1,0c-1,0.3-1,0.3-1.1,0.3l0,0c0,0,0,0,0,0l0,0c0,0,0,0,0,0c0,0,0,0,0,0
					c0,0,0,0,0,0s0,0-0.2,0c-0.2,0.1-0.5,0.1-0.7,0.2c0.1,0,0.2,0,0.2,0c-0.8,0.2-0.8,0.2-0.9,0.3c0.5-0.1,0.5-0.1,0.7-0.1
					c-0.6,0.2-1.2,0.5-1.9,0.6l0,0l0,0v0l0,0l0,0v0l0,0c0,0,0,0,0,0c-0.1,0-0.2,0-0.2,0c0,0,0,0,0,0c0,0,0,0,0,0c0,0,0,0,0,0l0,0
					c0,0,0,0,0,0c0,0,0,0-0.2,0c-0.2,0-0.4,0.1-0.5,0.2l-0.1,0l-0.1,0.1l0,0.1h0v0v0l0,0v0l0,0v0c0,0,0,0-0.1,0
					c-0.8,0.3-0.8,0.3-1.3,0.3c0-0.1,0.1-0.1,0.1-0.2c-1,0.4-2.1,0.4-3,1.1c0,0,0,0,0,0c0,0,0,0,0,0c0,0,0,0,0,0c0,0,0,0,0,0
					c0,0,0,0,0,0c0,0,0,0,0,0c0,0,0,0,0,0c0,0,0,0,0,0c0,0,0,0,0,0c-0.3,0.2-0.6,0.2-0.8,0.3l0,0l0.1,0c0,0,0,0,0,0
					c-0.1,0.1-0.3,0.1-0.5,0.2l-0.2,0.1c0,0-0.1,0.1-0.2,0.1c0.1,0,0.2,0.1,0.2,0.1c0,0-2.2,0.9-2.5,1.2c0.1,0,0.2,0,0.2,0
					c-0.6,0.3-1.2,0.8-1.9,1.1c-0.1,0-0.2,0.1-0.3,0.1l0,0c-0.4,0.1-0.8,0.4-1.2,0.5c0-0.1,0.1-0.1,0.1-0.2
					c-0.2,0.1-0.5,0.2-0.7,0.4l-0.3,0.1c-0.5,0.1-1,0.4-1.5,0.6c0,0,0-0.1,0-0.1c0.1-0.1,0.3-0.2,0.4-0.3c-0.1,0.1-0.3,0.2-0.4,0.3
					l-0.1,0.1c-0.2,0.1-0.4,0.2-0.6,0.3c-0.3,0.1-0.6,0.3-0.9,0.4c-0.1,0-0.2,0-0.2,0c0-0.1,0.1-0.1,0.2-0.2l0.2-0.1
					c0.3-0.2,0.7-0.4,0.9-0.6c0.4-0.2,0.8-0.4,1.2-0.6c0,0,1.7-0.9,2-1.3c-0.9,0.4-2,0.5-2.8,1.2c-0.4,0.2-0.8,0.4-1.2,0.6
					c-0.4,0.2-0.9,0.5-1.3,0.7c0.2-0.1,0.4-0.1,0.5-0.2c-0.9,0.9-6.3,4-6.9,4.1c0-0.1,0.1-0.1,0.2-0.2c-0.1,0.1-0.4,0.2-0.5,0.2
					c0.4-0.3,0.5-0.4,0.8-0.6c0.4-0.8,1.6-0.9,1.9-1.8c-1.7,0.6-2.7,2.1-4.2,3c0,0,0,0,0,0c-0.1,0-0.1,0.1-0.2,0.1
					c-0.1,0-0.3,0.1-0.4,0.1C69.7,30.3,69.9,29.8,70.3,29.5z M192.9,112.9c-0.5,1.1-0.9,2.2-1.4,3.3c-0.3,0.1-0.7,0.2-1,0.3
					c0.1,2.2,1.4,4.1,1.4,6.3c0,1.3-1,2.3-1.4,3.4c-0.1,0.2-0.2,0.4-0.2,0.5c-0.8,1.6-1,1.3-2.1-0.4c-2.5-3.8-4.2-7.3-5.6-11.3
					c-0.7-2.2-0.8-4.6-1.7-6.9c-0.4,0.8-0.1,1.9-0.9,2.5c-0.6,0.5-2.9-0.7-3-2.2c1.1-0.4,1.2-0.5,1.4-1.4c-2.6,0.7-3.5-2.1-5.5-2.7
					c-2.3-0.6-4.1,1.5-6.4,1.2c-4.9-0.6-4.9-0.6-4.9-0.7c-0.8-1.7-0.8-1.7-1.3-1.7c-1.1-0.1-1.3,1.5-2.4,1.4c-0.1,0-0.3-0.1-0.4-0.1
					c-0.1,0-0.3-0.1-0.5-0.1c-0.1,0-2.3-0.6-2.9-0.9c-0.1,0-0.2-0.2-0.2-0.1c-1.3-1-1.9-2.6-3-3.8c-0.3,0.1-0.7,0.1-1,0
					c-0.2-0.3-0.5-0.6-0.8-0.8c-0.1,0.3-0.2,0.7-0.3,1c-0.2,0.1-0.4,0.2-0.5,0.2c0,0.2,0.1,0.4,0.1,0.5c-0.1,0.1-0.3,0.2-0.4,0.2
					c0,0,3.7,3.9,3.8,4.6c0.1,0.4,0.3,1.7,1.1,2.2c0.1-1.6,0.1-1.6,0.4-2c0.3,0.3,0.3,0.3,0.6,3c0.1,0.1,0.3,0.2,0.4,0.3
					c0.2,0,0.4-0.1,0.5-0.1v0c0.5-0.2,0.8-0.5,1.3-0.6c0.6-0.1,1.3,0.4,1.9-0.1c0.1-0.1,0.2-0.1,0.2-0.5c0.3-1.4,1.6-3,1.6-3
					c0.2-0.1,0.3-0.1,0.5,1c0.2,1,0.3,1.4,0.5,1.7c0.8,1,2.3,0.3,3.2,1.2c0.7,0.8,1.6,1.7,1.5,2.1l0,0c0,0.5-1,2.7-1,2.7
					c-0.1,0.3-0.3,0.3-0.4,0.3c-0.4,0-0.6,0.1-0.7,0.6c-0.1,0.6,0.6,1.1,0.2,1.7c-0.1,0.1-0.1,0.2-0.4,0.2c-0.5,0-0.7,0-1,1
					c-0.1,0.2-0.2,0.5-0.3,0.7c-0.3,0.3-0.8,0.4-1.1,0.7l0,0c-0.2,0.3-0.2,0.5-0.2,1.1c-0.2,0.1-0.3,0-0.4,0
					c-0.3-0.1-0.4-0.1-1.2,0.2c-2.1,0.7-2.3,2.2-2.3,2.2c0,0,0.1,0.4-0.3,0.4v0c-0.5,0-0.5,0-1.5,0.9c-0.6,0.5-1.5,0.5-2.2,0.9
					c-0.5,0.3-0.6,0.8-0.9,1.2c-0.4,0.4-0.9,0.2-1.3,0.4c-0.5,0.3-0.6,1-1.3,1c-1,0-2.1-0.1-2.2,1.1c-2.2,0.2-2.2,0.2-2.7,0
					l-0.3-1.3c-0.2-0.7-0.6-1.3-0.8-2c-0.2-0.9,0.1-1.7-0.2-2.6c-0.2-0.6-0.6-1.1-0.9-1.4l-0.2-0.2c-4.9-4.5-6.7-11.2-11-16.2
					c-0.1,0-0.2,0-0.4-0.2c0.1-0.6,0.2-1.2,0.2-1.8c-0.5,0.8-0.5,1.7-1,2.4c-0.9-1.1-1.2-2.6-2.4-3.5c0,0.1,3.4,11.1,9.9,19.9
					c0,0,0,0,0,0c0,0,0,0,0,0c0.6,1.2,0.6,2.5,1.3,3.6c0.1-0.1,0.3-0.1,0.5-0.2c4.4,2.8,5.2,4.5,5.2,4.6c-0.2,0.3-0.6,0.7-0.9,0.9
					c4.4,2.8,7.9-2,12-1.4c0,0.2,0.1,0.4,0.1,0.5c-0.2,8.4-11,20.8-14.3,21.5c-3.9,6.7-3.9,6.7-2.4,7.6c0,0.2,0,0.4,0,0.6
					c-0.8,2,1.8,3.1,1.4,5l-0.7,5.6c0,0.2,0.1,0.4,0.1,0.5c-2.9,3.4-8.6,6.4-8.7,6.4c-0.1,0.8,0.1,1,0.5,1.4
					c-0.1,1.4,1.1,2.8,0.1,4.2c-1,1.3-3.1,0.8-3.8,2.5c1.7,3.6-9,10-10,9.9c-0.1,0.1-0.3,0.2-0.4,0.3c-1-0.1-1-0.1-8.5,0
					c0-0.2,0.1-0.4,0.1-0.5c-0.6-0.6-0.6-0.7-0.9-1.3c0.1-0.1,0.2-0.3,0.3-0.4c0-0.2-0.1-0.4-0.1-0.5c-0.7-2.7-3.3-4.2-4.5-6.7
					c-0.8-1.8-0.4-3.9-1.3-5.7c-0.1-0.2-0.9-1.4-2-3c-2.6-3.9-2.6-3.9-1.9-6.8c0.5-1.9,2.2-3.2,2.4-5.3l-1.4-5.8
					c-1.2-3.7-4.6-6-6-9.6c0.2-0.3,0.2-0.3,1-1.8c0.3-1.8,0.1-3.6,0.3-5.4c-0.7-0.2-1.1-0.8-1.7-1.1c0,0,0,0,0,0c0,0,0,0,0,0
					c0,0,0,0,0,0c0,0,0,0,0,0c0,0,0,0,0,0c0,0,0,0,0,0c0,0,0,0,0,0c0,0,0,0-0.2,0c-0.1,0.1-0.2,0.3-0.4,0.4
					c-1.2-0.4-3.3,0.7-3.7-1.1c-0.4-2.1-1.1-2.2-3-2.6c-2.1-0.4-3.8,1.1-5.7,1.3c-0.6,0.1-0.9,0.6-1.5,0.6c-1.3,0.1-2.1-1.2-3.4-1.2
					c-1.4,0-2.3,1.6-3.8,1.1c-2.7-0.9-3.5-3.9-5.8-5.2c-0.3-0.4-0.3-0.4-1.3-0.6c0.1-0.3,0.2-0.7,0.2-0.9L62,128c0-0.1,0-0.3,0-0.4
					c-0.2,0-0.4,0.1-0.5,0.1c0-0.5-0.3-1-0.3-1.5c-0.7-0.1-1-0.8-1.7-1c0-2.2,0-2.2-0.2-4.1c0.8-0.7,2-3.6,2.1-4c0.1,0,0.1,0,0.2,0
					c-0.1-0.2-0.1-0.3-0.2-0.5c0.1-1.5,0.1-1.5-0.2-2.8c0.4-0.3,1.1-1-0.2-2.6l6.5-9.7c1.2-1.4,3.3-1.3,4.5-2.6c0.9-1,0.2-2.4,1-3.4
					c0.1-0.1,0.3-0.3,0.3-0.4c0.4-0.6,0.6-1.3,1.1-1.8c0.9-0.9,3.9-4,4.9-4.5c0.7,1.2,3.4,1.7,3.4,1.7c1.3,0.1,2.2-1.1,3.4-1
					c2-2.8,5.1-0.1,7.4-1.5c0.9,0.2,0.9,0.2,1.4,0.1c1.2,0.6,2.3-0.5,3.5-0.2c0.1,0.3,0.3,0.7,0.5,0.9c0.1-0.1,0.3-0.1,0.5-0.2
					c0,0.1,0,0.3,0,0.5c-0.2,0.2-0.6,0.5-0.8,0.7c0.6,1.6,0.6,1.6-1,3.7c0,0,0,0,0,0c0,0,0,0,0,0c0,0,0,0,0,0c0,0,0,0,0,0
					c0,0,0,0,0,0l0,0c0,0,0,0,0,0c0,0,0,0-0.2,0.3c0.9,0.6,0.9,0.6,1.3,0.6c0.7,2.7,4,0.8,5.3,2.6c1,1.4,2.7,1.9,4,2.9
					c0.1,0.1,0.3,0.3,0.4,0.4c0.1,0.1,0.3,0.2,0.5,0.3c1.8-0.4,0.7-2.5,1.6-3.5c1.5-1.5,1.7-1.4,4.2,0.2c0.1,0,7,2.9,8.4,1.8
					c0.3-0.2,0.7-0.4,1.1-0.5c0,0,0,0,2.1-0.1c0.5,0.5,1.2,0.5,1.8,0.8c4.7-1.4,1.5-6.8,3.2-10c0-0.1-0.1-0.3-0.1-0.5
					c-0.3,0.2-0.6,0.4-0.9,0.5c-1.3-0.7-1.9,1.1-3,1.1c-0.8,0-1.1-0.7-1.6-1c-0.2-0.2-0.6-0.3-0.9-0.4c-0.1,0.1-0.3,0.2-0.4,0.2
					c0,0.2,0,0.4,0,0.5c-0.9,0.8-0.9,0.8-2.6-0.5c-0.1,0-0.3,0.1-0.4,0.2c-0.2,0-0.4-0.2-0.6-0.3c0.1-0.1,0.3-0.2,0.4-0.3
					c-0.3,0-0.7,0-1-0.1c-0.1-0.5-0.4-0.9-0.4-1.5c-0.1-0.1-0.3-0.2-0.4-0.3c0,0,0,0,0,0c0,0,0,0,0,0c0,0,0,0,0,0c0,0,0,0,0,0
					s0,0,0,0c0,0,0,0,0,0c0,0,0,0,0,0c0,0,0,0-0.3,0c0-0.1-0.1-0.3-0.1-0.5l0.2-0.1l0.1-0.4c0.1,0,0.1,0,0.2,0c0-0.3,0-0.3-0.1-1.5
					c-0.2,0-0.4,0-0.5,0c-0.1-0.1-0.2-0.3-0.2-0.4c1.1-1.4,3.1-0.8,4.2-2c-0.1-0.1-0.3-0.2-0.5-0.3c0.1-0.1,0.3-0.2,0.4-0.3
					c0.6,0.2,0.6,0.2,2,0.1c0.3-0.5,0.3-0.5,4.4-2c0.3,0.1,0.6,0.4,0.8,0.7c0.3-0.1,0.9-0.1,1.7,0.8c0,0,0,0,0,0
					c0,0,3.9,1.1,5.3-0.8c0.5-0.7-3.8-5.8-5.6-5.5c-0.5-0.9-0.5-0.9-0.6-1.3c0.6-0.2,0.6-0.2,1.4-1.4c0,0,0,0,0,0c0,0,0,0,0,0
					c0,0,0,0,0,0c0,0,0,0,0,0c0,0,0,0,0,0c0,0,0,0,0,0c0,0,0,0,0,0c0,0,0,0,0.1-0.3c-0.2-0.2-0.3-0.6-0.4-0.9c0.2,0,0.4-0.1,0.5-0.2
					c0.1-0.3,0.2-0.7,0.3-0.9c-1.8,0-2.8,1.2-3.4,1.9c-0.1,0-0.3,0-0.5,0c-0.2,0.3-0.4,0.6-0.6,0.9c-0.1-0.1-0.2-0.3-0.4-0.4
					c-0.2,0-0.4,0-0.5,0c-0.1,0.1-0.2,0.3-0.3,0.4c-0.6-0.3-1.3,0-1.8-0.4c0-0.3-0.2-0.6-0.3-0.9c-1,0.2-1,0.2-2.4,3.6
					c-0.1,0-0.3,0-0.5,0c-0.9,1.4-0.5,3.2-1.4,4.6c0,0,0,0,0.1,0c0.9,1.8,0.9,1.8,1.3,2c0,0.1,0.1,0.3,0.1,0.5
					c-1.5,0.1-1.5,0.1-3.4,1.8c0.1-0.3,0.2-0.7,0.3-1c0,0-1.6-1.6-3.1,0.3c0.1,0.1,0.2,0.3,0.3,0.4c-0.2,0.2-0.6,0.4-0.8,0.4
					c-0.1-0.3-0.3-0.6-0.4-0.8c-0.1,0.2-0.5,0.8,0,1.9c-0.1,0.1-0.2,0.3-0.2,0.4c0.1,0.1,0.2,0.3,0.2,0.4c-0.1,0.1-0.1,0.3-0.2,0.5
					c1,0.6,1.2,1,1.3,1.4c-0.1,0.1-0.2,0.3-0.2,0.5c-2-1.3-2-1.3-3-1.2l-0.1,0c-0.1-0.1-0.1-0.1-0.5-1.1c-1.6-1.9-1.8-2.5-1.8-2.7
					c-0.3-1.2,1-2.9-0.6-3.7c-2.2-1.2-2.9-3.7-4.5-5.4c-0.2,0.2-0.6,0.4-0.8,0.5c-0.2-1.3-0.2-1.3-0.3-1.4c-0.9,0.5-3.1,1.8,1.3,7.1
					c0.6-0.2,0.7-0.2,1.3,0.3c-0.1,0.1-0.2,0.3-0.2,0.4c0.7,1.2,2.4,1.3,2.8,2.6c-0.1,0.1-0.2,0.3-0.2,0.5c-0.5-0.4-0.8-0.9-1.4-1.2
					c-1,1-0.8,1.2-0.1,2.1c0,0.2,0,0.4-0.1,0.5c0,0-0.9,1-1.4,2c-0.1,0-0.3,0.1-0.5,0.1c0-0.1,0-0.3,0-0.5c0.5-1.1,0.5-1.1,0.5-1.2
					c0-2-0.2-2.1-1-2.5c-0.5-1.5-2.1-1.9-3-2.9l0,0.1c-0.1-0.2-0.3-0.5-0.5-0.7l-0.1-0.2c-0.1-0.2-0.1-0.4-0.2-0.5
					c-0.1,0-0.3-0.1-0.5-0.1c-1.6-4.1-1.7-4.2-3.2-2.7c-1,0-1.4,1-2.2,1.3c0,0-1.1-0.4-2.1-0.9c-0.4,0-0.4,0-1.5,2.4
					c-0.8,2.6-5.8,2.7-4.6,6c-2.4,1.9-2.7,2.4-3.1,2.9c-1.6,0.1-3.1,0.8-4.7,0.8c-0.5-0.6-0.5-0.6-0.4-1.7c-0.1-0.1-0.2-0.2-0.4-0.3
					c-0.8,0.1-1.6-0.2-2.5,0c0.8-2.2,0.8-2.2,0.2-2.9c0.6-2.8,2.5-5.1,2.4-8c2.9-1.9,5.6,2.2,8.5,0.2c2.7-1.9-0.2-4.8,1.2-6.9
					c-0.3-0.1-0.6-0.4-0.7-0.7c-1.2-0.4-1.3-0.6-1.6-1.2c0.1-0.1,0.3-0.2,0.4-0.3c-0.1-0.1-0.2-0.3-0.3-0.4c0.1-0.1,0.2-0.2,0.3-0.4
					c0.9,0.1,1.9,0.2,2.8,0.3c0.2-0.3,0.2-0.3,0.3-2.1c0.2,0,0.4,0,0.5,0c0.1,0.3,0.3,0.6,0.5,0.8c2.2-0.1,2.2-3.5,4.7-3.1
					c0.4-0.5,1-0.8,1.4-1.3c0,0,0,0,0,0c0,0,0,0,0,0c0,0,0,0,0,0c0,0,0,0,0,0c0,0,0,0,0,0l0,0c0,0,0,0,0,0c0,0,0,0-0.1,0
					c0.1-0.5,0.4-0.9,0.5-1.3l0.1-0.1c0.1-0.1,0.2-0.3,0.2-0.4c0.1,0,0.3-0.1,0.5-0.1c-0.1,0.2-0.2,0.6-0.1,0.9l0,0l0,0h0l0,0l0,0h0
					l0,0c0,0,0,0,0.2,0c0.5-1.7,0.5-1.7,1.1-2l0.3-0.1l0.1,0l0,0.1l0.1,0l0,0.1l0,0.1c0.1,0,0.3-0.1,0.4-0.1c0-0.1-0.1-0.3-0.1-0.5
					l0.1-0.1c0.1-0.1,0.4-0.1,0.6-0.1c0.2,0.1,0.4,0.3,0.5,0.4l0.1,0.1l0.1-0.3c0,0,0,0,0,0l0,0c0,0,0,0,0,0c0,0,0,0,0,0
					c0,0,0,0,0,0c0,0,0,0,0,0l0-0.1l0-0.1c0.1-0.1,0.3-0.2,0.4-0.2c0.1-0.3,0.1-0.7,0-1l0.2-0.3l0-0.4c-0.1-0.2,0-0.5,0-0.7l0-0.1
					c0.1-0.2,0.1-0.6,0.2-0.8c-0.1-0.1-0.2-0.2-0.4-0.3c0-0.3,0.1-0.7,0.2-1l0-0.4c0,0,0,0,0,0c0,0,0,0,0,0c0,0,0,0,0,0c0,0,0,0,0,0
					c0,0,0,0,0,0c0,0,0,0,0,0c0,0,0,0,0,0c0,0,0,0,0,0c0-0.1,0.1-0.3,0.1-0.5l0.1-0.1l0.2-0.4c0.1-0.2,0.4-0.4,0.5-0.5l0.1-0.1
					c0,0,0.1,0,0.4,0c0.2-0.1,0.5-0.4,0.7-0.6l0.1-0.1l0.3-0.2c0,0.8-0.3,1.5-0.5,2.2c0.1,0.1,0.3,0.2,0.4,0.3
					c0,0.1-0.1,0.3-0.2,0.5c-0.1,0.1-0.3,0.1-0.5,0.2c0,0,0,0.1-0.1,0.3c-0.1,0.1-0.2,0.3-0.2,0.4l-0.1,0.2l-0.1,0l0-0.1
					c-0.1,0.1-0.3,0.2-0.4,0.2c-0.1,1.4-0.1,1.4-0.1,1.5l-0.1,0.4l0,0.1l0.1,0c0.1,0.2,0.3,0.5,0.5,0.7l0,0.2l0.1-0.1
					c0.1,0.3,0.1,0.7,0,1c0.1,0,0.3-0.1,0.5-0.1l0.2-0.1l0-0.1l0.1,0l0.2-0.2l-0.1,0l0.1-0.1l0.1,0l0.1-0.1c0.2-0.1,0.4-0.3,0.6-0.5
					c0.4,0.3,0.5,0.8,0.9,1.2l0.1,0.1l0,0.1l0,0.1l0,0.1l0.1,0c0,0,0.1,0.1,0.1,0.1c0.1-0.1,0.3-0.2,0.4-0.2l0.4-0.3l0.1-0.1l0.2,0
					c0,0,0.1,0,0.5-0.2c2.2-1.6,2.3-1.5,3-1.1c-0.1,0.1-0.2,0.3-0.2,0.4c0,0,0,0.1,0,0.1l0,0.2l0.4,0.1l0.1,0c0.6-0.2,0.7-0.5,0.8-1
					l0.1-0.1l0-0.1l0.2-0.1l0.1,0c0.4,0,0.7-0.4,0.8-1.2l0,0c0,0,0,0,0,0c0,0,0,0,0,0c0,0,0,0,0,0c0,0,0,0,0,0c0,0,0,0,0,0
					c0,0,0,0,0,0c0,0,0,0,0-0.4c0-0.3-0.1-0.7,0-1l0-0.1c0-0.2,0.1-0.6,0.1-0.8c0.6-1.7,0.6-1.7,1-2.1c0.1,0.1,0.3,0.2,0.4,0.2
					l0.1,0.1l0.1,0l0.3,0.5l0.1,0.1c0.1,0.1,0.3,0.2,0.5,0.3C116,50,116,50,116.2,49v-0.1c0,0,0,0,0-0.1c0,0,0,0,0-0.1v-0.1
					c0,0,0,0,0-0.1c0,0,0,0,0-0.1c0,0,0,0,0.1-0.4c0-0.2,0-0.4,0-0.5c-0.1,0-0.3,0.1-0.5,0.1c-0.1-0.3-0.2-0.6-0.4-0.9l0.1-0.1
					c0,0,0.1-0.1,0.1-0.2c-0.1,0-0.1-0.1-0.2-0.1c0-0.1,0-0.1,0-0.2c0,0,0,0,0,0c0,0,0,0,0,0c0,0,0,0,0,0c0,0,0,0,0,0c0,0,0,0,0,0
					c0,0,0,0,0,0c0,0,0,0,0,0c0,0,0,0,0-0.2c0-0.1,0-0.1,0-0.2l0.1-0.1l0-0.1c0.3-0.2,0.3-0.2,0.6-0.3l0-0.1c0.2-0.1,0.3-0.1,0.5,0
					l0,0.1c0,0,0.1,0,0.1,0c0.1-0.1,0.1-0.1,0.6-0.4c0.1,0.1,0.1,0.1,0.5,0.3l0.1,0l0,0l0.1,0c0.4,0.1,0.6,0,0.7-0.1
					c0-0.1,0-0.3,0-0.4l0-0.1c0.2,0,0.4,0,0.7-0.3l0,0c0,0,0.1-0.1,0.2-0.1c0.1,0,0.3,0.1,0.4,0.1c0,0,0,0,0,0c0,0,0,0,0,0
					c0,0,0,0,0,0c0,0,0,0,0,0c0,0,0,0,0,0c0,0,0,0,0,0c0,0,0,0,0,0c0,0,0,0,0.1,0c0,0,0.1-0.1,0.2-0.1c0,0,0,0,0,0c0,0,0,0,0,0
					c0,0,0,0,0,0c0,0,0,0,0,0c0,0,0,0,0,0c0,0,0,0,0,0c0,0,0,0,0,0c0,0,0,0,0.1-0.1l-0.2-0.2c-0.4-0.2-0.8-0.2-1.1-0.6
					c0,0-0.1,0-0.1,0c-0.1-0.5-0.1-0.5,0.1-0.8c0,0-0.1,0-0.2,0c-0.1,0-0.1,0.1-0.2,0.1c-0.1,0.1-0.2,0.3-0.3,0.4
					c-0.1,0-0.1-0.1-0.2-0.1l-0.1-0.1c-0.1,0-0.2,0-0.2,0c-0.1,0.1-0.5,0.5-1,0.5l-0.2,0.1h0c0,0,0,0,0,0h0c0,0,0,0,0,0
					c0,0,0,0-0.1,0.1l-0.1,0.1l0,0.1l-0.1,0l-0.2,0c-0.1,0.1-0.2,0.2-0.2,0.3c0,0-0.1-0.1-0.1-0.1l-0.1,0c0,0-0.1,0-0.2,0
					c-0.3,0.1-0.3,0.1-0.5,0.4c0,0-0.1-0.1-0.2-0.1c-0.1-0.4-0.1-0.4-0.2-0.5l0,0.1c-0.1,0.1-0.2,0.2-0.3,0.2c0-0.2,0-0.4,0-0.6
					l-0.1-0.2l-0.1-0.1l0-0.1l-0.1,0c-0.9-0.6-0.3-2.1-0.3-2.1c0.1-0.9-0.2-1.8-0.2-2.8l0-0.1c0.1-0.3,0.1-0.4,0.4-0.5
					c0.1-0.2,0.1-0.5,0.3-0.7c0.3,0,0.4-0.1,0.7-0.9l0-0.1c0.7-1.5,0.7-1.5,0.8-2c0-0.1,0.1-0.1,0.1-0.2c0.1,0,0.1,0,0.2,0
					c0,0,0,0,0.1,0c0-0.1,0.1-0.3,0.1-0.4l0-0.1l0-0.1l0-0.1l0-0.1l0-0.1c0,0,0-1-0.5-1.1l0-0.1l0,0l0-0.1l0,0l0-0.1
					c0,0-0.1,0-0.3,0.1c-0.1,0-0.1,0-0.2,0l-0.1,0c0,0,0,0-0.1,0c-0.1,0-0.2,0.1-0.3,0.1c-0.1,0.2-0.1,0.5-0.3,0.7h0h0h0h0h0h0h0
					c0,0,0,0,0,0c0,0-0.1,0.1-0.1,0.1c0,0,0,0.1,0,0.1l0,0.1l-0.1,0.2l0.1,0.2l0,0.2c-0.2,0.3-0.2,0.3-0.2,1.4l0,0.1l0,0.1
					c-0.2,0.4-0.3,0.9-0.6,1.2c0,0,0,0,0,0c0,0,0,0,0,0c0,0,0,0,0,0c0,0,0,0,0,0c0,0,0,0,0,0c0,0,0,0,0,0c0,0,0,0,0,0c0,0,0,0,0,0
					c0,0-0.1,0.1-0.1,0.2c0,0,0,0.1-0.1,0.2l-0.2,0c-0.2,0.2-0.5,0.4-0.7,0.6l0,0.1l0,0.1l-0.1,0.1l-0.1,0.1l-0.1,0.1l0,0.1
					c-0.1,0.4-0.1,0.4-0.2,0.6c-0.1,0-0.1,0-0.2,0c0,0-0.1,0-0.1,0c0,0.5-0.1,0.6-0.2,0.7c-0.1,0-0.1,0-0.2,0c0,0.3,0,0.3-0.1,0.8
					l0,0.1c0,0.2,0.1,0.5,0,0.7l-0.2,0.1l-0.1-0.1l-0.1-0.1l-0.1,0c0,0.6,0,1.3-0.1,1.9l0.1,0c0,0,0,0,0,0c0,0,0,0,0,0c0,0,0,0,0,0
					c0,0,0,0,0,0l0,0c0,0,0,0,0,0l0,0c0,0,0,0,0,0.1c0.1,0.4,0.1,0.4-0.7,1.1c0.1,0,0.3-0.1,0.4-0.2c0.1-0.1,0.2-0.3,0.2-0.4
					l0.1-0.1c0.1,0,0.1-0.1,0.2-0.2c0,0,0.1,0.1,0.2,0.1l0,0l0.1,0c0.6,1.5,0.5,1.7,0.3,1.9l-0.1,0.1c-0.3,0.4-0.3,0.4-0.5,0.4
					c0,0-0.1-0.1-0.1-0.1l-0.1,0c-0.1,0-0.2-0.1-0.2-0.2c-0.1,0-0.3,0.1-0.4,0.1c0,0,0,0,0,0c0,0,0,0,0,0c0,0,0,0,0,0c0,0,0,0,0,0
					c0,0,0,0,0,0c0,0,0,0,0,0c0,0,0,0,0,0c0,0,0,0,0,0c0,0-0.1,0.1-0.1,0.1c0,0,0.1,0.1,0.2,0.1c0.1,0,0.3-0.1,0.4-0.1
					c0.1,0.1,0.2,0.2,0.2,0.4c0.5,0,0.5,0,0.7,0.2c0,0.1-0.1,0.1-0.1,0.2c-0.1,0.3-0.1,0.3-0.4,0.5c0,0-0.1-0.1-0.2-0.1
					c0,0,0-0.1,0-0.2c-0.3,0.4-0.4,0.6-0.5,0.7c0,0,0,0,0,0c-0.1,0.1-0.2,0.1-0.2,0c0.1,0,0.2,0,0.2,0c-0.1,0-0.2,0-0.4-0.1
					c-0.1,0-0.1,0-0.2,0c0,0,0,0.1,0,0.1c0,0,0,0,0.1,0l0.1,0.1l0.1,0.1c0,0.1,0,0.1,0,0.2c0,0-0.1,0-0.1,0c0,0,0,0,0,0
					c0.1,0,0.1,0.1,0.1,0.1c0,0.1-0.1,0.2-0.1,0.3c0,0.1,0.1,0.1,0.1,0.2c0,0,0,0,0,0.1c0,0,0,0.1-0.2,0.3c-0.1,0.1-0.1,0.1-0.1,0.6
					l0,0.1l0,0.1c-0.1,0.3-0.3,0.5-0.4,0.9c-0.1,0.4-0.1,0.7-0.2,1.1c0,0-0.2,0.4-0.2,0.4c-0.4,0.8-0.4,0.8-0.7,0.7c0,0-0.1,0-0.1,0
					l0,0c-0.1,0-0.1,0-0.2,0c-0.2,0.1-0.4,0.2-0.5,0.4c-0.1,0.2,0,0.5-0.2,0.8c-0.1,0.3-0.1,0.3-0.3,0.3l-0.1,0.1l-0.1,0l0,0
					c0,0,0,0,0,0l0,0c0,0,0,0,0,0c0,0,0,0,0,0l0,0c0,0,0,0,0,0c0,0,0,0,0,0c-0.2,0-0.2,0-0.5,0.1c-0.1,0-0.1,0-0.2,0c0,0,0,0,0,0
					c0.2-0.3,0.2-0.3,0.1-0.4c-0.1,0-0.3,0-0.4,0.8c-0.1,0.6-0.4,0.5-0.6,0.4l0-0.1l0-0.1l0-0.1c-0.1-0.1,0-0.3-0.1-0.4l0-0.1
					c-0.1,0-0.3-0.2-0.3-0.2l0-0.2c0-0.1-0.1-0.2,0-0.3c0.2,0,0.2,0,0.3-0.1l0-0.1c0-0.1,0.1-0.1,0.1-0.2c0,0,0.5-0.1,0.6-0.2
					c0.1-0.2,0.1-0.2,0.4-0.3c0.2-0.1-0.1-0.3,0-0.5c0.1-0.1,0.1-0.1,0.3-0.1c0.2-0.5,0.2-0.5,0.2-0.5c-0.1-0.1-0.2-0.3-0.4-0.5
					l0-0.1c0,0,0-0.1,0-0.2c0-0.2,0.1-0.3,0.1-0.5c0-0.2-0.1-0.2-0.1-0.4c0.1-0.3,0.1-0.6,0.1-0.9c-0.1,0.2-0.1,0.2-0.2,0.2
					c-0.1-0.1,0-0.2,0-0.4c-0.2-0.2-0.1-0.6-0.2-0.8l-0.1-0.1c0.1-0.3,0.1-0.5,0.2-0.8c0,0,0,0,0,0c0-0.1,0-0.1,0.1-0.1c0,0,0,0,0,0
					c0-0.1,0-0.3,0-0.4l0-0.1c0-0.1,0-0.2,0-0.3l0-0.1c-0.1-0.3,0.1-0.6-0.1-0.9c-0.4,0.3-0.2,0.8-0.4,1.1c0,0.1-0.2,0.2-0.2,0.2
					c-0.1-0.1-0.2-0.1-0.3-0.1c-0.2,0.2-0.2,0.2-0.4,0.7c0,0,0,0-0.1,0c0,0,0,0,0,0c0,0,0,0,0.1,0c-0.1,0.1-0.1,0.2-0.2,0.3
					c0,0.1,0,0.1-0.1,0.2c-0.1,0.3-0.5,0.7-0.5,0.7c-0.1,0.1-0.1,0.1-0.2-0.1l-0.1-0.2c-0.2,0.1-0.2,0.1-0.3,0.2
					c0,0-0.1,0.1-0.1,0.1c0,0-0.2,0.1-0.3,0.1c-0.1,0-0.1,0-0.1-0.1c0-0.1,0-0.1,0-0.1c-0.1,0-0.2,0.1-0.2,0.1c0,0-0.1,0,0-0.2
					c0-0.1,0.1-0.2,0.1-0.4c-0.2,0.1-0.2,0.1-0.2,0.2c-0.1,0.1-0.1,0.1-0.1,0.1c0,0,0-0.1,0-0.1c0-0.1,0-0.1,0-0.1
					c0-0.1-0.1-0.1-0.1-0.2c-0.1-0.1,0-0.3-0.1-0.5c0-0.1,0-0.1,0-0.2l0-0.1c0-0.6,1-0.7,0.7-1.4c-0.1,0-0.3,0.1-0.4,0.1
					c-0.1,0-0.2-0.1-0.3-0.1c0-0.1,0.1-0.3,0.2-0.4c0.6-0.2,0.6-0.2,0.7-0.2l0.1-0.1l0.1-0.2l-0.1,0c0,0-0.1-0.1-0.1-0.1
					c0.2-0.6,0.5-0.8,1.1-1.3c0-0.1,0-0.1,0-0.2c0,0,0,0,0,0l0,0l0,0l0,0c0,0,0,0,0,0l0,0l0,0c0,0,0,0-0.1,0
					c-0.8,0.1-0.5,1.3-1.4,1.4l0.1-0.1c0.1-0.2,0.3-0.2,0.4-0.4c-0.1-0.1-0.2-0.2-0.3-0.2c0-0.1,0-0.1,0-0.2
					c0.1-0.1,0.2-0.3,0.3-0.5c0.1,0,0.1,0,0.2,0c0,0,0.1-0.1,0.1-0.1c-0.1,0-0.1,0-0.2,0c0-0.1-0.1-0.1-0.1-0.2
					c0.1-0.2,0.1-0.5,0.2-0.8c0.1,0,0.3-0.1,0.5,0l0,0.1c0,0,0.1,0,0.2,0c0.1,0,0.2,0.1,0.3,0.2c0.1,0,0.1,0,0.2,0
					c0-0.1,0-0.1,0-0.2c0.4-0.4,0.4-0.4,0.4-0.5c0,0-0.1-0.1-0.1-0.1c-0.1,0.1-0.2,0.2-0.3,0.3c-0.1,0-0.1,0-0.2,0
					c0-0.1-0.1-0.1-0.1-0.2c0,0-0.1,0.1-0.1,0.2l-0.1,0c-0.5,0.1-0.5,0.1-0.5,0.2c-0.1,0-0.1-0.1-0.2-0.1l0-0.2
					c0-0.1,0.1-0.3,0.1-0.4l0.1-0.1c0.1-0.2,0.1-0.4,0.2-0.5l0.1-0.2l0.1,0.1l0.1,0c0.1,0,0.1,0,0.2,0c-0.2-0.3-0.2-0.3-0.2-0.6
					c0.1,0,0.1-0.1,0.2-0.1c0.1,0.1,0.2,0.1,0.3,0.2c0.1-0.4,0.1-0.4,0.3-0.5l0.1,0c0.1-0.1,0.2-0.2,0.2-0.3
					c0.1-0.1,0.1-0.2,0.2-0.2c0.2,0.1,0.3,0.2,0.5,0.2c0.2-0.2,0.2-0.2-0.1-0.8c0-0.1,0.1-0.1,0.1-0.2c0.1,0,0.3,0,0.4,0
					c0-0.1,0.1-0.2,0.2-0.3c0.5-0.1,0.6-0.6,1-0.9c0,0,0.1,0.1,0.1,0.2c0,0.1,0,0.2,0,0.3c0.1-0.1,0.1-0.2,0.2-0.3l0-0.2
					c0.1-0.1,0.2-0.1,0.3-0.2c0.1,0.4,0.1,0.4,0.2,0.5c0.1-0.1,0.2-0.2,0.3-0.3c-0.1-0.1-0.2-0.2-0.3-0.3c0-0.1,0-0.3-0.1-0.3
					c0-0.1,0-0.1,0.1-0.2c0.5-0.2,0.6-0.9,1-1.2c0.1,0,0.1,0,0.2,0c0.1-0.2,0.4-0.4,0.4-0.6c-0.1,0-0.1,0-0.2,0l0-0.1l0.1,0
					c0.3-0.4,0.3-0.4,0.5-0.4c0.1-0.1,0.2-0.2,0.2-0.3l0.1-0.2l0.1,0l0.1,0c0.1-0.6,0.2-0.8,0.6-1.2c0-0.1,0-0.1,0-0.2
					c-0.1,0-0.3,0.1-0.4,0.1c0.2-0.4,0.4-0.4,0.6-0.5c0-0.1,0.1-0.2,0.2-0.3c0-0.1,0-0.1-0.1-0.2c0,0,0-0.1,0-0.1
					c0.7-0.5,0.7-1.3,1.1-1.9l0-0.1c0.1-0.1,0.2-0.2,0.2-0.2c0,0,0.1,0.1,0.1,0.2c0.1,0,0.1-0.1,0.2-0.1c0,0-0.1-0.1-0.2-0.1
					c0,0,0,0,0,0c0,0,0,0,0,0c0,0,0,0,0,0c0,0,0,0,0,0c0,0,0,0,0,0c0,0,0,0,0,0s0,0,0,0c0,0,0,0,0,0c0.1-0.3,0.2-0.7,0.4-1
					c0.1,0,0.1,0,0.2,0c0,0.1,0,0.2,0,0.2c0,0,0,0,0,0c0,0,0,0,0,0c0,0,0,0,0,0c0,0,0,0,0,0c0,0,0,0,0,0c0,0,0,0,0,0s0,0,0,0
					c0,0,0,0,0.1-0.1c0.1-0.2,0.1-0.4,0.1-0.6c0,0,0-0.1,0-0.1c0,0,0.1-0.1,0.1-0.2c0,0,0.1,0.1,0.1,0.1c0.1,0,0.1,0,0.2-0.1
					c0-0.1,0-0.1,0-0.2c-0.1-0.1-0.2-0.2-0.3-0.2c0.2-0.3,0.5-0.5,0.6-0.9l0-0.1c0.3-0.2,0.2-0.6,0.4-0.8c0,0,0.1,0.1,0.1,0.1
					c0-0.1,0-0.3,0.1-0.4c0.1,0.4,0.1,0.4,0.2,0.6l0-0.1c0-0.3-0.1-0.6-0.1-0.8c0.1,0,0.1,0,0.2,0c0,0.1,0,0.1,0,0.2
					c0.1-0.4,0.1-0.4,0.2-0.5c0,0.3,0,0.6-0.1,0.9c0.1-0.3,0-0.7,0.3-0.9c0,0.1,0,0.1,0,0.2c0-0.1,0-0.1,0-0.2c0.1,0,0.1,0,0.2-0.1
					c0,0.1,0.1,0.1,0.1,0.2c0-0.1,0-0.3,0-0.4c-0.1-0.4-0.1-0.4,0-0.6c0,0.1,0.1,0.2,0.1,0.3l0,0c0.1,0.1,0.2,0.1,0.3,0.2
					c0-0.3,0-0.3,0.2-0.5l0,0c0.2-0.3-0.1-0.7,0.2-1l0,0.1c0.1,0.4,0.1,0.4,0,0.6c-0.1,0.4,0,0.9,0,1l0-0.1c0.1-0.3,0.1-0.4,0.2-1.5
					c0.1,0.3,0,0.7,0.2,0.9c0,0,0-0.9,0.1-1.3c0.4,0.4,0.1,0.9,0.3,1.4l0,0c0-0.1,0.1-0.2,0.1-0.4l0-0.1c0-0.1,0-0.3,0-0.4l0-0.1
					c0,0,0.1,0,0.1,0c0.1,0.4,0.4,0.5,0.4,0.6l0,0l0.1,0.2l0,0.1c0.1,0.3,0,0.4-0.1,0.6c-0.1,0-0.3,0-0.4-0.1
					c0.2,0.3,0.3,0.6,0.5,0.9c0.2-0.2,0.2-0.2,0.5-0.2c0.1,0,0.1-0.1,0.2-0.2c0.1,0.1,0.2,0.2,0.3,0.3c0,0.1-0.1,0.1-0.1,0.2
					c-0.1,0-0.1,0-0.2-0.1c0,0.3,0.4,0.5,0.5,0.8c1.5-0.1,1.8,1.4,2.8,2.1c0,0,3.7,3.3,1.3,4.7c-2.5-1.4-2.5-1.4-2.6-1.5
					c-0.1,0-0.3,0-0.4-0.1c-0.1-0.2-0.2-0.4-0.3-0.5c-0.1,0-0.1,0-0.2,0c0.4,1.3,3.4,2.5,1.8,3.7c0,0,0.4,2.1,1.2,2.2
					c0.3,0.5,1.1,1.1,1.2,1.1c0.1-0.1,0.1-0.1,0.5-0.3c-0.2-0.9-0.4-0.9-0.7-0.9c-0.9-1.1-0.9-1.1-0.8-1.6c0.1,0,0.1,0,0.2,0
					c0.2,0.2,0.6,0.7,0.8,1.1c0-0.1,0.1-0.3,0.2-0.4c1,0.5,1,0.5,1.3,0.5c-0.3-0.8-1.1-1.3-1.3-2.2c-0.1-0.7,0.4-1.2,0.5-1.8
					c0.1,0,0.1-0.1,0.2-0.1c0.6,0.3,0.6,0.3,0.8,0.8c0.1,0,0.3,0.1,0.4,0.1c-1.4-2.7-1.4-2.7-3.1-5.6c0,0,0.1,0,0.1,0
					c0.8,0.4,1.9,0.8,2,1.7c-0.1,0.1-0.2,0.2-0.3,0.2c0,0.1,0,0.3,0,0.4c0,0.1,1.1,1.6,1.7,1.5c0.5-0.7-0.5-1.2-0.4-1.8
					c0,0,0.1-0.1,0.2-0.1c-0.2-0.3,0.1-1.7,0.1-1.7v0c0.1,0,0.2,0.1,0.3,0.1c-0.1-0.2-0.3-0.4-0.4-0.6c0.1,0.1,0.2,0.1,0.2,0.2
					c-0.1-0.2-0.1-0.4-0.1-0.6c1.3,1.3,1.3,1.3,1.6,1.4c-0.5-0.7-0.5-0.7-0.4-1c0.2,0.1,0.4,0.1,0.6,0c-0.2-0.3-0.2-0.4-0.2-0.8
					c0.5,0.4,0.7,1.1,1.5,1.1c-0.8-1-2-1.7-2.6-2.9c1.8,0.6,1.8,0.6,5.8,2.6h0h0l0,0h0l0,0h0l0,0c0,0,0,0,0,0
					c-3.7-3.5-8.4-5.4-12.6-8.1c0,0,3.4,1.7,7.1,3.7c-2.2-1.3-4.3-2.8-6.6-3.8c2.3,0.8,4.4,2,6.8,2.7c-0.2-0.1-0.4-0.2-0.6-0.3
					c-0.9-0.4-1.9-0.6-2.8-1.1c0.3,0.1,0.6,0.2,0.9,0.3c-0.7-0.4-1.4-0.6-2-1c0.9,0.2,1.6,0.8,2.6,0.8l0,0l0,0l0,0l0,0l0,0l0,0
					c0,0,0,0,0.2,0.1c1.9,0.8,3.5,2.4,5.7,2.6c-7.4-3.7-13.4-5.2-15-5.6c0.1,0,0.1,0,0.2,0c0,0,0,0,0,0c0,0,0,0,0,0
					c0.2,0,0.5,0,0.8,0.1c1.6,0.2,2.7,0.3,3.4,0.4c-0.8-0.1-1.7-0.2-2.5-0.3c1.1,0.1,2.2,0.2,3.3,0.3c0.1,0,0.1,0,0.2,0
					c0.1,0,0.1,0,0.2,0.1c0.1,0,0.2,0,0.3,0c0,0,0.1,0,0.1,0c0,0,0,0,0,0c-0.1,0-0.2,0-0.3,0c-1.2-0.2-3-0.3-4.4-0.4
					c0.1,0,0.2,0,0.3,0c-0.2,0-0.5,0-0.6,0c0,0-0.1,0-0.1,0c0.7,0,1.5,0.1,2.2,0.1c-0.1,0-0.2,0-0.3,0c1.8,0.1,3.6,0.2,5.4,0.5
					c1,0.1,2,0.2,3,0.4c1.8,0.2,3.6,0.5,5.4,0.6c-1.8-0.3-3.7-0.5-5.5-0.9c2,0.2,2,0.2,2.4,0.2c-0.2,0-0.5-0.1-0.8-0.2
					c2,0.1,2,0.1,2.2,0.1c-1.2-0.2-1.2-0.2-3.4-0.4c0,0,0,0,0,0c-0.7-0.1-1.3-0.1-2-0.2c-0.1,0-0.2,0-0.3,0c0.1,0,0.2,0,0.3,0
					c0,0,0,0,0,0c-1.2-0.1-1.2-0.1-1.5-0.1c0.1,0,0.2,0,0.3,0l0,0c0,0,0,0,0,0l0,0l0,0c0,0,0,0,0,0l0,0l0,0c0,0,0,0,0,0
					c-0.6,0-1.2-0.1-1.8-0.1c3.2,0,6.3,0.2,9.5,0.1c-0.3,0-0.3,0-1.2-0.4l0,0c0,0,0,0,0,0l0,0l0,0c0,0,0,0,0,0l0,0l0,0c0,0,0,0,0,0
					c0.6,0,1.6,0,6.4,0.4c-1.2-0.2-1.2-0.2-1.6-0.4c0.2,0,0.5,0,0.7,0c-0.1-0.1-0.4-0.2-0.5-0.2l-0.1,0c9.8,0.9,19.1,3.5,27.5,7.6
					c0,0,0.9,0.4,1.6,0.8c-0.9-0.5-1-0.5-1.4-0.7c1.2,0.6,1.5,0.7,1.7,0.9c-0.1,0-0.2-0.1-0.3-0.1l0,0l0,0l0,0l0,0l0,0h0
					c0,0,0,0,0.2,0.1c1.1,0.7,2.2,1.2,3.3,1.8c0.7,0.4,1.4,0.8,2.1,1.2c-0.2-0.1-0.3-0.2-0.5-0.3c0.4,0.2,0.4,0.2,2.5,1.5
					c0,0,0,0-0.1,0c0.1,0,0.2,0.1,0.2,0.1c0.1,0.1,0.8,0.5,1.4,0.9c-0.4-0.2-0.7-0.5-1.1-0.7c2.1,1.3,2.8,1.8,4.3,2.9c0,0,0,0-0.1,0
					c1.7,1.2,2.8,2.1,3.4,2.5l0,0c0.1,0.1,0.3,0.2,0.4,0.3c0.1,0.1,0.2,0.1,0.3,0.2c1.9,1.5,3.2,2.6,3.7,3.1l-0.1-0.1
					c-3.5-3-6.5-5-6.8-5.2c-0.2-0.1-0.3-0.2-0.5-0.3l-0.1,0c0,0,0,0-0.1,0c0,0,0,0-0.1,0c0,0,0,0-0.1,0c0,0,0,0-0.1,0c0,0,0,0-0.1,0
					c0,0,0,0-0.1,0c0,0,0,0-0.1,0c-0.2-0.2-0.5-0.3-0.7-0.5c0,0,0,0,0,0c0,0,0,0,0,0c0,0,0,0,0,0c0,0,0,0,0,0c0,0,0,0,0,0
					c0,0,0,0,0,0c0,0,0,0,0,0c0,0,0,0,0,0c-0.7-0.5-1.4-0.9-2.1-1.4c-1-0.6-1-0.6-1.3-0.8l-0.1,0c-0.1-0.1-0.3-0.2-0.4-0.3l-0.3-0.2
					c0,0,0.1,0,0.1,0c0,0-0.1,0-0.1-0.1l-0.1,0l0,0c-0.2-0.1-0.4-0.3-0.6-0.4l-0.1-0.1c-0.3-0.2-1.1-0.7-1.9-1.1
					c-0.1-0.1-0.2-0.1-0.3-0.2c0.1,0,0.1,0.1,0.2,0.1c-0.3-0.2-0.6-0.3-0.8-0.5c-0.4-0.2-0.8-0.4-1.2-0.7c-0.4-0.2-0.8-0.5-1.2-0.7
					c-0.6-0.3-0.7-0.4-1-0.5c-0.4-0.2-0.8-0.5-1.2-0.7l-0.1-0.1c-0.2-0.1-0.2-0.1-1.4-0.7l-0.1,0c-0.4-0.2-0.7-0.3-1.1-0.5l-0.2-0.1
					c-0.4-0.2-0.9-0.4-1.3-0.6l-0.2-0.1l-0.3-0.1l-0.3-0.1c-0.1,0-0.2-0.1-0.2-0.1c0.1,0,0.2,0.1,0.2,0.1c0.2,0.1,0.2,0.1,0.8,0.3
					c0.5,0.2,1,0.4,1.5,0.6l0.1,0c0.2,0.1,0.4,0.2,0.5,0.2c-0.1,0-0.2-0.1-0.3-0.1c0,0,0,0,0.2,0.1c0.3,0.1,0.5,0.3,0.8,0.4
					c0.3,0.2,0.7,0.3,1,0.5c0.6,0.3,0.9,0.5,1.1,0.6c0.2,0.1,0.4,0.2,0.6,0.3c-0.1,0-0.2-0.1-0.3-0.1l-0.3-0.1
					c-0.4-0.2-0.8-0.4-1.3-0.6l-0.1,0c-0.3-0.2-0.7-0.3-1-0.5l-0.3-0.1l0.2,0.1l0.1,0.1l0.2,0.1l0,0l0.1,0l0,0l0,0
					c-0.1-0.1-0.3-0.1-0.5-0.2l0,0l0,0l0.1,0c0.5,0.3,0.5,0.3,0.7,0.4l0,0l0.1,0c0.9,0.5,1.8,0.9,2.6,1.3l0.2,0.1l0.2,0.1
					c0,0,1.6,0.9,2.3,1.3c0,0,0,0,0,0c0,0,0,0,0,0c0,0,0,0,0,0c0,0,0,0,0,0c0,0,0,0,0,0c0,0,0,0,0,0l0,0c0,0,0,0,0,0
					c0.1,0.1,0.3,0.2,0.5,0.2c0.3,0.2,0.7,0.3,0.9,0.5l0.1,0l0.1,0.1l0.1,0.1l0.1,0l-0.1,0c0.1,0.1,0.2,0.2,0.3,0.2l0.2,0.1
					c0.3,0.2,0.9,0.7,0.9,0.7c-0.4-0.2-0.5-0.2-0.8-0.5c0,0,0,0,0,0c0,0,0,0,0,0c0,0,0,0,0,0c0,0,0,0,0,0c0,0,0,0,0,0c0,0,0,0,0,0
					c0,0,0,0,0,0c0,0,0,0,0,0c-0.1,0-0.2-0.1-0.2-0.1l-0.1-0.1c-0.1,0-0.2-0.1-0.3-0.1c0.1,0.1,0.2,0.1,0.2,0.2l-0.1-0.1l-0.3,0
					l-0.1,0c0,0,0,0,0,0c0,0,1.3,1,1.8,1.5l-0.1-0.1l-0.2,0c0.1,0.1,0.2,0.3,0.2,0.4l0.1,0.1c0.3,0.2,0.3,0.2,1.5,1.1
					c0,0.1,0,0.2,0.1,0.2c0,0,0,0,0.1,0c0-0.1,0-0.1,0-0.2c2.4,1.8,2.4,1.8,4.4,3.4c1.6,1.3,2.7,3.1,4.6,4v0c0,0,0,0,0.1-0.2
					c0,0-0.1-0.1-0.1-0.1c0.6,0.2,1,0.8,1.5,1l-0.1-0.1c-0.2-0.2-0.5-0.4-0.7-0.7c0.2,0.2,0.5,0.4,0.7,0.6l0.1,0.1l0.1,0.1l0.1,0.1
					c0,0,0.1,0.1,0.2,0.2c0.1,0,0.1,0.1,0.2,0.1c-0.2-0.2-0.2-0.2-0.7-0.7c0.2,0.2,0.4,0.3,0.6,0.5c-1.3-1.3-1.3-1.3-1.3-1.3
					c0.5,0.3,1,0.6,1.5,0.8l0.1,0.1c0.1,0.1,0.3,0.2,0.4,0.3l0.2,0.2l0.3,0.2c0.1,0,1.3,0.9,1.6,1.3c5.8,5.4,5.8,5.4,6.9,6.8
					l0.1,0.1l0.1,0.1c1.9,2.2,1.9,2.2,4.1,5.1L198,52l0.1,0.1c0.2,0.4,0.5,0.7,0.7,1.1l0.1,0.1l0.1,0.1l0.1,0.1
					c0.1,0.2,0.3,0.4,0.4,0.6l0.1,0.2l0.1,0.2c0.1,0.2,0.2,0.2,0.3,0.6c0.1,0.2,0.2,0.4,0.3,0.6c0.2,0.4,0.2,0.4,0.2,0.6
					c-0.1,0-0.2,0-0.2,0c-0.1-0.1-0.2-0.3-0.3-0.4c0,0-0.1,0-0.1-0.1c0.1,0.2,0.1,0.2,0.4,0.6c0.1,0.2,0.2,0.4,0.3,0.6
					c0,0,0.8,1.6,1.2,2.1c0,0,0.1,0.1,0.2,0.3c0.1,0.1,0.2,0.3,0.2,0.4l0.1,0.1c0.6,1,0.8,1.4,1,2.1l0.1,0.2
					c0.1,0.3,0.2,0.9,0.9,1.5l0.1,0c0.1,0.1,0.3,0.2,0.4,0.2c0.1,0.1,0.3,0.3,0.4,0.5l0.1,0.1c0.2,0.3,0.5,0.6,0.7,0.9
					c0.5,0.5,0.5,0.7,1.2,1.6c0.1,0.1,1,1.7,1,1.8l0,0.1L208,69c0,0.1,0.1,0.2,0.1,0.2l0,0.1c0,0.1,0,0.2,0,0.3l0.1,0.1l0,0.2
					l0.1,0.3l0.1,0.1l0,0l0,0c0.1,0.3,0.1,0.7,0.3,1.1l0.1,0.2c0,0.1,0.1,0.3,0.1,0.4c-0.1-0.2-0.1-0.2-0.7-1.5
					c-0.2-0.4-0.4-0.8-0.6-1.2c0-0.1-0.1-0.1-0.1-0.2l0-0.1c-0.2-0.3-0.5-0.6-0.7-0.9c-0.1-0.2-0.1-0.2-0.4-0.6c0-0.2,0-0.2-0.6-1.1
					l-0.2-0.2l-0.1,0l-0.1-0.1l0,0l-0.1,0c0.1,0.2,0.2,0.4,0.2,0.6c0-0.1-0.1-0.1-0.1-0.2l-0.1-0.2l-0.1,0c-0.2-0.1-0.2-0.1-0.7-1.1
					c-0.4-0.9-0.4-1-1.5-1.8c0,0,0.4,2,0.5,2.4l0,0v0l0,0l0,0v0l0,0l0,0c0,0,0,0,0,0c0,0-0.1,0.1,0.1,0.5c0,0,0,0,0,0
					c-0.1,0-0.4-0.5-0.4-0.5c-0.1-0.5-0.1-0.5-0.1-0.5c0-0.1-0.1-0.1-0.1-0.1c-0.1-0.1-0.1-0.1-0.2-0.1c-0.2-0.2-0.2-0.2-0.2-0.3
					c0,0,0-0.1,0-0.1c0-0.2-0.1-0.3-0.2-0.6l0,0c0.4,0.6,0.8,1.2,1.2,1.8c-0.4-0.6-0.8-1.2-1.3-1.9c-0.2-0.4-0.2-0.4-0.4-0.8
					c-0.3-0.3-0.3-0.3-0.5-0.6l0,0c0.2,0.4,0.2,0.8,0.4,1.1c0.2,0.6,0.3,1.2,0.5,1.7l0.1,0.4c0.2,0.7,0.2,0.7,0.1,1.1l0,0l-0.1-0.1
					c0.4,1,0.6,1.1,1,1.4l0.1,0.1l0.1,0.1c0.2,0.1,0.5,0.3,0.6,0.5c0.2,0.2,0.4,0.5,0.6,0.8l0,0c0-0.1,0.1-0.1,0.1-0.2
					c-0.2-0.7-0.2-0.7-0.1-1.2c0.1,0,0.3,0.1,0.4,0.1c0-0.1-0.1-0.2-0.1-0.2l0-0.1c0,0,0,0,0,0c0,0,0,0,0,0c0.3,0.2,0.3,0.2,0.3,0.2
					c0,0,0.3,0.6,0.3,0.6c0,0,0,0,0,0.1l-0.1,0c0,0.1,0,0.1,0,0.1c0,0,0,0-0.1,0c0,0,0,0.1,0,0.1c-0.2-0.3-0.3-0.5-0.5-0.8
					c0.2,0.3,0.3,0.5,0.5,1.1l0.1,0.4l0,0l-0.1,0.2l0.1,0.2c0.1,0.2,0.1,0.4,0.2,0.6c0.4,1.1,0.6,1.7,0.7,1.9l0.1,0.2l0.3,0.5
					l0.4,0.2l0,0l0.1,0c0.6,0.8,1,1.7,1.7,2.4c0.2,0.1,0.3,0.3,0.4,0.4l0,0v0c0,0,0,0,0,0c0.1,0,0.1,0.2,0.2,0.3
					c0,0.1,0.1,0.2,0.1,0.3l0.1,0.2l0,0.2c0,0,0,0,0-0.1c-0.1-0.3-0.3-0.5-0.4-0.8c0.1,0.3,0.3,0.5,0.2,0.8l0,0l0,0
					c-0.1,0-0.3-0.1-0.4-0.2l0.1,0.2c0.4,0.2,0.6,0.6,0.9,0.9c0.1,0,0.1,0.1,0.2,0.2l0,0c0,0,0,0,0,0.3c0,0.6,0,0.7,0.2,1.3l0,0
					c0,0,0,0,0,0l0,0c0,0,0,0,0,0c0,0,0,0,0,0s0,0,0,0c0,0,0,0,0,0l0,0c0.1,0,0.2,0,0.3,0c0.1,0.1,0.2,0.3,0.2,0.4l0-0.1v0
					c0,0,0,0,0.1,0.1c0,0,0,0.1,0.1,0.2c0,0,0-0.1,0-0.1c0,0.1,0.1,0.2,0.1,0.3c0,0,0,0,0,0.1c0,0,0,0.1,0.1,0.1
					c0-0.1-0.1-0.1-0.1-0.2c0,0.1,0.1,0.1,0.1,0.3c0,0.7,0.4,1.2,0.5,1.8l0,0.1c0.1,0.5,0.3,0.9,0.4,1.4l0,0.3
					c0,0.4,0.1,0.7,0.2,1.1l-0.1-0.2l-0.1-0.1l0,0l0,0v0l0,0v0l0,0l0,0c0,0,0,0,0.1,0.4c0.3,0.5,0.3,0.5,0.6,1.6l0,0.1l0.1,0.4
					l0,0.1l0.1,0.2c0,0,1,4.2-0.5,6.1c-0.1-0.1-0.2-0.2-0.2-0.3c0.1,0.3,0.2,0.6,0.2,0.9c-0.1-0.1-0.2-0.2-0.4-0.3
					c0.2,0.4,0.3,0.6,0,1.3l-0.1,0c-0.5,1-0.2,2.1-0.4,3.1c-0.8-1.4-0.8-1.4-0.9-1.5c-2.3,0.8-0.5,5.1,0.2,7c0,0,0,0,0,0
					c0,0,0,0,0,0c0,0.1,0,0.1,1.9,2.6c0.5,0.8,1,4,1,4c0.3,1.7,0.1,2.3-0.3,3c-0.2,0.4-0.3,0.6-0.3,1c-0.1,0.1-0.3,0.3-0.3,0.7
					c0,0.3-0.5,2.6-0.8,3c0,0-0.1-2-0.2-2.5c0,0-0.1,0-0.1,0c-0.2-0.1-0.2-0.1-0.8-0.1c-0.1-0.7-0.1-0.7-0.1-0.8
					c-0.1,0.1-0.1,0.2-0.2,0.3c-0.4-1.9-0.9-1.9-1.7-1.9c-0.2-0.3-0.2-0.7-0.3-1.1l-0.1,0c-0.1,0.1-0.2,0.2-0.4,0.2
					c0.4,2-0.3,4,0.2,6c0.1,0.5,0.6,0.8,0.8,1.3c0.2,0.6,0.2,1.2,0.4,1.7c0,0.1,0.1,0.2,0.1,0.3c0.2,0.3,0.2,0.3,0.7,0.1
					c0.1,0,0.1,0,0.3,0.5c0,0,0.1,0,0.1,0c1.3,2,1.4,6.2,1.5,6.7c-0.1,0-1.1,0.4-1.8-1.6c-0.6-1.7-1-3.5-1.6-5.3
					c-0.2-0.5-0.8-1-1-1.5c-0.1-0.2-0.1-0.4-0.1-0.5c-0.3-1.5,0.3-2.9,0-4.4c-0.1,0-0.2,0-0.3,0c-1.5-6.8-1.5-6.8-2.8-8
					c0.4,1.7,0.1,2.3-1,3l-0.5-0.6c0.1-0.7,0.1-0.8-0.2-1.6c0,0,0-0.1,0-0.1c0-0.1-0.1-0.2-0.1-0.2c0,0,0,0,0.1,0
					c-0.1-0.1-0.1-0.1-0.1-0.2c0,0,0,0,0,0c-0.6-2.1-0.6-2.1-4.8-6.7c0.3,0.9,0.3,0.9,0.3,1.6c-0.1,0-0.3,0.1-0.5,0.1
					c0,0.1-0.1,0.3-0.1,0.5c-0.5,0.1-0.5,0.1-1.2,0.6c-0.1-0.2-0.2-0.5-0.3-0.8c-0.7,2.8-0.7,2.8-0.5,3.4c-1,1.8-1.6,2.9-2.6,5.1
					C193.2,112.4,193.1,112.6,192.9,112.9z M219.2,137.9c0,0.1-0.1,0.2-0.1,0.3c0,0,0,0,0,0c0,0,0,0,0,0c0,0,0,0,0,0
					c0,0,0-0.1,0-0.1c0,0,0,0-0.1,0.1c-0.2,0.2-0.2,0.1-0.2,0.1c0-0.2,0-0.3,0.3-1c0,0,0,0,0-0.1c0,0,0,0.1,0,0.1c0,0,0,0,0.1,0
					c0,0,0,0,0,0c0,0,0,0.1,0,0.1c0,0,0,0,0.1-0.2c0.1-0.2,0.1-0.2,0.1-0.2c0,0,0,0,0,0.1l0-0.1c0.1-0.3,0.1-0.5,0.2-0.7
					c0,0,0,0,0,0c0,0,0,0,0,0c0,0,0,0.1,0,0.3v0c0,0-0.2,0.9-0.3,1c0,0,0,0-0.1,0.2C219.3,137.8,219.2,137.8,219.2,137.9z
					 M220.5,135.1c-0.1,0.5-0.7,2.8-0.7,2.8c0,0-0.3,1.2-0.4,1.2c0-0.1,0.2-1.3,0.2-1.3c0.5-1.7,0.5-1.7,0.9-2.9
					C220.5,135.1,220.5,135.1,220.5,135.1z M220.9,123.5c-0.1,0-0.1-0.1-0.2-0.2c-0.2,0.2-0.1,0.5-0.2,0.8l0-0.1
					c-0.1,0-0.1,0.1-0.1,0.2c0,0,0-0.1,0-0.2c-0.1,0.5-0.1,0.5-0.2,0.6c0,0-0.1-0.1-0.1-0.1c0,0,0,0.1,0,0.2c-0.1,1.2-0.1,2-0.1,2.1
					c0,0,0,0,0.1,0c0,0.1,0,0.3,0.1,0.4c0,0,0.3-0.9,0.3-1.3c0.1-0.1,0.1-0.1,0.2-0.2l0-0.2c0-0.3,0.1-0.3,0.1-0.5c0,0,0,0,0.1,0.1
					c0,0,0,0-0.3,1.8c-0.1,0.2-0.1,0.4-0.2,0.6c0,0,0,0,0-0.1c-0.3,0.6,0.3,1.3,0.1,1.9c0,0.2-0.1,0.5,0,0.6
					c-0.3,1.8-0.3,1.8-0.3,2.1c0,0-0.2-0.8,0-2.2c0.1-0.7,0.1-0.8,0-0.9c-0.3,0.5-0.3,2.8-0.3,2.8c0,1.9-0.2,2-0.5,2.2
					c0.4-2.4,0.4-2.6,0.3-2.9c0,0,0,0-0.1,0c0,0,0,0,0,0.1c-0.1-0.2,0.1-1.8,0.1-2c0.1-0.4,0.1-0.5,0.1-0.9c0-0.9,0.2-1.7,0.2-2.6
					l0-0.1c0.1-0.4,0-0.8,0.1-1.2c0,0,0.1,0,0.1,0c0.1-0.3-0.2-0.7,0.2-1c0,0,0.1,0.1,0.1,0.2c0.1-0.2,0.1-0.3,0.2-0.3
					c0,0,0.1,0,0.1,0c0.3-0.6,0.3-1.3,0.5-1.9c0,0.1,0,0.3,0,0.4C221.2,122.6,221,123,220.9,123.5z"/>
			</g>
		</g>
	</g>
</g>
</svg>
