<svg xmlns="http://www.w3.org/2000/svg" width="25.325" height="31.574" viewBox="0 0 25.325 31.574">
  <g id="placeholder" transform="translate(-47.2)">
    <g id="Group_12" data-name="Group 12" transform="translate(47.2)">
      <path id="Path_19" data-name="Path 19" d="M59.856,0A12.673,12.673,0,0,0,47.2,12.656a12.457,12.457,0,0,0,.225,2.376c.007.046.033.185.086.424a12.464,12.464,0,0,0,.847,2.5c1.364,3.21,4.362,8.142,10.942,13.424a.9.9,0,0,0,1.125,0C67,26.093,70,21.162,71.367,17.951a12.324,12.324,0,0,0,.847-2.5c.053-.238.079-.377.086-.424a13.016,13.016,0,0,0,.225-2.376A12.693,12.693,0,0,0,59.856,0Zm10.67,14.721c0,.013-.007.026-.007.04-.007.033-.026.132-.06.285v.013a10.508,10.508,0,0,1-.735,2.158c-.007.007-.007.02-.013.026-1.238,2.932-3.952,7.407-9.856,12.285-5.9-4.878-8.618-9.353-9.856-12.285-.007-.007-.007-.02-.013-.026a11.21,11.21,0,0,1-.735-2.158v-.013c-.04-.152-.053-.252-.06-.285,0-.013-.007-.026-.007-.046a10.868,10.868,0,1,1,21.34.007Z" transform="translate(-47.2)" fill="#fff"/>
      <path id="Path_20" data-name="Path 20" d="M125.036,71.9a8.036,8.036,0,1,0,8.036,8.036A8.048,8.048,0,0,0,125.036,71.9Zm0,14.284a6.249,6.249,0,1,1,6.249-6.249A6.256,6.256,0,0,1,125.036,86.184Z" transform="translate(-112.38 -67.141)" fill="#fff"/>
    </g>
  </g>
</svg>
