<svg xmlns="http://www.w3.org/2000/svg" width="687.913" height="678.91" viewBox="0 0 687.913 678.91"><path d="M206.3,175.2h0Z" transform="translate(116.61 -157.118)" fill="#e7e9f0"></path><path d="M188.153,182.8h0c-.452,0-.452,0-1.808.452a3.425,3.425,0,0,1-1.808.9c-1.356.9-3.164,1.356-4.973,2.26v-.452c-2.26.9-2.26.9-2.26,1.808,1.356-.452,1.356-.452,1.808-.452h0c-.9.9-1.808.9-2.712,1.808l1.356-.452C178.208,188.224,186.345,184.608,188.153,182.8Z" transform="translate(40.787 -130.363)" fill="#e7e9f0"></path><path d="M213.1,175.1h0Z" transform="translate(136.505 -157.47)" fill="#e7e9f0"></path><path d="M219.829,176c-1.809-.452-3.617-.452-6.329-.9h.9c4.069.452,8.589,1.356,13.109,2.26v-.452c-4.068-.9-7.233-1.356-9.041-1.808C218.924,176,219.376,176,219.829,176Z" transform="translate(136.188 -157.47)" fill="#e7e9f0"></path><path d="M239.521,187.933a.972.972,0,0,1,.9-.9c5.877,3.164,11.3,6.78,16.726,9.945l.9-.9c-7.685-2.712-13.109-10.4-21.7-10.849,0,.452-.452.452-.452.9A72.069,72.069,0,0,1,223.7,180.7c13.561,7.685,26.218,15.822,29.834,20.794h-1.356s4.973,1.356,4.52,4.973a9.871,9.871,0,0,1-2.26-1.356l-.452.452c3.164,1.808,3.164,1.808,4.521,1.808h0c.453,0,.9-.452,1.356-.452C259.863,207.371,240.877,190.193,239.521,187.933Z" transform="translate(159.735 -137.756)" fill="#e7e9f0"></path><path d="M307.1,278.629v3.616a73.277,73.277,0,0,0,.452-9.945v1.808l-.452,4.521Z" transform="translate(380.022 87.256)" fill="#e7e9f0"></path><path d="M307.2,275.524V271A7.659,7.659,0,0,1,307.2,275.524Z" transform="translate(380.374 82.135)" fill="#e7e9f0"></path><path d="M307.552,274.012V271.3l-.452,4.069A1.661,1.661,0,0,0,307.552,274.012Z" transform="translate(380.022 85.361)" fill="#e7e9f0"></path><path d="M460.56,171.2c-12.2,0-24.4.713-36.245,1.784,0,.357-.359.357-.359.713h1.076c-.359,0-.718.357-1.076.357a17.56,17.56,0,0,0,4.306.357h0c1.435,0,1.435,0,1.794.357H429.7c.359,0,.359.357.718.357H428.98l3.947.713a2.167,2.167,0,0,1-1.435-.357h0l.359.357c.359,0,1.077.357,1.435.357a15.626,15.626,0,0,0,1.794.357h-3.23a11.613,11.613,0,0,0-2.871-.357,24.314,24.314,0,0,0,3.588.357h0a52.865,52.865,0,0,0-16.866.714c-.359.357-11.125,1.07-11.483,1.07-2.512,0-2.512,0-10.048,1.427h1.794a6.136,6.136,0,0,0,2.512-.357h.718c3.229.357,6.1,0,9.33.714h-7.177a7.038,7.038,0,0,0-2.871.357h8.253c1.794,0,3.589-.357,5.383,0h-1.436c-8.613.357-12.2.714-13.636,1.07,7.895-.357,7.895-.357,8.253-.357h-5.024c-5.024.357-5.024.357-5.741.713h-.718a3.252,3.252,0,0,0,1.794-.357H399.2c-2.871.357-5.383,1.07-8.253,1.427h-.359s-15.072,2.854-17.584,3.211a7.875,7.875,0,0,0-1.794,1.07h0a1.256,1.256,0,0,1,.718.357l-8.612,2.141-1.435.357c-2.512.357-2.512.357-3.589,1.07,6.818-1.427,14-2.14,20.455-3.924h-2.512a25.969,25.969,0,0,1,6.459-.357c-2.871.713-5.741,1.07-8.253,1.784a39.642,39.642,0,0,0-3.948,1.07h.359c-1.794.714-3.588,1.784-5.742,2.5h.718a22.969,22.969,0,0,1,3.23-.713c-1.077.357-2.153,1.07-3.23.713h-1.076c3.588-.713,7.177-2.141,11.124-2.5-3.947,1.07-3.947,1.07-4.665,1.427-3.588,1.07-7.536,1.427-10.765,2.854.359,0,.718-.357,1.077-.357h.359a6.313,6.313,0,0,0,1.794-.357c.359,0,.718-.357,1.077-.357h.359c.359,0,.359,0,1.076-.357,2.512-.713,5.024-.713,7.536-1.427h.359c1.077-.357,2.512-.357,3.589-.713a5.121,5.121,0,0,0,2.153-.714H378.74c.718,0,1.794-.357,2.512-.357h.359a15.023,15.023,0,0,0,3.947-.714H385.2c5.383-1.07,10.766-2.5,16.149-3.211,1.794-.357,3.23-.357,5.024-.714h1.435a138.374,138.374,0,0,1,16.149-1.07c-1.077,0-2.153.357-2.871.357h0c-3.23.357-6.818.713-10.048,1.07h-2.871s-5.742.713-10.048,1.784h-1.435s-3.23.357-6.1.713a42.1,42.1,0,0,1-5.383,1.427h0l-1.077.357c-1.435.357-7.895,1.784-10.407,2.5,10.048-1.784,10.048-1.784,10.407-1.784-4.306,1.07-8.612,2.5-12.919,3.211h0c-.359,0-.718.357-1.077.357h0c-7.895,2.14-7.895,2.14-9.33,2.854h0l-.359.357h1.077c3.588-.713,7.177-1.784,10.765-2.5h0c3.589-1.07,3.589-1.07,5.383-1.07,2.512-.713,2.512-.713,3.588-1.07,2.153-.357,3.947-1.07,5.742-1.427h1.436l.717-.357a7.7,7.7,0,0,1,2.871,0c-1.076.357-2.512.713-3.588,1.07-.359,0-33.374,9.989-38.039,10.346.359-.357.717-.357,1.435-.713a28.3,28.3,0,0,1-4.306,1.427c.358,0,.717-.357,1.077-.714-.359,0-.718.357-1.077.357a20.075,20.075,0,0,0,2.871-1.784c-9.689,3.211-9.689,3.211-11.125,3.211a32.933,32.933,0,0,0,4.665-2.5c-8.254,2.854-16.148,7.135-24.761,8.919,3.589-2.141,4.665-2.854,5.383-3.568-55.623,28.184-55.623,28.184-58.135,29.967-7.536,5.351-10.766,14.27-17.584,20.335-17.225,14.627-18.66,16.054-20.1,19.265h.359a2.725,2.725,0,0,1,1.435-.714l-1.076,1.07h0l.718-.714c0,.357-.359.357-.359.714h0c5.742-4.995,11.483-9.633,16.866-14.984.359-.357.718-1.07,1.436-1.427h0a3.937,3.937,0,0,1,1.435-.713h0c13.636-4.638,22.249-17.481,35.168-23.189,0,.357-.359.357-.359.714,3.23-1.784,3.23-1.784,3.589-2.5h-.718c7.895-4.281,15.072-10.346,24.043-13.2-.359,1.427-1.794,2.141-2.512,3.211,1.436,0,1.436,0,1.794.357-10.765,8.562-10.765,8.562-11.124,8.562.359,0,.717-.357,1.435-.357a1.306,1.306,0,0,0-.359,1.07c-14.354,9.633-16.866,11.06-18.66,11.416v.713H284a20.83,20.83,0,0,1-3.589,3.924c1.794-.713,3.23-1.784,5.383-2.14v.713c5.383-3.924,9.689-6.779,12.2-6.779-5.024,3.924-8.972,8.919-14.713,12.13l.359.357c-9.33,7.492-9.33,7.492-10.048,7.492a.77.77,0,0,1-.718.713c0,.357,0,.357.359.713,0,0-5.024,6.779-5.742,7.849,0,0,.359,1.07-1.077,3.567a.77.77,0,0,0,.718.714c-.359,2.141-.359,2.141-2.512,2.854-3.23-2.14-5.383,1.427-8.254,1.427a9.929,9.929,0,0,0-.359,2.14c2.871-.357,4.665-3.567,8.254-2.854a1.1,1.1,0,0,0,.359.713c-.718,1.07-.718,1.07-3.589,3.924a2.726,2.726,0,0,1,1.435-.714l.359.357-7.536,9.276c-2.512,1.07-5.383,1.07-8.254,2.141s-4.306,4.281-7.536,4.638c0,0-5.024-1.07-5.024-5.352-2.871.357-4.665,2.5-7.536,3.211a.35.35,0,0,0-.359-.357c-2.153.357-3.947,1.784-10.766,6.778,11.483-3.924,11.483-3.924,11.842-3.924.718,3.568-3.589,6.065-5.024,5.708v-.713l-.359-.357-.359.357c.359,1.427-1.077,2.854-.718,4.281a20.593,20.593,0,0,0-5.742,11.059h1.077l.359.357a3.917,3.917,0,0,0,0,2.854c-3.23,2.854-7.536,1.784-10.766,4.281a4.921,4.921,0,0,1-1.077-1.427c2.153-2.854,5.383-3.568,7.895-5.351v-.714c-.359,0-.718-.357-1.077-.357,1.077-.714,1.077-.714,1.077-1.427-2.871,1.07-5.383,3.211-8.254,4.281a6.343,6.343,0,0,1-2.153.357l-1.077,1.07h0c-.718.357-.718.357-1.077.357-1.077-.357-5.742,4.281-5.742,4.281-1.794,2.141-2.153,2.854-2.153,3.211,0,0-1.077,3.567-2.153,3.211-.718-2.5-5.024-.357-5.024-.357-3.589,2.14-5.024,6.065-7.895,8.562.359-1.07,1.435-2.141,1.794-3.568-1.077,1.07-1.077,1.427-2.153,3.568-1.435,2.854-4.306,6.065-5.024,6.422,6.1-9.633,6.1-9.633,6.1-9.989-2.153,2.854-3.947,6.065-6.1,8.919,0,0-1.435,2.141-5.383,9.989-1.435,3.211-5.742,3.211-7.536,6.422a2.75,2.75,0,0,1-.718,1.07h-.359c-1.794,2.5-1.794,2.5-2.512,2.854v-.713c-3.23,7.135-7.536,13.557-10.048,20.692-3.23,9.276-3.23,9.276-5.383,13.913h-.718c0-1.07,3.947-13.913,6.1-18.551,3.229-6.422,3.947-14.984,3.588-16.054a1.256,1.256,0,0,1-.718.357v-.713a35.9,35.9,0,0,1-2.512,5.351,34.9,34.9,0,0,0,1.794-5.708h-.718c0,.357,0,.357-.359.357h0l.359-.357h0a335.666,335.666,0,0,0-31.22,141.99c0,5.708.359,11.416.359,17.124a1.323,1.323,0,0,1,1.077-.357c0-2.854,0-5.351.359-5.708v0h0c.359-2.141.359-4.638.718-6.779,0,.357.359.357.359.714.359-6.422,2.153-27.114,1.077-31.751h0c-1.077,2.14-.718,4.638-1.435,7.135-1.077-6.778.359-13.557.359-19.978a1.3,1.3,0,0,1-.359,1.07c.359-5.351,2.871-22.832,2.871-22.832v-.357a17.437,17.437,0,0,1,1.077-5.352h0c1.435-6.422,3.588-14.984,5.383-21.762v.713c0-.713.359-1.07.359-1.784a1.306,1.306,0,0,1-.359,1.07c1.794-6.065,2.871-9.633,3.589-10.346.359,3.924-4.665,17.124-4.665,17.124.718-2.141.718-2.141.718-2.854-.359,1.07-3.23,11.773-3.589,13.913-.718,4.281,0,8.562-1.077,12.843-5.383,23.9-3.589,28.184-3.589,28.184,0-.357.359-.713.359-1.07a1.3,1.3,0,0,0,.359,1.07,1.243,1.243,0,0,1,.359-.713.35.35,0,0,0,.359.357c0,.714-.359,1.784-.359,2.5,0-.714.359-1.784.359-2.141.359,3.211,0,6.422.359,9.633.718-3.567,2.153-9.275,3.23-11.06a2.134,2.134,0,0,0,.359,1.427c.359-.713.359-1.07.718-1.784.359,0,.359,0,3.23-2.141,2.871,6.065-6.818,10.346-1.794,16.411.718-3.21,0-6.778,1.435-9.632a2.166,2.166,0,0,0,1.435-.357c.359-2.5.359-2.5.718-2.854,3.947,13.913,5.024,15.7,7.177,14.984a2.135,2.135,0,0,1,.359-1.427c2.153,1.784,2.512,2.5,2.512,3.211-.359,0-.718,0-.718.357.359,3.924,2.871,7.492,2.512,11.773,3.589,3.568,4.306,9.632,5.383,14.27.718,4.281,5.383,4.281,7.177,7.135,2.153,2.854,2.153,2.854,6.46,11.06.718,1.07.718,1.784,1.077,3.924,0,1.07.359,2.141.359,4.995.718,9.989.718,9.989.359,10.7-2.512,4.995-2.512,4.995-.359,11.416,0,.357,0,.357.359.714,2.512.357,3.229,1.07,3.947,2.5,1.435-1.784,1.435-4.281,3.23-5.708,0,0,4.665,2.141,6.1,6.422.359,0,.359-.357.718-.357.718.357.718.357,2.871,7.135,2.512-.357,5.742-.357,15.072,7.849l12.919,14.27c1.076,1.07,1.076,2.141,1.435,3.568a20.739,20.739,0,0,0,.718,6.779h0v1.07c.718,7.492-5.024,12.843-7.177,19.621-3.947,10.7,2.871,21.049,1.436,31.395a39.067,39.067,0,0,0-.718,6.422c0,.713-.718,1.07-1.077,1.784a15.617,15.617,0,0,1-1.794-.357.77.77,0,0,0-.718.714c-1.076-.357-1.794-1.07-2.871-1.427-13.637,6.422,4.306,21.405-1.077,32.108-.718-2.141-.718-4.281-1.435-6.422-.359,0-.717-.357-1.077-.357.718,5.351,4.665,9.989,3.947,15.7-2.871-.357-3.947-1.784-10.048-8.206,0,0,6.459,9.276,8.971,11.773,0,0,5.024,6.065,4.665,8.919-2.153-.713-2.153-.713-5.383-3.567,6.1,7.849,6.1,7.849,6.818,9.632-1.076-1.07-2.153-1.783-3.23-2.854,0,0,7.177,8.919,12.919,14.984l4.665,4.994-.359-.357c-1.077-1.07-2.512-2.854-4.306-4.638l-3.947-4.281c.718.714,1.435,1.784,2.153,2.5a344.005,344.005,0,0,0,526.081-34.249c0-.357.359-.357.359-.714s.359-.357.359-.713.359-.357.359-.714c2.153-2.854,3.947-5.351,5.741-8.205h0c.359-.357.359-.714.718-1.07,1.794-2.5,3.23-4.995,5.024-7.492a32.829,32.829,0,0,1-1.794,2.854c23.325-36.746,37.321-78.13,42.7-95.968-.359,1.07-.359,2.14-.718,3.211h.359c1.077-3.568,1.794-6.778,2.512-10.346-.718,2.854-1.076,4.638-1.435,5.708.359-1.07.359-1.784.718-2.141a16.151,16.151,0,0,0,1.077-3.924c0,.357,0,.714-.359.714a1.3,1.3,0,0,1,.359-1.07v-.357h0l1.076-4.281-1.076,4.281h-.359a56.762,56.762,0,0,0,1.795-7.492,310.63,310.63,0,0,0,6.459-44.6v-2.5a17.281,17.281,0,0,1,.359-4.281v-1.427a9.82,9.82,0,0,1,.359-3.211c0-1.427.359-2.854.359-4.281h0v1.07c0-4.281.359-8.206.359-12.487C803.624,323.535,650.035,171.2,460.56,171.2ZM206.849,329.957a4.788,4.788,0,0,1-1.794,1.07c-.359,0-.718-.357.718-2.5,0,.714.718,1.07,1.077,1.427Zm575.6,211.557h0l.359.713c.359-.357.359-.713,1.076-.713h.359c.359-.357.717-.714.359-3.567h0c1.794-3.925,3.589-9.989,5.024-18.195v1.427c.718-1.07.359-2.5.359-3.567.718-2.141.718-2.141,1.077-8.919v1.784c.359-.713,0-1.784.359-2.5.359.357,1.077,3.568.718,4.281l.359-.357c0,.357,0,.357.359,1.07,1.077-.357,1.435,1.427,1.435,1.784v.357c0,.714-.718,1.427-1.076,2.141a5.051,5.051,0,0,0,.718,2.141c-.718.357-.359,1.07-.718,1.784l-.359-.357c-.359,5.708-.359,5.708,0,6.422,2.512,8.562,1.435,8.919.718,9.275l-.359-.356c-.718,7.135-1.076,12.13-2.871,22.832a20.782,20.782,0,0,1-2.153,5.708v-2.5h-.359l-.718.714c0-1.07,0-1.07-.359-1.427-1.077,1.07-1.077,2.5-2.153,3.211a14.852,14.852,0,0,0-.359-2.5c-.359,1.07-1.435,1.427-1.794,2.141,0-.357,0-.357-.359-1.427-.359-2.5,0-5.352-.359-7.849a5.314,5.314,0,0,0-1.077-2.5l-.359-4.638C781.017,545.439,782.093,541.871,782.452,541.515Zm8.253,40.314c-.359.714-.359,1.07-.718,1.784h0c-.359.357-.359.357-.359.714l-.359.714c-.359-.357.718-4.281,1.435-4.281a.35.35,0,0,1,.359.357v-2.141h0c.359,0,0,.357.359.714.359,0,0-.357.359-.357v.714a1.558,1.558,0,0,1,.359-1.07v2.141c-.718.357-1.076.713-1.435.713Zm-12.2,1.427c0,.357,0,.714.359.714s.359,0,2.871-1.427c.359-1.07.359-1.784.718-2.854,0,.357,0,.357.359.714.359.713,1.076-.714,1.435-.714s.359.714.359,1.427c.359,1.427.359,1.784.718,1.427l1.076-1.07c.359.357-.359,4.995-.359,4.995v.357h0c-.359-.357,0-1.427-.717-1.427-.359,0-.718.714-.718,1.07-.359.714-.359.714-.718.714s-.359-.357-.717,0c-.359,0-.359.714-.718.714,0,0-.359,0,0-.714-1.077,1.427-1.435,1.784-1.794,1.07s-.359-.714-.718-.714c-.359.357-.359.714-.718.714-.359.357-.359-.357-.718,0a3.578,3.578,0,0,0-.359,1.07h-3.588c0-.713.359-1.427.359-2.14a5.564,5.564,0,0,0-2.153,1.07v-1.784c.718,0,1.077-1.07,1.435-2.854,0-.357.359-1.07.359-1.427.359-.357.718,0,1.077-.357s.359-1.07.718-1.427h0c.359.357,0,1.427.718,1.07C778.146,582.542,778.146,582.542,778.5,583.255ZM771.328,556.5h0a1.717,1.717,0,0,1,0,2.5h.359c0,1.07-1.435,2.141-.359,3.568.359.357,1.435,0,1.794.714a3.3,3.3,0,0,1,0,2.14c.359,0,.718.357.718,2.5.359-.713.359-.713.718-.713.359.357,1.076.713.718,4.995,0,0-.359,3.924-1.435,11.059a2.748,2.748,0,0,1-.718-1.07,1.306,1.306,0,0,1-.359,1.07c-.359-.357-.718-.357-1.076-.714v2.141h-.359c-1.077-1.07-.718-2.854-2.153-3.568l-1.435-2.141V577.9c0-1.07-.359-1.07-.718-1.427-.718-.713-1.076-1.427-1.794-4.281a55.127,55.127,0,0,0-1.435-7.492c0-.357-.359-.714-.359-1.07-.359-1.07-2.153-1.427-2.153-2.854,0-3.211-.718-7.135-2.512-6.779a.351.351,0,0,1-.359-.357c-.359-.714,0-1.427-.359-1.784l-1.077-1.07c-1.076-2.5-3.23-3.924-4.306-6.065,0,0-1.436-3.924-.359-4.638,1.077,0,1.436,1.07,2.153,1.427,1.077-1.07,3.589-2.141,4.306.357a24.494,24.494,0,0,0,1.435,3.567c0,.357.359.357.359.714.718.714,1.435.714,2.153,1.427.359.714,0,1.784,1.077,2.141h.359c.359.357.359.357,1.077,2.5.359-.357.359-.714.718-1.07.359,0,.718.357.718,1.784.718,0,1.077.714,1.794,2.141.718-.714.718-.714,1.077-.714.359.357.718,1.427.359,3.568A5.053,5.053,0,0,0,771.328,556.5ZM429.339,181.189h.718c.717-.357,14,.713,29.426,2.854h.359a2.726,2.726,0,0,1,1.435.357h0c-1.076.357-1.794.714-2.871,1.07h0a43.9,43.9,0,0,0-6.1,2.5h.359c1.077-.714,1.077-.714,5.024-2.141l-.718.357c-9.33,3.568-9.33,3.568-12.2,4.638-.359.357-.359.357-3.947,2.14.359,0,1.077-.357,1.435-.357-2.871,1.784-2.871,1.784-3.23,2.141-5.024,2.5-9.33,6.422-14.354,8.919,2.512-2.854,2.871-3.211,10.766-8.206L421.8,201.881l.359.357c-1.435,1.07-3.589,1.07-5.024,2.141,1.435-.357,2.871-1.07,4.306-1.427.359,0,.359.357.718.357h.717c0,.713-1.794,4.995-25.119,11.416v-.714a9.658,9.658,0,0,0,2.871-2.5c-10.048,3.924-18.66,10.346-28.349,14.627.359-.713.359-.713,1.794-1.784C373,224,373,224,368.693,226.5c-2.871-.714-4.306,4.281-7.536,2.5-15.431,7.492-26.2,21.405-41.268,28.9a1.256,1.256,0,0,0-.718-.357c0-.357.359-.357.359-.714a1.1,1.1,0,0,0-1.435,0c1.076-1.784,5.742-6.065,5.742-6.065v-.713a9.525,9.525,0,0,0-2.512.357v-.713l1.076-1.07c-.359,0-.359,0-.718-.357.359-1.427,14.713-14.627,14.713-14.627,3.588-2.854,8.253-4.281,11.842-7.135-1.794,0-3.23,1.427-5.024,1.784,0,0,10.407-8.562,30.144-17.838h.359l.359-.357h.359a31.826,31.826,0,0,1,5.742-2.141v.714a.351.351,0,0,1,.359.357h.359a2.728,2.728,0,0,0,1.435-.713h.359l.717-.357c0-.357,0-.357,9.689-3.924a1.254,1.254,0,0,1-.717.357v.357h0c6.818-2.141,12.919-6.422,19.737-8.562-.718,1.07-.718,1.07-2.871,2.141,0,0,17.584-6.065,17.943-6.065-2.512.357-5.024,1.427-7.895,1.784l3.23-1.07a365.815,365.815,0,0,1,38.039-7.492H446.923a81.6,81.6,0,0,0-9.33.357h-1.077a9.981,9.981,0,0,0-3.23.357l-7.9.357h2.153c1.435,0,7.895-.357,14-.713h19.378a41.44,41.44,0,0,1-5.023-.714h-3.23c-1.077,0-2.153-.357-3.23-.357h-1.794l-12.919-1.07H423.239c-.718,0-5.383-.357-5.383-.357C418.933,181.189,427.9,181.189,429.339,181.189Zm-20.455,3.924h-2.871c-1.077.357-6.1,1.07-6.1,1.07h-1.076c-.359.357-.359.357-1.076.357h-3.23a3.253,3.253,0,0,0-1.794.357h0a4.577,4.577,0,0,1,2.153-.357,3.252,3.252,0,0,0-1.794.357,11.538,11.538,0,0,1,2.512-.357c-.359,0-.359,0-3.947.357H391.3s-2.153.357-2.871.357h1.794s-7.177,1.427-7.536,1.427h-1.435a33.16,33.16,0,0,1,3.23-1.07h.717c1.794-.357,3.948-.713,5.742-1.07h-.718c-1.794.357-3.23.357-5.024.713V186.9c-1.077.357-2.153,0-3.588,0h-1.077a.351.351,0,0,0,.359-.357h-.359c.359-.357.359-.357,1.435-.357h.718c4.665-.713,8.971-1.784,13.636-2.5h1.794c1.435,0,1.794-.357,2.871,0,.718,0,1.436-.357,1.794,0h0a.351.351,0,0,1-.359.357h1.794a19.414,19.414,0,0,0,3.947-.357c-.359-.357-.359-.357-1.794-.357h1.436a7.047,7.047,0,0,0,2.512-.357h.718s3.229-.357,4.665-.357h17.943a47.069,47.069,0,0,1,6.1.357c2.512.357,5.383.357,7.895.713,0,0-10.048-.713-11.125-.713H435.8a20.358,20.358,0,0,1,2.512.357H434c7.895,0,11.842.357,13.636.357H429.7c-10.048.357-19.019,1.07-19.019,1.07A10.119,10.119,0,0,0,408.884,185.114Zm14,0h-4.665a12.28,12.28,0,0,0-3.588.357,6.315,6.315,0,0,0,1.794-.357h2.512c3.23-.357,6.1-.357,9.33-.714h2.871c4.306,0,4.306,0,6.1-.357h5.383c-2.153.357-3.947,0-6.1.357h.359a13.537,13.537,0,0,0-3.947.357c-5.742.357-5.742.357-6.818.357h-3.23ZM312.711,230.065l4.665-4.638c5.024-3.211,10.048-6.065,15.072-9.275h0l1.077-1.07,1.077-1.07a1.255,1.255,0,0,0-.718.357l-.359.357c-2.153,1.07-2.153,1.07-2.871,1.07.359,0,.359-.357.718-.357h0l-2.512.714c-.359,0-.359-.357-.718-.357a10.327,10.327,0,0,0,2.153-1.427c.718-.357.718-.357,4.306-1.784h0c.359-.357,1.076-.357,1.794-.714a5.122,5.122,0,0,1,2.153-.713c-.359,0-.359.356-.717.356l-.359.357h0v.357h0v.356c13.636-3.567,26.555-8.919,39.833-13.557h.718a15.04,15.04,0,0,0,3.589-1.427,18.1,18.1,0,0,0-4.306.714,33.424,33.424,0,0,0,3.589-1.07c10.407-2.854,10.407-2.854,11.483-3.211l.718-.357c2.871-.714,6.459-1.427,7.536-2.14-8.254,1.784-8.254,1.784-8.971,1.784a7.6,7.6,0,0,0,3.588-1.427h0c-.717.357-.717.357-3.229.713H391.3c.359,0,1.076-.357,1.436-.357h-.718c.359,0,.359,0,.718-.357h1.077a.351.351,0,0,1-.359-.357c.359,0,.359-.357.718-.357h-.718c5.742-1.427,5.742-1.427,6.818-1.427h-1.794c1.794-.357,6.818-1.427,7.895-1.427h.359a3.923,3.923,0,0,0,1.794-.357h0a1.256,1.256,0,0,0-.718.357h.359c4.665-.357,9.33-1.427,14-2.141h.718c1.435,0,2.512-.357,3.947-.357h-.359s6.819-.357,9.689-.713a27.29,27.29,0,0,0,5.383-.357h.718c7.177-.357,11.124-.357,13.278,0-13.278.357-18.3.357-28.708,1.427-3.23.357-7.536.714-12.919,1.427h-.359c-1.794.357-3.947.357-5.742.714h.718c-.359,0-1.077.357-1.435.357h.359c4.306-.713,8.613-1.427,13.278-1.784,11.124-1.07,15.431-1.427,18.66-1.427h.718c1.794,0,3.947-.357,5.742-.357h-.718c3.589,0,5.383-.357,7.536-.357-3.229,0-6.1.357-9.33.357h-.359a44.228,44.228,0,0,0-6.818.714s-6.1.713-8.971.713c-1.435,0-2.512.357-3.948.357h0a70.441,70.441,0,0,1,8.254-.714c-1.076,0-1.794.357-2.871.357h.718a2.7,2.7,0,0,0-1.794.357,44.235,44.235,0,0,1,6.818-.714,40.1,40.1,0,0,1-4.665.714h.359c-1.435.357-2.512.357-3.947.713h-1.077c-2.153.714-4.665.714-6.818,1.07a9.526,9.526,0,0,1,2.512-.357c-1.435.357-3.23.357-4.665.714h.717a7.047,7.047,0,0,1-2.512.357,10.1,10.1,0,0,1,2.153-.357h.359a2.165,2.165,0,0,0,1.435-.357c-2.871.357-5.383,1.427-8.253,1.784a5.349,5.349,0,0,0-2.512.357h1.435c-.359,0-.718,0-.718.357l-1.435.357a16.368,16.368,0,0,0-2.871.713,2.167,2.167,0,0,0,1.435-.357,1.323,1.323,0,0,0-1.076.357,15.646,15.646,0,0,1-1.794.357h1.435c-.359,0-.359,0-.718.357h0c-3.229,1.07-3.229,1.07-3.588,1.07h-.718c-.717,0-1.435.357-2.512.357h.717c-2.512.714-2.512.714-2.871.714a7.041,7.041,0,0,1,2.512-.357,39.364,39.364,0,0,1-6.1,1.784h-1.435a2.727,2.727,0,0,0-1.435.713h0l-.359.357v.357h-.359c-2.512,1.07-2.512,1.07-3.948,1.07,0-.357.359-.357.359-.713-3.23,1.427-6.818,1.07-9.689,3.567h0a24.734,24.734,0,0,1-2.871,1.07h.359c-.359.357-1.076.357-1.435.714l-.718.357-.358.357c.358,0,.358.357.717.357,0,0-6.818,2.854-8.254,3.924h.718c-2.153,1.07-3.948,2.5-6.1,3.568a1.255,1.255,0,0,0-.718.356h0c-1.435.357-2.512,1.07-3.947,1.427,0-.357.359-.357.359-.713l-2.153,1.07-1.077.357c-1.794.357-3.23,1.427-4.665,2.141v-.357c.359-.357,1.077-.714,1.435-1.07a2.727,2.727,0,0,1-1.435.713l2.871.713a6.08,6.08,0,0,1-1.794.714,10.77,10.77,0,0,0-2.871,1.427h-.717c0-.357.358-.357.358-.713l.718-.357a16.855,16.855,0,0,0,3.23-2.14,19.278,19.278,0,0,1,3.947-1.784s5.383-2.854,6.459-4.281c-2.871,1.427-6.459,1.427-8.971,3.924-1.435.713-2.512,1.427-3.948,2.141l-4.306,2.14a6.084,6.084,0,0,0,1.794-.713c-2.871,2.854-20.455,12.843-22.249,13.2a1.243,1.243,0,0,0,.359-.713,2.75,2.75,0,0,1-1.794.713,15.572,15.572,0,0,0,2.512-2.14c1.077-2.854,5.024-2.854,6.1-5.708-5.383,2.14-8.612,6.778-13.278,9.632h0c-.359,0-.359.357-.718.357s-1.077.357-1.435.357C310.917,232.919,311.635,231.135,312.711,230.065ZM708.528,497.99c-1.436,3.568-2.871,7.135-4.665,10.7l-3.23,1.07c0,7.135,4.665,13.2,4.306,20.335,0,4.281-3.229,7.492-4.665,11.059-.359.357-.359,1.07-.718,1.784-2.512,5.351-3.23,4.281-6.819-1.427a157.441,157.441,0,0,1-18.3-36.39c-2.512-7.135-2.871-14.984-5.383-22.119-1.435,2.5-.359,6.065-2.871,8.205-2.153,1.784-9.33-2.141-9.689-7.135,3.589-1.427,3.947-1.427,4.306-4.281-8.253,2.14-11.124-6.779-17.584-8.562-7.536-2.141-13.278,4.995-20.813,3.924-15.79-1.784-15.79-1.784-15.79-2.141-2.871-5.351-2.871-5.351-4.306-5.351-3.589-.357-3.948,4.638-7.536,4.281-.359,0-.718-.357-1.435-.357-.359,0-1.077-.357-1.436-.357s-7.536-2.141-9.33-2.854l-.718-.357c-4.306-3.211-6.1-8.206-9.689-12.13-1.077,0-2.153.357-3.23,0l-2.512-2.5a33.6,33.6,0,0,1-1.076,3.211c-.359.357-1.077.357-1.794.713a15.381,15.381,0,0,1,.359,1.784c-.359.357-1.077.357-1.436.713,0,0,11.842,12.487,12.2,14.627,0,1.427,1.077,5.351,3.589,7.135.359-4.994.359-4.994,1.076-6.421.718.713.718.713,2.153,9.632.359.357,1.076.714,1.435,1.07a15.633,15.633,0,0,1,1.794-.357h0a22.034,22.034,0,0,1,4.306-1.784c2.153-.357,3.948,1.427,6.1-.357.359-.357.359-.357.718-1.427,1.077-4.638,5.383-9.632,5.383-9.632.718-.357.718-.357,1.435,3.211.718,3.211.718,4.281,1.794,5.351,2.512,3.211,7.536.714,10.048,3.924,2.153,2.5,5.024,5.708,5.024,6.779h0c0,1.427-3.23,8.562-3.23,8.562a1.922,1.922,0,0,1-1.435,1.07c-1.435,0-1.794.357-2.153,1.784-.359,1.784,1.795,3.567.718,5.708-.359.357-.359.714-1.436.357-1.794,0-2.512,0-3.23,3.211a2.537,2.537,0,0,1-1.077,2.141c-1.077,1.07-2.512,1.427-3.588,2.141h0c-.718.713-.718,1.783-.718,3.568-.718.356-.718,0-1.435,0-1.077-.357-1.077-.357-3.947.356-6.818,2.141-7.536,6.779-7.536,7.135,0,0,.359,1.427-1.076,1.427h0c-1.435,0-1.435,0-5.024,2.854-2.153,1.784-4.665,1.427-7.177,2.854-1.435.714-1.794,2.5-2.871,3.568s-2.871.714-4.306,1.427c-1.436,1.07-1.794,3.211-4.306,3.211-3.23,0-6.459,0-7.177,3.568-7.177.713-7.177.713-8.613,0l-1.076-3.925c-.718-2.141-2.153-4.281-2.512-6.422-.718-2.854.359-5.708-.718-8.205a11.479,11.479,0,0,0-2.871-4.638l-.718-.713c-15.79-14.627-21.531-36.033-35.527-52.087-.359,0-.718,0-1.077-.713a34.979,34.979,0,0,0,.718-6.065c-1.436,2.5-1.436,5.351-3.23,7.849-2.871-3.568-3.947-8.205-7.536-11.059,0,0,11.125,35.676,31.938,63.86h0c1.794,3.568,2.153,7.849,4.306,11.416.359-.357,1.077-.357,1.435-.713,14.354,8.919,16.866,14.627,16.866,14.627a10.881,10.881,0,0,1-2.871,2.854c14.354,9.276,25.478-6.421,38.756-4.638a15.371,15.371,0,0,1,.359,1.784c-.359,26.757-35.526,66.714-46.292,69.211-12.919,21.405-12.919,21.405-7.895,24.616v1.784c-2.512,6.421,6.1,9.989,4.306,16.054l-2.153,17.838a15.373,15.373,0,0,1,.359,1.784c-9.33,11.059-27.991,20.335-27.991,20.335-.359,2.5,0,3.211,1.435,4.638-.359,4.638,3.589,8.919.359,13.556-3.229,3.925-10.048,2.5-12.2,7.849,5.383,11.417-29.067,32.108-32.3,31.751l-1.076,1.07c-3.23-.357-3.23-.357-27.273,0a15.383,15.383,0,0,0,.359-1.784c-1.794-1.783-1.794-2.14-2.871-4.281l1.077-1.07a15.391,15.391,0,0,1-.359-1.784c-2.153-8.919-10.766-13.556-14.354-21.406-2.871-5.708-1.436-12.486-4.306-18.195-.359-.713-2.871-4.638-6.459-9.633-8.254-12.487-8.254-12.487-6.1-21.762,1.435-6.065,7.177-10.346,7.895-16.767l-4.306-18.551c-3.948-11.773-14.713-19.265-19.378-30.682a58.227,58.227,0,0,0,3.23-5.708c1.077-5.708.359-11.773.718-17.481-2.153-.714-3.589-2.5-5.383-3.568h-.717l-1.077,1.07c-3.947-1.427-10.765,2.141-11.842-3.567-1.435-6.778-3.589-7.135-9.689-8.205-6.818-1.427-12.2,3.568-18.66,4.281-1.794.357-2.871,1.784-4.665,2.141-4.306.357-6.818-3.924-11.124-3.924s-7.536,4.994-12.56,3.567c-8.612-2.854-11.124-12.486-18.66-16.767-1.077-1.427-1.077-1.427-4.307-1.784a8.359,8.359,0,0,0,.718-2.854L285.8,546.865v-1.07a15.608,15.608,0,0,1-1.794.357c0-1.784-1.076-3.211-1.076-4.995-2.153-.357-3.23-2.5-5.383-3.211a75.071,75.071,0,0,0-.718-13.2c2.512-2.141,6.459-11.773,6.818-12.844h.718c-.359-.357-.359-1.07-.718-1.427.359-4.995.359-4.995-.359-8.919,1.077-1.07,3.589-3.211-.718-8.205l20.814-31.038c3.947-4.638,10.765-3.924,14.713-8.206,2.871-3.211.718-7.849,3.23-10.7a4.932,4.932,0,0,0,1.077-1.427c1.435-1.784,1.794-3.925,3.589-5.708,2.871-2.854,12.56-12.844,15.789-14.27,2.153,3.568,10.766,5.352,10.766,5.352,3.948.357,6.818-3.567,11.125-3.211,6.46-8.919,16.507-.357,24.043-4.638,2.871.714,2.871.714,4.665.357,3.947,2.14,7.536-1.427,11.124-.357a4.4,4.4,0,0,0,1.435,2.854,2.726,2.726,0,0,0,1.435-.714v1.427c-.717.714-1.794,1.427-2.512,2.141,1.794,5.351,1.794,5.351-3.23,11.773h0l-.359,1.07c2.871,1.784,2.871,1.784,4.306,1.784,2.512,8.562,12.919,2.5,16.866,8.562,3.23,4.638,8.612,6.065,12.919,9.276a4.946,4.946,0,0,0,1.435,1.07c.359.357,1.077.714,1.435,1.07,5.742-1.427,2.153-8.206,5.383-11.06,4.665-4.994,5.383-4.638,13.636.714.359,0,22.608,9.276,27.273,5.708a32.39,32.39,0,0,1,3.23-1.784l6.818-.357c1.435,1.784,3.947,1.427,5.742,2.854,15.431-4.281,4.665-21.762,10.048-32.108,0-.357-.359-1.07-.359-1.427l-2.871,1.427c-4.306-2.141-6.1,3.568-9.689,3.568-2.512,0-3.589-2.141-5.383-3.211l-2.871-1.427a2.729,2.729,0,0,1-1.435.714v1.784c-3.23,2.5-3.23,2.5-8.612-1.784-.359,0-1.077.357-1.435.357a3.055,3.055,0,0,1-1.794-1.07l1.076-1.07a9.989,9.989,0,0,1-3.229-.357c0-1.784-1.077-3.211-1.435-4.638-.359-.357-1.077-.713-1.435-1.07h-1.077c0-.357-.359-1.07-.359-1.427l.359-.357.359-1.427h.718a44.382,44.382,0,0,0-.359-4.995h-1.794c-.359-.357-.359-1.07-.718-1.427,3.23-4.638,10.048-2.5,13.637-6.422-.359-.357-1.077-.714-1.436-1.07a2.725,2.725,0,0,1,1.436-.714c2.153.714,2.153.714,6.459.357,1.076-1.784,1.076-1.784,14.354-6.422a5.043,5.043,0,0,1,2.512,2.141c1.076,0,2.871-.357,5.741,2.5h0s12.56,3.568,17.225-2.854c1.795-2.5-12.56-18.552-18.3-17.838-1.794-2.854-1.794-2.854-2.153-4.281,1.794-.713,1.794-.713,4.306-4.638h0l.359-1.07-1.436-2.854a15.636,15.636,0,0,1,1.794-.357c.359-.714.718-2.141,1.077-2.854-5.742,0-9.33,3.924-11.125,6.065h-1.435a19.912,19.912,0,0,0-1.794,2.854c-.359-.357-.717-1.07-1.076-1.427h-1.794l-1.076,1.07c-1.794-1.07-3.947,0-5.742-1.07a4.04,4.04,0,0,0-1.076-2.854c-3.23.714-3.23.714-7.895,11.416h-1.436c-2.871,4.638-1.435,10.346-4.665,14.627h.359c2.871,6.065,2.871,6.065,4.306,6.422,0,.357.359,1.07.359,1.427-5.024.357-5.024.357-10.766,6.065a13.174,13.174,0,0,0,.718-3.211s-5.024-5.352-10.048,1.07a2.7,2.7,0,0,1,.718,1.427,4.089,4.089,0,0,1-2.871,1.07,10.685,10.685,0,0,0-1.435-2.854c-.359.714-1.435,2.5,0,6.065-.359.357-.359,1.07-.718,1.427.359.357.359,1.07.718,1.427a2.7,2.7,0,0,1-.718,1.427c3.23,1.784,3.947,3.211,4.306,4.638-.359.357-.359,1.07-.718,1.427-6.459-4.281-6.459-4.281-9.689-3.924h-.359c-.359-.357-.359-.357-1.435-3.568-5.383-6.065-5.742-7.848-5.742-8.562-1.077-3.925,3.23-9.276-1.794-12.13-7.177-3.924-9.331-11.773-14.354-17.481-.718.713-1.794,1.07-2.512,1.784-.718-3.924-.718-3.924-1.077-4.638-2.871,1.427-10.048,5.708,4.306,22.832,1.794-.713,2.153-.713,4.306,1.07-.359.357-.359,1.07-.717,1.427,2.153,3.925,7.536,3.925,8.971,8.562a2.7,2.7,0,0,0-.717,1.427c-1.794-1.07-2.871-2.854-4.665-3.924-3.23,3.211-2.512,3.924-.359,6.778v1.784a29.8,29.8,0,0,0-4.306,6.422c-.359,0-1.077.357-1.435.357v-1.427c1.435-3.568,1.435-3.568,1.794-3.925,0-6.421-.717-6.778-3.229-7.848-1.435-4.638-6.818-6.065-9.689-9.633h0a5.249,5.249,0,0,0-1.794-2.14l-.359-.713a6,6,0,0,0-.717-1.784c-.359,0-1.077-.357-1.435-.357-5.383-13.2-5.383-13.557-10.407-8.919-3.229,0-4.665,3.211-7.177,4.281,0,0-3.589-1.427-6.819-2.854-1.435,0-1.435,0-5.024,7.492-2.512,8.205-18.661,8.562-14.713,19.265-7.536,6.065-8.971,7.492-10.048,9.276-5.024.357-10.048,2.854-15.431,2.5-1.435-1.784-1.435-1.784-1.435-5.708l-1.077-1.07c-2.512,0-5.383-.714-7.895,0,2.512-7.135,2.512-7.135.718-9.276,1.794-8.919,8.254-16.411,7.895-25.687,9.33-6.064,18.3,7.135,27.632.714,8.971-6.065-.718-15.341,3.947-22.119a6.171,6.171,0,0,1-2.153-2.14c-3.947-1.427-4.306-1.784-5.024-3.925.359-.357,1.077-.713,1.436-1.07-.359-.357-.718-1.07-1.076-1.427l1.076-1.07c2.871.357,6.1.357,8.971.714.718-.714.718-.714,1.077-6.778h1.794a10.838,10.838,0,0,0,1.794,2.5c7.177-.357,7.177-11.416,15.431-9.989,1.435-1.427,3.23-2.5,4.665-3.925h-.359a21.751,21.751,0,0,1,1.794-4.281v-.357c.359-.357.359-1.07.718-1.427.359,0,1.076-.357,1.435-.357a7.809,7.809,0,0,0-.359,2.854h.718c1.794-5.351,1.794-5.351,3.588-6.422h1.435v.357h.359v.713c.359,0,1.077-.356,1.435-.356,0-.357-.359-1.07-.359-1.427l.359-.357c.359-.357,1.435-.357,1.794-.357.718.357,1.077,1.07,1.795,1.427h.359l.359-1.07h0v-.713c.359-.357,1.076-.357,1.435-.713a4.923,4.923,0,0,0,0-3.211l.718-1.07v-1.07c-.359-.714,0-1.427,0-2.141v-.357a6.041,6.041,0,0,0,.359-2.5l-1.076-1.07a10.371,10.371,0,0,1,.718-3.211V300.7h0c0-.357.359-1.07.359-1.427l.359-.357.717-1.427c.359-.714,1.077-1.07,1.795-1.784h1.794a6.164,6.164,0,0,0,2.153-2.141l.359-.357,1.077-.714c0,2.5-1.077,4.638-1.435,7.135l1.077,1.07c0,.357-.359,1.07-.359,1.427a2.727,2.727,0,0,0-1.435.714,2.75,2.75,0,0,1-.359,1.07,2.7,2.7,0,0,0-.717,1.427l-.359.713h-.359V305.7c-.359.357-.718.357-1.077.714-.359,4.281-.359,4.281-.359,4.638l-.359,1.07v.357h.359a9.467,9.467,0,0,0,1.794,2.14v.714l.359-.357c.359,1.07,0,2.14,0,3.211.359,0,1.076-.357,1.435-.357l.359-.357v-.357h0l.718-.713h0l.359-.357h.359l.359-.357a7.822,7.822,0,0,0,1.794-1.427,37.329,37.329,0,0,1,2.871,3.924v1.427h.359l.359.357a2.727,2.727,0,0,1,1.435-.714l1.435-1.07.359-.356h.718a10.117,10.117,0,0,0,1.794-.357c7.177-4.994,7.177-4.994,9.689-3.567-.359.357-.359,1.07-.718,1.427v1.07l1.077.357h.359c1.794-.714,2.153-1.427,2.512-3.211v-.713l.718-.357h.359c1.077,0,2.153-1.427,2.871-3.924h0v-4.995c0-.713.359-1.783.359-2.5,1.794-5.351,1.794-5.351,3.23-6.778.359.357,1.077.357,1.435.713v.357h.359l.718,1.427.358.357c.359.357,1.077.714,1.435,1.07,1.077-1.07,1.077-1.07,1.435-4.281v-.357h0l.359-1.427v-1.784c-.359,0-1.077.357-1.436.357-.359-.714-.718-2.141-1.077-2.854l.359-.357.359-.357a1.115,1.115,0,0,1-.718-.357v-.714h0V285l.359-.356v-.357a11.512,11.512,0,0,1,1.794-1.07v-.357c.717-.356.717-.356,1.435,0v.357h.359c.359-.357.359-.357,2.153-1.07a6.7,6.7,0,0,0,1.435,1.07h.718c1.435.357,1.794,0,2.153-.357v-1.783a2.153,2.153,0,0,0,2.153-1.07h0l.359-.357c.359,0,.717.357,1.076.357h.359l.358-.357h0l.36-.357-.718-.713c-1.077-.714-2.871-.714-3.589-1.784h-.359c0-1.784,0-1.784.359-2.5h-.359a1.114,1.114,0,0,0-.718.357c-.359.357-.718,1.07-1.077,1.07s-.359,0-.718-.357l-.359-.357h-.718a5.436,5.436,0,0,1-3.23,1.427l-.359.357h0l-.359.357-.359.357h-1.077c-.359.357-.717.713-.717,1.07l-.359-.357h-1.077c-.718.357-.718.357-1.794,1.427l-.359-.357c-.359-1.427-.359-1.427-.717-1.784h0c-.359.357-.718.357-.718.713v-1.784l-.359-.357-.359-.357v-.357h-.359c-2.871-1.784-1.077-6.422-1.077-6.779.359-2.854-.717-6.065-.717-8.919v-.357c.359-1.07.359-1.07,1.435-1.427.359-.714.359-1.784,1.076-2.5,1.077,0,1.077-.357,2.153-2.854v-.357c2.153-4.638,2.153-4.638,2.871-6.422,0-.357.359-.357.359-.714h.717c0-.357.359-1.07.359-1.427v-.714h0v-.714s0-3.211-1.435-3.567v-.357h0v-.357h0v-.357a1.115,1.115,0,0,0-.718.357h-1.077c-.359,0-.717.357-1.076.357-.359.714-.359,1.427-1.076,2.141h0l-.359.357v.714l-.359.713.359.714v.357c-.718,1.07-.718,1.07-.718,4.281v.714c-.717,1.427-.717,2.854-1.794,3.924h0l-.359.357a.35.35,0,0,1-.359.357h-.718a9.492,9.492,0,0,1-2.153,1.784h0v.357l-.359.357-.359.357-.359.357v.357c-.359,1.427-.359,1.427-.718,1.783h-1.077c0,1.427-.359,1.784-.718,2.141h-.718a9.358,9.358,0,0,1-.359,2.5v.357a5.793,5.793,0,0,1,0,2.5l-.717.357-.359-.357-.359-.357h-.359a32.45,32.45,0,0,1-.359,6.065h0v.357c.359,1.07.359,1.07-2.153,3.567a2.725,2.725,0,0,0,1.436-.713,1.85,1.85,0,0,0,.718-1.427l.359-.357a1.255,1.255,0,0,1,.718-.357l.359.357h.359c1.794,4.638,1.435,5.352,1.077,6.065l-.359.357c-1.076,1.427-1.076,1.427-1.435,1.427l-.359-.357h-.359a.77.77,0,0,1-.718-.713c-.359,0-.717.357-1.077.357h0l-.359.357.359.357c.359,0,.718-.357,1.077-.357.359.357.359.714.718,1.07,1.794,0,1.794,0,2.153.714a1.243,1.243,0,0,0-.359.713c-.359.714-.359.714-1.435,1.784l-.359-.357v-.713c-1.077,1.427-1.435,1.784-1.435,2.14h0c-.359.357-.359,0-.718,0h-1.077v.357h.359l.359.357.359.357v.713h-.359c.359,0,.359,0,.359.357s-.359.713-.359,1.07.359.357.359.713h0a2.748,2.748,0,0,1-.359,1.07c-.359.357-.359.357-.359,2.141v.714c-.359,1.07-1.077,1.784-1.435,2.854s0,2.141-.359,3.211l-.718,1.427c-1.077,2.5-1.077,2.5-2.153,2.14h-.718c-.718.357-1.436.357-1.794,1.07s0,1.784-.359,2.5c-.359,1.07-.359,1.07-.718,1.07l-.359.357H429.34l.359-1.07c-.359,0-1.076,0-1.435,2.854-.358,1.784-1.077,1.784-1.794,1.427v-1.07c-.359-.357,0-.714-.359-1.427v-.357c-.359,0-1.077-.714-1.077-.714v-.357c0-.357-.359-.714,0-1.07.718,0,.718,0,1.077-.357V305.7a.35.35,0,0,1,.359-.357l1.794-.357c.359-.357.359-.357,1.435-.713.718-.357-.359-1.07,0-1.427s.359-.357,1.077-.357a6.22,6.22,0,0,0,.359-1.784c-.359-.357-.717-1.07-1.077-1.427v-.714c0-.713.359-1.07.359-1.427s-.359-.714-.359-1.427a7.809,7.809,0,0,0,.359-2.854c-.359.713-.359.713-.718.713-.359-.357,0-.713,0-1.07-.718-.713-.359-1.784-.359-2.854l-.359-.357c0-.714.359-1.784.359-2.5h0v-.357h0v-3.21c-.359-1.07,0-1.784,0-2.854-1.077,1.07-.718,2.5-1.435,3.567a.77.77,0,0,1-.718.714,1.322,1.322,0,0,0-1.076-.357,5.478,5.478,0,0,0-1.436,2.14h0l-.718.714c0,.357,0,.357-.359.713-.359.714-1.435,2.5-1.435,2.5-.359,0-.359.357-.717-.357l-.359-.714c-.718.357-.718.357-.718.714l-.359.357-.718.357c-.359,0-.359,0-.359-.357V290c-.359,0-.359.357-.718.357,0,0-.359,0,0-.713a3.58,3.58,0,0,0,.359-1.07c-.718.357-.718.357-.718.713l-.359.357v-.714c0-.357-.359-.357-.359-.713-.359-.357,0-1.07-.359-1.427v-1.07c0-2.14,3.23-2.14,2.512-4.638-.359,0-.718.357-1.077.357s-.718-.357-1.077-.357c0-.357.359-.714.359-1.07,2.153-.357,2.153-.357,2.512-.714l.359-.357.359-.714h-.359l-.359-.357c.718-1.784,1.435-2.5,3.588-4.281v-.713h0c-2.512.357-1.794,4.281-4.665,4.281l.359-.357,1.076-1.07c-.359-.357-.718-.713-1.076-.713V274.3c.359-.357.359-1.07,1.076-1.427h.718l.359-.357h-.718a1.245,1.245,0,0,1-.359-.714c.359-.713.359-1.784.718-2.5.359,0,1.077-.357,1.435,0h.718c.359,0,.718.357,1.077.714h.717v-.714l1.436-1.427-.359-.357-.718.713h-.718a1.243,1.243,0,0,1-.359-.713l-.359.357H423.6a6.315,6.315,0,0,1-1.794.357,1.255,1.255,0,0,0-.718-.357v-.357c0-.357.359-.714.359-1.07l.359-.357a2.66,2.66,0,0,0,.359-1.783l.359-.357h1.436c-.718-1.07-.718-1.07-.718-1.784a1.255,1.255,0,0,1,.718-.357c.359,0,.718.357,1.076.713,0-1.07,0-1.07.718-1.784h.359c.359-.357.717-.714.717-1.07l.718-.713c.718.357,1.077.713,1.435.713.718-.713.718-.713-.359-2.5,0-.357.359-.357.359-.713h1.077c0-.357.359-.714.359-1.07,1.794-.357,2.153-2.141,3.23-2.854l.359.357v1.07c.359-.357.359-.714.718-1.07v-.357c.359-.357.718-.357,1.077-.713.359,1.427.359,1.427.717,1.784.359-.357.718-.713,1.077-.713-.359-.357-.718-.714-1.077-.714a1.306,1.306,0,0,0-.359-1.07,1.1,1.1,0,0,1,.359-.713c1.794-.714,1.794-2.854,3.23-3.925h.718c.359-.713,1.076-1.07,1.076-2.14h-.718v-.357h.359c1.077-1.427,1.077-1.427,1.436-1.427.359-.357.359-.714.718-1.07l.359-.714h.359a4.885,4.885,0,0,1,1.794-3.567v-.714c-.359,0-.718.357-1.076.357.718-1.427,1.435-1.427,1.794-1.427a1.243,1.243,0,0,1,.359-.713v-1.07c2.153-1.427,2.153-4.281,3.589-6.065v-.357l.718-.713.359.357a1.256,1.256,0,0,1,.718-.357l-.359-.357h0a12.635,12.635,0,0,1,1.435-3.211h.718v.714h.359a3.2,3.2,0,0,0,.359-1.784V221.5l.359-.357.359.357a1.114,1.114,0,0,0,.718-.357v-.713c-.359-.357-.718-.357-1.077-.714a12.5,12.5,0,0,0,1.794-2.854v-.357c.717-.714.717-1.784,1.076-2.5l.359.357a1.305,1.305,0,0,1,.359-1.07,3.86,3.86,0,0,1,.359,1.784v-.357c0-1.07-.359-1.784,0-2.854h.717v.714c0-1.07,0-1.07.718-1.784a7.811,7.811,0,0,1-.359,2.854c.359-1.07,0-2.14.717-2.854v0h.718a1.244,1.244,0,0,1,.359.714v-1.427c-.359-1.427-.359-1.427,0-2.14a1.243,1.243,0,0,0,.359.713h0c.359.357.717.357,1.076.714a1.958,1.958,0,0,1,.718-1.784h0c.718-1.07-.359-2.5.718-3.211v.357c.359,1.427.359,1.427,0,1.784a9.046,9.046,0,0,0,0,3.21v-.356c.359-1.07.359-1.07.718-4.995.359,1.07,0,2.141.718,3.211a24.194,24.194,0,0,1,.359-4.281c1.435,1.427.359,2.854.718,4.638h0c0-.357.359-.714,0-1.07v-1.784h.359c.359,1.07,1.076,1.784,1.435,1.784h0l.359.357v.357c.359,1.07,0,1.07-.359,1.784h-1.435a21.141,21.141,0,0,0,1.435,2.854c.718-.713.718-.713,1.435-.713.359,0,.359-.357.359-.714l1.077,1.07a1.243,1.243,0,0,0-.359.714c-.359,0-.359,0-.718-.357,0,1.07,1.077,1.427,1.795,2.5,5.024-.357,5.742,4.638,8.971,6.778,0,0,12.2,10.346,4.306,14.984-8.254-4.638-8.254-4.638-8.254-4.995h-1.077c-.359-.713-.718-1.07-1.077-1.784h-.718c1.436,4.281,10.766,8.205,6.1,11.773,0,0,1.435,6.778,3.947,7.135a31.473,31.473,0,0,0,3.588,3.568,6.713,6.713,0,0,1,1.435-1.07c-.717-2.854-1.435-2.854-2.153-2.854-2.871-3.568-2.871-3.568-2.512-5.352h.718a15.357,15.357,0,0,1,2.512,3.568,2.7,2.7,0,0,1,.718-1.427c3.23,1.784,3.23,1.784,4.306,1.784-1.076-2.5-3.589-4.281-4.306-6.778-.359-2.141,1.435-3.924,1.794-5.708a1.255,1.255,0,0,1,.717-.357,6.636,6.636,0,0,1,2.871,2.5c.359,0,1.077.357,1.435.357-4.665-8.919-4.665-8.919-10.048-18.195h.359c2.871,1.07,6.1,2.854,6.46,5.708-.359.357-.718.357-1.077.713V226.5c0,.357,3.589,4.995,5.742,4.995,1.794-2.141-1.794-3.924-1.435-6.065l.359-.357c-.718-1.07.359-5.708.359-5.708h0a1.323,1.323,0,0,1,1.077.357c-.359-.357-1.077-1.427-1.435-1.784l.718.714a2.661,2.661,0,0,1-.359-1.784c4.306,3.925,4.306,3.925,5.024,4.281-1.794-2.141-1.794-2.141-1.435-3.211.359,0,1.435.357,1.794,0a3,3,0,0,1-.718-2.5c1.436,1.07,2.512,3.567,4.665,3.567-2.512-3.211-6.46-5.351-8.254-9.276,5.742,1.784,5.742,1.784,18.66,8.562h0c-11.842-11.416-27.273-17.481-40.551-26.043,0,0,10.766,5.351,22.608,12.13-7.177-4.281-14-8.919-21.531-12.13,7.536,2.5,14.354,6.422,21.89,8.919a6.081,6.081,0,0,0-1.794-.714c-2.871-1.427-6.1-2.141-8.971-3.568,1.077.357,1.794.714,2.871,1.07-2.153-1.07-4.665-1.784-6.459-3.211,2.871.713,5.383,2.5,8.254,2.5h0l.718.357c6.459,2.5,11.483,7.492,18.3,8.206-23.684-11.773-43.062-16.768-48.445-17.838h.718a6.142,6.142,0,0,1,2.512.357,110.683,110.683,0,0,1,11.125,1.427c-2.512-.357-5.383-.714-7.895-1.07l10.766,1.07h1.794c-3.589-.357-9.689-1.07-14.354-1.07h-1.435c2.512,0,4.665.357,7.177.357h-1.077c5.742.357,11.842.714,17.584,1.427l9.689,1.07c5.742.714,11.483,1.427,17.225,1.784-5.742-1.07-11.842-1.427-17.584-2.854,6.46.714,6.46.714,7.536.714-.717,0-1.794-.357-2.512-.357,6.459.357,6.459.357,7.177.357a99.982,99.982,0,0,0-10.765-1.427h0c-2.153-.357-4.306-.357-6.459-.714h0a37.29,37.29,0,0,0-5.024-.357H490.7a35,35,0,0,1-6.1-.357c10.407,0,20.455.714,30.862.357-.717,0-.717,0-3.947-1.427h0c2.153,0,5.024,0,20.455,1.427a29.112,29.112,0,0,1-5.024-1.07H529.1a2.749,2.749,0,0,0-1.794-.713h-.359a265.335,265.335,0,0,1,89,24.259l5.024,2.5c-2.871-1.427-3.23-1.784-4.665-2.14,3.948,2.14,4.665,2.5,5.742,2.854a1.255,1.255,0,0,1-.718-.357h0l.718.357c3.589,2.14,7.177,3.925,10.766,5.708A66.762,66.762,0,0,0,639.628,224c-.359-.357-1.076-.713-1.435-1.07,1.076.714,1.076.714,8.254,4.995h-.359c.359,0,.359.357.718.357a42.5,42.5,0,0,0,4.306,2.854,31.619,31.619,0,0,0-3.588-2.141c6.818,4.281,8.971,6.065,14,9.276h-.359c5.383,3.924,8.971,6.779,10.766,7.849h0a4.951,4.951,0,0,0,1.435,1.07c.359.357.718.357.718.713,6.1,4.638,10.407,8.562,11.842,9.633l-.359-.357c-11.483-9.633-20.813-16.054-21.89-16.768-.359-.357-1.077-.714-1.435-1.07h0a15.187,15.187,0,0,0-2.512-1.784h0a76.907,76.907,0,0,1-6.818-4.638l-4.306-2.854h-.359c-.359-.357-1.076-.357-1.435-.714l-.718-.713h-.359a3.581,3.581,0,0,1-1.794-1.427h-.359c-1.076-.714-3.588-2.141-6.1-3.568-.359-.357-.718-.357-.718-.714.359,0,.359.357.718.357-.718-.357-1.794-1.07-2.512-1.427-1.076-.714-2.512-1.427-3.589-2.141-1.435-.714-2.512-1.427-3.947-2.141a20.743,20.743,0,0,1-3.23-1.784c-1.435-.714-2.512-1.427-3.947-2.141l-.359-.357c-.718-.357-.718-.357-4.665-2.14h-.359c-1.077-.713-2.512-1.07-3.589-1.784l-.359-.357c-1.435-.714-2.871-1.07-4.306-1.784l-.359-.357-1.077-.357-1.076-.357c-.359,0-.718,0-.718-.357a1.255,1.255,0,0,1,.718.357,23.9,23.9,0,0,0,2.512,1.07c1.435.714,3.23,1.427,4.665,2.141h0c.359.357,1.077.357,1.794.713-.359,0-.717-.357-1.077-.357l.718.357a9.017,9.017,0,0,1,2.512,1.427c1.076.713,2.153,1.07,3.229,1.784l3.589,1.784c.718.357,1.077.714,1.794,1.07a1.255,1.255,0,0,1-.718-.357l-1.077-.357a42.229,42.229,0,0,1-3.948-1.784h-.359c-1.077-.357-2.153-1.07-3.23-1.427l-1.077-.357.359.357.359.357.359.357h.359c-.359,0-1.077-.357-1.435-.357h.359a8.89,8.89,0,0,1,2.153,1.427h.359l8.613,4.281.359.357.359.357,7.536,4.281h0A2.729,2.729,0,0,0,634.6,224c1.077.713,2.153.713,2.871,1.427h.359l.359.357h.718l.718.713.718.357c1.077.713,2.871,2.141,2.871,2.141a15.671,15.671,0,0,1-2.512-1.427h0a1.255,1.255,0,0,1-.718-.357h-.359a1.323,1.323,0,0,1-1.076-.357l.718.713-.359-.357h-1.077s4.306,3.211,5.742,4.638l-.359-.357H642.5a2.7,2.7,0,0,1,.718,1.427l.359.357c1.077.713,1.077.713,5.024,3.568,0,.357,0,.357.359.713h.359v-.713c7.895,5.708,7.895,5.708,14.354,11.059,5.024,4.281,8.613,9.99,15.072,12.843h0l.359-.357-.359-.357c1.794.713,3.23,2.5,5.024,3.211l-.359-.357c-.718-.714-1.794-1.427-2.512-2.141a9.5,9.5,0,0,0,2.153,1.784l.359.357.359.357.359.357.718.714a1.255,1.255,0,0,0,.718.357c-.359-.713-.359-.713-2.153-2.14.718.357,1.076,1.07,1.794,1.427-4.307-3.925-4.307-3.925-4.307-4.281,1.435.714,3.23,1.784,4.665,2.5l.359.357c.359.357,1.077.713,1.435,1.07l.359.714.718.713a32.937,32.937,0,0,1,5.383,3.925c18.66,17.481,18.66,17.481,22.249,21.762l.359.357.359.357c6.1,7.135,6.1,7.135,13.278,16.411l.359.357.359.357a31.368,31.368,0,0,1,2.153,3.568l.359.357.359.357.359.357c.359.713.718,1.07,1.076,1.784l.359.714.359.713c.359.714.718.714,1.077,1.784a7.794,7.794,0,0,0,1.076,1.784c.718,1.427.718,1.427.718,1.784h-.718l-1.076-1.07h-.359a11.473,11.473,0,0,0,1.077,1.784c.359.357.718,1.427,1.077,1.784,0,0,2.512,5.352,3.947,6.779l.718.713c.359.357.359.714.718,1.07l.359.357a36.073,36.073,0,0,1,3.229,6.779l.359.713a8.466,8.466,0,0,0,2.871,4.638h.359c.359.357.718.714,1.077.714l1.435,1.427.359.357a19.817,19.817,0,0,0,2.153,2.854A27.225,27.225,0,0,1,759.845,356c.359.357,3.23,5.708,3.23,5.708v.357l.359.357c0,.357,0,.714.359.714v2.14l.359.713v.357h0a15.623,15.623,0,0,0,.718,3.567l.359.714c0,.357.359.713.359,1.07-.359-.357-.359-.357-2.512-4.638-.718-1.07-1.077-2.5-1.794-3.568,0-.356-.359-.356-.359-.713v-.357c-.718-1.07-1.435-1.784-2.153-2.854-.359-.357-.359-.357-1.076-1.784,0-.714,0-.714-1.794-3.568l-.359-.357h-1.077c.359.357.359,1.07.718,1.784a1.244,1.244,0,0,1-.359-.714l-.359-.357H754.1c-.718,0-.718,0-2.153-3.568-1.076-2.854-1.435-3.211-5.024-5.708,0,0,1.436,6.422,1.794,7.849h0s-.359.357.359,1.427h0c-.359,0-1.077-1.427-1.077-1.427a6.21,6.21,0,0,1-.359-1.784.351.351,0,0,0-.359-.357c-.359,0-.359-.357-.718-.357l-.718-.714v-.357a14,14,0,0,0-.717-2.141h0c1.435,1.784,2.512,3.925,3.947,5.708-1.435-1.784-2.512-3.924-3.947-6.065a15.394,15.394,0,0,1-1.435-2.5L741.9,342.8h0c.359,1.07.718,2.5,1.077,3.567.718,1.784,1.077,3.568,1.794,5.352l.359,1.427c.717,2.141.717,2.141.359,3.568h0l-.359-.357c1.435,3.211,1.794,3.568,3.229,4.638l.359.357.359.357c.718.357,1.435,1.07,2.153,1.427a10.833,10.833,0,0,1,1.794,2.5h0c0-.357.359-.357.359-.714-.718-2.14-.718-2.14-.359-3.924.359,0,1.077.357,1.435.357,0-.357-.359-.357-.359-.713v-.357h0l1.077.714,1.076,2.141v.356h0v.357H755.9v.357c-.359-.714-1.077-1.784-1.435-2.5a31.668,31.668,0,0,1,1.794,3.567l.359,1.07h0l-.359.714.359.714a4.5,4.5,0,0,1,.359,2.14c1.435,3.568,2.153,5.352,2.153,6.065l.359.714,1.077,1.427,1.076.713H762c1.794,2.5,3.229,5.351,5.383,7.849l1.435,1.427h0c.359,0,.359.714.718.714a1.243,1.243,0,0,0,.359.713l.359.714v.357c-.359-.713-.718-1.784-1.077-2.5a6.584,6.584,0,0,1,.718,2.5h0a2.726,2.726,0,0,1-1.435-.713l.359.357c1.436.357,1.794,2.141,2.871,2.854.359,0,.359.357.718.714h0v.713a12.133,12.133,0,0,0,.359,3.924h.718c.359.357.359.713.718,1.07h0l.359.357a1.1,1.1,0,0,0,.359.713v-.357c0,.357.359.713.359,1.07v.714c0-.357-.359-.357-.359-.714,0,.357.359.357.359,1.07,0,2.141,1.435,3.924,1.794,6.065v.357l1.076,4.281v.714a15.608,15.608,0,0,0,.718,3.567l-.359-.713-.359-.357h0l.359,1.07c.718,1.427.718,1.427,1.794,5.351v.357l.359,1.07v.357l.359.713s3.23,13.557-1.794,19.265c-.359-.357-.359-.714-.718-1.07a8.355,8.355,0,0,1,.718,2.854c-.359-.357-.718-.713-1.077-.713.718,1.427,1.077,2.141,0,3.924h0c-1.794,3.211-.717,6.778-1.435,9.989-2.512-4.638-2.512-4.638-2.871-4.995-7.536,2.5-1.794,16.411.718,22.476h0c0,.357,0,.357,6.1,8.562,1.794,2.5,3.23,12.843,3.23,12.843.718,5.351.359,7.492-1.076,9.633a5.274,5.274,0,0,0-.718,3.211,3.043,3.043,0,0,0-1.076,2.14c0,1.07-1.435,8.206-2.512,9.632,0,0-.359-6.421-.718-8.2h-.359c-.359-.357-.359-.357-2.512-.357a14.83,14.83,0,0,1-.359-2.5c-.359.357-.359.714-.718,1.07-1.435-6.065-2.871-6.065-5.383-6.065a11.3,11.3,0,0,1-1.076-3.211h-.359c-.359.357-.718.357-1.436.713,1.077,6.422-1.076,12.844.359,19.265.359,1.783,2.153,2.5,2.512,3.924.718,1.784.718,3.924,1.435,5.708,0,.357.359.713.359,1.07.718,1.07.718.714,2.153.357.359,0,.359,0,1.077,1.427h.359c4.306,6.421,4.665,19.978,4.665,21.405-.359,0-3.589,1.427-5.742-4.995-1.794-5.708-3.23-11.416-5.383-16.768-.718-1.784-2.512-3.211-3.23-4.995a2.661,2.661,0,0,1-.359-1.784c-1.077-4.638,1.077-9.276,0-14.27h-.718c-5.024-21.762-5.024-21.762-8.971-25.686,1.077,5.351.359,7.492-3.23,9.633l-1.794-1.784a8.138,8.138,0,0,0-.359-4.995v-.357c0-.357,0-.357-.359-.714h.359c-.359-.357-.359-.357-.359-.714h0c-1.794-6.778-1.794-6.778-15.789-21.405a14.709,14.709,0,0,1,.718,5.351c-.359,0-1.076.357-1.435.357,0,.357-.359,1.07-.359,1.427-1.435.357-1.435.357-3.947,1.784a6.581,6.581,0,0,1-.718-2.5c-2.153,8.919-2.153,8.919-1.435,10.7a174.975,174.975,0,0,0-8.253,16.411C709.964,496.206,709.246,497.276,708.528,497.99Zm85.048,80.271c0,.357-.359.713-.359,1.07h0v-.357l-.359.357c-.359.714-.718.357-.718.357,0-.714,0-1.07,1.077-3.211v0h.359v.357l.359-.713c.359-.357.359-.357.359-.714v0a14.789,14.789,0,0,1,.718-2.141h0v1.07h0a16.738,16.738,0,0,1-1.077,3.211l-.359.713C793.935,577.9,793.935,578.261,793.576,578.261Zm4.307-8.919c-.359,1.784-2.153,8.919-2.153,8.919s-1.077,3.924-1.435,3.924c0-.357.718-3.924.718-3.924a73.685,73.685,0,0,1,2.871-9.276Zm1.077-37.459c-.359,0-.359-.357-.359-.714-.359.714-.359,1.784-.718,2.5v-.357c-.359,0-.359.357-.359.713v-.357a9.957,9.957,0,0,0-.359,1.784l-.359-.357v.357c-.359,3.925-.359,6.422-.359,6.778h.359a2.684,2.684,0,0,0,.359,1.427,24.159,24.159,0,0,0,1.077-4.281l.717-.714v-.714c0-1.07.359-1.07.359-1.427h.359l-1.076,5.708c-.359.713-.359,1.427-.718,1.784h0c-.718,2.141.718,3.924.359,6.065,0,.714-.359,1.427,0,1.784-.718,5.708-.718,5.708-1.077,6.778a18.242,18.242,0,0,1,0-7.135c.359-2.5,0-2.5,0-2.854-1.076,1.427-1.076,8.919-1.076,8.919,0,6.065-.718,6.422-1.435,7.135,1.076-7.849,1.076-8.205,1.076-9.276h-.359v.357c-.359-.714.359-5.708.359-6.421a7.805,7.805,0,0,0,.359-2.854c0-2.854.718-5.708.718-8.562v-.357c.359-1.427,0-2.854.359-3.924h.359c.359-1.07-.718-2.5.718-3.211a1.243,1.243,0,0,1,.359.713,2.744,2.744,0,0,1,.718-1.07h.359c1.077-1.784.718-4.281,1.436-6.065v1.427A31.3,31.3,0,0,1,798.96,531.882Z" transform="translate(-115.7 -171.2)" fill="#e7e9f0"></path></svg>