<svg height="512" viewBox="0 0 60 60" width="512" xmlns="http://www.w3.org/2000/svg"><g id="013---Pocket-Knife" transform="translate(-1 -1)"><path id="Shape" d="m31 5c-3.3137085 0-6 2.6862915-6 6s2.6862915 6 6 6 6-2.6862915 6-6-2.6862915-6-6-6zm0 10c-2.209139 0-4-1.790861-4-4s1.790861-4 4-4 4 1.790861 4 4c0 1.060866-.4214274 2.0782816-1.1715729 2.8284271s-1.7675611 1.1715729-2.8284271 1.1715729z"/><path id="Shape" d="m35 46h-1v-1c0-1.1045695-.8954305-2-2-2h-2c-1.1045695 0-2 .8954305-2 2v1h-1c-1.1045695 0-2 .8954305-2 2v2c0 1.1045695.8954305 2 2 2h1v1c0 1.1045695.8954305 2 2 2h2c1.1045695 0 2-.8954305 2-2v-1h1c1.1045695 0 2-.8954305 2-2v-2c0-1.1045695-.8954305-2-2-2zm0 4h-2c-.5522847 0-1 .4477153-1 1v2h-2v-2c0-.5522847-.4477153-1-1-1h-2v-2h2c.5522847 0 1-.4477153 1-1v-2h2v2c0 .5522847.4477153 1 1 1h2z"/><path id="Shape" d="m58 14c1 0 1.45-.63 2.4-1.58.3786253-.3755332.5915966-.8867249.5915966-1.42s-.2129713-1.0444668-.5915966-1.42l-1-1c-.3725213-.36948833-.8753202-.57779076-1.4-.58h-17.46c-1.4803279-4.71048024-6.1771061-7.63541648-11.057531-6.88611889-4.880425.74929758-8.4834242 4.94850877-8.482469 9.88611889v19.28l-.95-1-.22-1.92c-.1056711-.9247254-.8352746-1.6543289-1.76-1.76l-1.47-.17-.17-1.43c-.1056711-.9247254-.8352746-1.6543289-1.76-1.76l-1.47-.17-.2-1.45c-.1031058-.935255-.844179-1.6721649-1.78-1.77l-1.45-.16-.16-1.45c-.10132447-.9286189-.83197008-1.6634159-1.76-1.77l-1.43-.17-.1-1c-.13391133-.9743584-.79264268-1.7962047-1.71448025-2.1390196-.92183756-.3428149-1.95750033-.1510834-2.69551975.4990196-.55934846.4796675-.88988078 1.1734222-.91 1.91-.09641277 3.7398699.78973504 7.4396232 2.57 10.73 2.66 4.88 2.07 3.75 17.43 19.11v.59h-7c-1.1045695 0-2 .8954305-2 2h-4c0-1.1045695-.8954305-2-2-2h-3c-1.1045695 0-2 .8954305-2 2 0 3.3137085 2.6862915 6 6 6h14.2c1.0223435 5.0347855 5.6934688 8.4757374 10.8049921 7.9594219s9.0001711-4.8218909 8.9950079-9.9594219v-19.93l6.36 6.37c2.7148487 2.7103066 5.9404546 4.8550455 9.49 6.31 1.1143851.4460619 2.3873844.184927 3.2361557-.6638443s1.1099062-2.1217706.6638443-3.2361557c-1.4549545-3.5495454-3.5996934-6.7751513-6.31-9.49l-13.44-13.43v-2.93zm0-4 1 1-1 1h-17c.0341404-.6662296.0341404-1.3337704 0-2zm-52.67 14.35c-1.61756099-2.9824767-2.42117471-6.33834-2.33-9.73.04126923-.3359096.32656479-.5882993.665-.5882993s.62373077.2523897.665.5882993l.1.94c.12372699.9124186.85441146 1.6224622 1.77 1.72l1.47.18.16 1.45c.10310576.935255.84417899 1.6721649 1.78 1.77l1.45.16.16 1.46c.1031058.935255.844179 1.6721649 1.78 1.77l1.47.16.17 1.49c.1142757.916931.8418229 1.6362106 1.76 1.74l1.47.17.26 2.27c.05.48.07.38 2.89 3.2v8.49c-13.94-13.93-13.29-12.82-15.69-17.24zm1.67 26.65c-2.209139 0-4-1.790861-4-4h3c0 1.1045695.8954305 2 2 2h4c1.1045695 0 2-.8954305 2-2h7v4zm32 0c0 4.418278-3.581722 8-8 8s-8-3.581722-8-8v-40c0-4.418278 3.581722-8 8-8s8 3.581722 8 8zm14-19.22c2.4667856 2.4621147 4.4270704 5.3838563 5.77 8.6l-15-15c-.2443899-.2853762-.6281184-.4096819-.993419-.3218101-.3653005.0878718-.6505193.3730906-.7383911.7383911-.0878718.3653006.0364339.7490291.3218101.993419l15 15c-3.2100584-1.3522977-6.1247374-3.3191965-8.58-5.79l-7.78-7.75v-8.5z"/><path id="Shape" d="m26 22c.5522847 0 1-.4477153 1-1v-2c0-.5522847-.4477153-1-1-1s-1 .4477153-1 1v2c0 .5522847.4477153 1 1 1z"/><path id="Shape" d="m26 42c.5522847 0 1-.4477153 1-1v-16c0-.5522847-.4477153-1-1-1s-1 .4477153-1 1v16c0 .5522847.4477153 1 1 1z"/></g></svg>