<svg xmlns="http://www.w3.org/2000/svg" width="31" height="31.036" viewBox="0 0 31 31.036">
  <g id="telephone" transform="translate(-124.284 14)">
    <g id="Group_10" data-name="Group 10" transform="translate(124.284 -14)">
      <path id="Path_14" data-name="Path 14" d="M22.249,57.772c.14.006.274.013.414.013a4.862,4.862,0,0,0,3.722-1.6l.025-.025a14.7,14.7,0,0,1,1.164-1.2c.286-.274.579-.554.853-.846a2.954,2.954,0,0,0-.013-4.4l-3.627-3.627a2.973,2.973,0,0,0-2.157-.993,3.066,3.066,0,0,0-2.176.98L18.31,48.215c-.191-.108-.388-.2-.579-.3-.242-.121-.464-.235-.662-.356a22.763,22.763,0,0,1-5.453-4.969A12.811,12.811,0,0,1,9.79,39.676c.56-.509,1.082-1.037,1.584-1.553.185-.185.369-.375.56-.566a2.884,2.884,0,0,0,0-4.4l-1.8-1.8c-.21-.21-.414-.42-.617-.624-.4-.407-.814-.834-1.228-1.215a3,3,0,0,0-2.144-.948,3.129,3.129,0,0,0-2.176.948L1.709,31.767a4.709,4.709,0,0,0-1.4,3,11.265,11.265,0,0,0,.84,4.849A28.376,28.376,0,0,0,6.176,48a31.027,31.027,0,0,0,10.3,8.068A15.988,15.988,0,0,0,22.249,57.772ZM7.379,47a26.81,26.81,0,0,1-4.759-7.928,9.65,9.65,0,0,1-.751-4.18,3.117,3.117,0,0,1,.948-2.023l2.246-2.246a1.59,1.59,0,0,1,1.088-.5,1.531,1.531,0,0,1,1.063.509c.4.375.789.77,1.2,1.184.2.21.414.426.63.636l1.8,1.8a1.371,1.371,0,0,1,0,2.2c-.191.191-.382.382-.566.573-.56.566-1.082,1.1-1.661,1.616l-.032.032a1.214,1.214,0,0,0-.312,1.381c.006.019.013.032.019.051a14.4,14.4,0,0,0,2.125,3.455,24.267,24.267,0,0,0,5.835,5.313,9,9,0,0,0,.8.439c.242.121.464.235.662.356.025.013.045.025.07.038a1.33,1.33,0,0,0,.6.153,1.277,1.277,0,0,0,.923-.426l2.259-2.259a1.55,1.55,0,0,1,1.075-.522,1.517,1.517,0,0,1,1.044.522l3.64,3.64a1.429,1.429,0,0,1-.019,2.221c-.255.274-.522.528-.8.8a16.551,16.551,0,0,0-1.266,1.311,3.28,3.28,0,0,1-2.564,1.082c-.1,0-.21-.006-.312-.013a14.532,14.532,0,0,1-5.192-1.553A29.237,29.237,0,0,1,7.379,47Z" transform="translate(-0.284 -26.748)" fill="#fff"/>
      <path id="Path_15" data-name="Path 15" d="M254.729,89.111a.778.778,0,0,0-.261,1.533,8.6,8.6,0,0,1,7.006,7.006.778.778,0,0,0,.77.649.95.95,0,0,0,.134-.013.773.773,0,0,0,.636-.9,10.146,10.146,0,0,0-8.285-8.278Z" transform="translate(-237.689 -83.431)" fill="#fff"/>
      <path id="Path_16" data-name="Path 16" d="M271.746,14.6a.949.949,0,0,0,.134-.013.773.773,0,0,0,.636-.9A16.779,16.779,0,0,0,258.829.011a.778.778,0,1,0-.261,1.533,15.232,15.232,0,0,1,12.408,12.408A.778.778,0,0,0,271.746,14.6Z" transform="translate(-241.528 0)" fill="#fff"/>
    </g>
  </g>
</svg>
